M48
INCH
T1C0.0157
T2C0.0295
T3C0.1260
%
G90
G05
T1
X4.3465Y-4.3071
X4.3465Y-4.4567
X4.3937Y-4.3071
X4.3937Y-4.4567
X4.4409Y-4.3071
X4.4409Y-4.4567
X4.4882Y-4.3071
X4.4882Y-4.4567
X4.5354Y-4.3071
X4.5354Y-4.4567
X4.5827Y-4.3071
X4.5827Y-4.4567
X4.626Y-4.3071
X4.626Y-4.4567
X4.7244Y-4.0866
X4.7559Y-4.4094
X4.7638Y-4.1732
X4.7953Y-4.5433
X4.8346Y-3.8898
X4.8898Y-4.1969
X4.8898Y-4.5906
X4.937Y-4.3228
X4.9685Y-3.8976
X5.0472Y-4.2835
X5.1417Y-4.2126
X5.1417Y-4.5039
X5.1496Y-3.9449
X5.2441Y-4.1811
X5.252Y-4.3622
X5.2677Y-4.6063
X5.3071Y-3.8976
X5.3071Y-4.3622
X5.3228Y-4.5669
X5.3465Y-4.1024
X5.3937Y-3.937
X5.4094Y-4.5748
X5.5197Y-4.3465
X5.5512Y-3.9291
X5.6299Y-4.5748
X5.6614Y-4.1811
X5.748Y-4.5118
X5.7559Y-4.189
X5.8189Y-4.5669
X5.8504Y-3.9449
X5.8583Y-4.1654
X5.8937Y-4.3228
X5.8937Y-4.4409
X5.9449Y-4.3228
X5.9449Y-4.4409
X5.9685Y-4.2205
X5.9921Y-4.3228
X5.9921Y-4.4409
T2
X4.5433Y-4.1181
X4.622Y-4.1181
T3
X4.2913Y-4.0157
X6.0394Y-4.0157
T0
M30
