%TF.GenerationSoftware,KiCad,Pcbnew,7.0.1*%
%TF.CreationDate,2023-04-02T02:08:02+02:00*%
%TF.ProjectId,OpenSPS_PCB,4f70656e-5350-4535-9f50-43422e6b6963,rev?*%
%TF.SameCoordinates,Original*%
%TF.FileFunction,Copper,L2,Bot*%
%TF.FilePolarity,Positive*%
%FSLAX46Y46*%
G04 Gerber Fmt 4.6, Leading zero omitted, Abs format (unit mm)*
G04 Created by KiCad (PCBNEW 7.0.1) date 2023-04-02 02:08:02*
%MOMM*%
%LPD*%
G01*
G04 APERTURE LIST*
G04 Aperture macros list*
%AMRoundRect*
0 Rectangle with rounded corners*
0 $1 Rounding radius*
0 $2 $3 $4 $5 $6 $7 $8 $9 X,Y pos of 4 corners*
0 Add a 4 corners polygon primitive as box body*
4,1,4,$2,$3,$4,$5,$6,$7,$8,$9,$2,$3,0*
0 Add four circle primitives for the rounded corners*
1,1,$1+$1,$2,$3*
1,1,$1+$1,$4,$5*
1,1,$1+$1,$6,$7*
1,1,$1+$1,$8,$9*
0 Add four rect primitives between the rounded corners*
20,1,$1+$1,$2,$3,$4,$5,0*
20,1,$1+$1,$4,$5,$6,$7,0*
20,1,$1+$1,$6,$7,$8,$9,0*
20,1,$1+$1,$8,$9,$2,$3,0*%
G04 Aperture macros list end*
%TA.AperFunction,ComponentPad*%
%ADD10C,6.400000*%
%TD*%
%TA.AperFunction,ComponentPad*%
%ADD11RoundRect,0.250000X0.350000X0.625000X-0.350000X0.625000X-0.350000X-0.625000X0.350000X-0.625000X0*%
%TD*%
%TA.AperFunction,ComponentPad*%
%ADD12O,1.200000X1.750000*%
%TD*%
%TA.AperFunction,SMDPad,CuDef*%
%ADD13R,4.200000X1.350000*%
%TD*%
%TA.AperFunction,ViaPad*%
%ADD14C,0.800000*%
%TD*%
%TA.AperFunction,Conductor*%
%ADD15C,1.000000*%
%TD*%
G04 APERTURE END LIST*
D10*
%TO.P,H2,1,1*%
%TO.N,Earth*%
X153400000Y-102000000D03*
%TD*%
D11*
%TO.P,VCC/GND,1,Pin_1*%
%TO.N,Earth*%
X117400000Y-104600000D03*
D12*
%TO.P,VCC/GND,2,Pin_2*%
%TO.N,VCC*%
X115400000Y-104600000D03*
%TD*%
D13*
%TO.P,Ref in,2,Ext*%
%TO.N,Earth*%
X106962500Y-108575000D03*
X106962500Y-114225000D03*
%TD*%
%TO.P,Laser out,2,Ext*%
%TO.N,Earth*%
X155412500Y-114175000D03*
X155412500Y-108525000D03*
%TD*%
D10*
%TO.P,H1,1,1*%
%TO.N,Earth*%
X109000000Y-102000000D03*
%TD*%
D14*
%TO.N,+3.3V*%
X143800000Y-106200000D03*
X135800000Y-104200000D03*
X134800000Y-110800000D03*
X137400000Y-116200000D03*
X121800000Y-115400000D03*
%TO.N,Earth*%
X116400000Y-113200000D03*
X140200000Y-110400000D03*
X117500000Y-109400000D03*
X133800000Y-117000000D03*
X147800000Y-116000000D03*
X124200000Y-116600000D03*
X115200000Y-109400000D03*
X149700000Y-112800000D03*
X152200000Y-109800000D03*
X114000000Y-113200000D03*
X146200000Y-106400000D03*
X115200000Y-113200000D03*
X111600000Y-109400000D03*
X143000000Y-116200000D03*
X124200000Y-106600000D03*
X122800000Y-98800000D03*
X110400000Y-109400000D03*
X134800000Y-99000000D03*
X112800000Y-113200000D03*
X148800000Y-105800000D03*
X151600000Y-107200000D03*
X149700000Y-109800000D03*
X111600000Y-113200000D03*
X130600000Y-114400000D03*
X125400000Y-109800000D03*
X128200000Y-108800000D03*
X152200000Y-112800000D03*
X112800000Y-109400000D03*
X137000000Y-100000000D03*
X130600000Y-107000000D03*
X126200000Y-99000000D03*
X151000000Y-109800000D03*
X146000000Y-114600000D03*
X117500000Y-113200000D03*
X130800000Y-100200000D03*
X114000000Y-109400000D03*
X148600000Y-100200000D03*
X121000000Y-106000000D03*
X133200000Y-106200000D03*
X110400000Y-113200000D03*
X116400000Y-109400000D03*
X120000000Y-103800000D03*
X151000000Y-112800000D03*
%TO.N,/Vth*%
X133400000Y-110800000D03*
X135200000Y-116000000D03*
X141000000Y-99800000D03*
X120800000Y-112000000D03*
%TD*%
D15*
%TO.N,+3.3V*%
X139400000Y-104200000D02*
X140200000Y-104200000D01*
X135348528Y-107348528D02*
X136251472Y-107348528D01*
X136251472Y-107348528D02*
X139400000Y-104200000D01*
X134800000Y-107897056D02*
X135348528Y-107348528D01*
X142400000Y-104200000D02*
X140200000Y-104200000D01*
X134800000Y-110800000D02*
X134800000Y-107897056D01*
X143400000Y-105200000D02*
X142400000Y-104200000D01*
X143800000Y-105600000D02*
X143400000Y-105200000D01*
X143800000Y-106200000D02*
X143800000Y-105600000D01*
%TO.N,/Vth*%
X133400000Y-107600000D02*
X133400000Y-110800000D01*
X135200000Y-105800000D02*
X133400000Y-107600000D01*
X135897056Y-105800000D02*
X135200000Y-105800000D01*
X137600000Y-104097056D02*
X135897056Y-105800000D01*
X137600000Y-102800000D02*
X137600000Y-104097056D01*
X139702944Y-100697056D02*
X137600000Y-102800000D01*
X141000000Y-100697056D02*
X139702944Y-100697056D01*
X141000000Y-99800000D02*
X141000000Y-100697056D01*
%TO.N,+3.3V*%
X134800000Y-113600000D02*
X137400000Y-116200000D01*
X119500000Y-109500000D02*
X119500000Y-114500000D01*
X120400000Y-115400000D02*
X121800000Y-115400000D01*
X119500000Y-114500000D02*
X120400000Y-115400000D01*
X120800000Y-108200000D02*
X119500000Y-109500000D01*
X130155635Y-104200000D02*
X126155635Y-108200000D01*
X135800000Y-104200000D02*
X130155635Y-104200000D01*
X126155635Y-108200000D02*
X120800000Y-108200000D01*
X134800000Y-110800000D02*
X134800000Y-113600000D01*
%TO.N,/Vth*%
X131200000Y-112000000D02*
X128600000Y-112000000D01*
X120800000Y-112000000D02*
X128600000Y-112000000D01*
X128600000Y-112000000D02*
X132200000Y-112000000D01*
X132200000Y-112000000D02*
X133400000Y-110800000D01*
X135200000Y-116000000D02*
X131200000Y-112000000D01*
%TD*%
%TA.AperFunction,Conductor*%
%TO.N,Earth*%
G36*
X134141512Y-105214015D02*
G01*
X134185535Y-105251615D01*
X134207690Y-105305102D01*
X134203148Y-105362818D01*
X134172898Y-105412181D01*
X132702645Y-106882433D01*
X132700398Y-106884624D01*
X132636948Y-106944940D01*
X132603244Y-106993362D01*
X132597573Y-107000882D01*
X132560301Y-107046593D01*
X132546210Y-107073566D01*
X132538082Y-107086983D01*
X132520705Y-107111950D01*
X132497439Y-107166165D01*
X132493399Y-107174671D01*
X132466090Y-107226952D01*
X132457720Y-107256201D01*
X132452459Y-107270978D01*
X132440460Y-107298942D01*
X132428587Y-107356713D01*
X132426342Y-107365860D01*
X132410113Y-107422580D01*
X132407802Y-107452925D01*
X132405622Y-107468466D01*
X132399500Y-107498259D01*
X132399500Y-107557242D01*
X132399142Y-107566656D01*
X132394663Y-107625477D01*
X132398506Y-107655651D01*
X132399500Y-107671317D01*
X132399500Y-110334217D01*
X132390061Y-110381670D01*
X132363181Y-110421898D01*
X131821899Y-110963181D01*
X131781671Y-110990061D01*
X131734218Y-110999500D01*
X131242758Y-110999500D01*
X131233344Y-110999142D01*
X131224198Y-110998445D01*
X131174524Y-110994663D01*
X131174523Y-110994663D01*
X131144349Y-110998506D01*
X131128683Y-110999500D01*
X128701741Y-110999500D01*
X120749258Y-110999500D01*
X120637045Y-111010911D01*
X120569891Y-110998875D01*
X120519268Y-110953139D01*
X120500500Y-110887547D01*
X120500500Y-109965783D01*
X120509939Y-109918330D01*
X120536819Y-109878102D01*
X121178102Y-109236819D01*
X121218330Y-109209939D01*
X121265783Y-109200500D01*
X126141356Y-109200500D01*
X126144497Y-109200539D01*
X126231998Y-109202757D01*
X126290067Y-109192348D01*
X126299371Y-109191043D01*
X126358073Y-109185074D01*
X126387102Y-109175965D01*
X126402335Y-109172226D01*
X126432288Y-109166858D01*
X126487061Y-109144978D01*
X126495936Y-109141819D01*
X126513310Y-109136367D01*
X126552223Y-109124159D01*
X126578829Y-109109390D01*
X126592997Y-109102662D01*
X126621252Y-109091377D01*
X126670514Y-109058909D01*
X126678545Y-109054043D01*
X126730137Y-109025409D01*
X126753222Y-109005589D01*
X126765749Y-108996144D01*
X126791154Y-108979402D01*
X126832886Y-108937668D01*
X126839758Y-108931300D01*
X126884530Y-108892866D01*
X126903159Y-108868798D01*
X126913518Y-108857036D01*
X130533735Y-105236819D01*
X130573964Y-105209939D01*
X130621417Y-105200500D01*
X134085217Y-105200500D01*
X134141512Y-105214015D01*
G37*
%TD.AperFunction*%
%TA.AperFunction,Conductor*%
G36*
X157537500Y-97617113D02*
G01*
X157582887Y-97662500D01*
X157599500Y-97724500D01*
X157599500Y-107226000D01*
X157582887Y-107288000D01*
X157537500Y-107333387D01*
X157475500Y-107350000D01*
X155662500Y-107350000D01*
X155662500Y-109700000D01*
X157475500Y-109700000D01*
X157537500Y-109716613D01*
X157582887Y-109762000D01*
X157599500Y-109824000D01*
X157599500Y-112876000D01*
X157582887Y-112938000D01*
X157537500Y-112983387D01*
X157475500Y-113000000D01*
X155662500Y-113000000D01*
X155662500Y-115350000D01*
X157475500Y-115350000D01*
X157537500Y-115366613D01*
X157582887Y-115412000D01*
X157599500Y-115474000D01*
X157599500Y-117475500D01*
X157582887Y-117537500D01*
X157537500Y-117582887D01*
X157475500Y-117599500D01*
X104724500Y-117599500D01*
X104662500Y-117582887D01*
X104617113Y-117537500D01*
X104600500Y-117475500D01*
X104600500Y-115514520D01*
X104614626Y-115457041D01*
X104653787Y-115412659D01*
X104709060Y-115391485D01*
X104739306Y-115395013D01*
X104739638Y-115391933D01*
X104814676Y-115400000D01*
X106712500Y-115400000D01*
X106712500Y-114475000D01*
X107212500Y-114475000D01*
X107212500Y-115400000D01*
X109110324Y-115400000D01*
X109169875Y-115393597D01*
X109304589Y-115343352D01*
X109419688Y-115257188D01*
X109505852Y-115142089D01*
X109556097Y-115007375D01*
X109562500Y-114947824D01*
X109562500Y-114475000D01*
X107212500Y-114475000D01*
X106712500Y-114475000D01*
X106712500Y-113050000D01*
X107212500Y-113050000D01*
X107212500Y-113975000D01*
X109562500Y-113975000D01*
X109562500Y-113502176D01*
X109556097Y-113442624D01*
X109505852Y-113307910D01*
X109419688Y-113192811D01*
X109304589Y-113106647D01*
X109169875Y-113056402D01*
X109110324Y-113050000D01*
X107212500Y-113050000D01*
X106712500Y-113050000D01*
X104814676Y-113050000D01*
X104739638Y-113058067D01*
X104739306Y-113054986D01*
X104709060Y-113058515D01*
X104653787Y-113037341D01*
X104614626Y-112992959D01*
X104600500Y-112935480D01*
X104600500Y-109864520D01*
X104614626Y-109807041D01*
X104653787Y-109762659D01*
X104709060Y-109741485D01*
X104739306Y-109745013D01*
X104739638Y-109741933D01*
X104814676Y-109750000D01*
X106712500Y-109750000D01*
X106712500Y-108825000D01*
X107212500Y-108825000D01*
X107212500Y-109750000D01*
X109110324Y-109750000D01*
X109169875Y-109743597D01*
X109304589Y-109693352D01*
X109419688Y-109607188D01*
X109480857Y-109525477D01*
X118494663Y-109525477D01*
X118498506Y-109555651D01*
X118499500Y-109571317D01*
X118499500Y-114485721D01*
X118499460Y-114488863D01*
X118497242Y-114576362D01*
X118507648Y-114634420D01*
X118508957Y-114643749D01*
X118514926Y-114702438D01*
X118524033Y-114731467D01*
X118527772Y-114746702D01*
X118533141Y-114776652D01*
X118555020Y-114831425D01*
X118558180Y-114840300D01*
X118575841Y-114896588D01*
X118590607Y-114923191D01*
X118597337Y-114937364D01*
X118608622Y-114965617D01*
X118641080Y-115014867D01*
X118645961Y-115022923D01*
X118674590Y-115074501D01*
X118694404Y-115097581D01*
X118703854Y-115110114D01*
X118720597Y-115135518D01*
X118762298Y-115177218D01*
X118768704Y-115184129D01*
X118807134Y-115228895D01*
X118830269Y-115246803D01*
X118831194Y-115247519D01*
X118842972Y-115257893D01*
X119682432Y-116097352D01*
X119684625Y-116099601D01*
X119744942Y-116163054D01*
X119793362Y-116196755D01*
X119800871Y-116202416D01*
X119846593Y-116239698D01*
X119873562Y-116253785D01*
X119886982Y-116261916D01*
X119911949Y-116279294D01*
X119966163Y-116302559D01*
X119974673Y-116306601D01*
X120026951Y-116333909D01*
X120056200Y-116342277D01*
X120070970Y-116347535D01*
X120098942Y-116359540D01*
X120098945Y-116359540D01*
X120098946Y-116359541D01*
X120156726Y-116371414D01*
X120165869Y-116373657D01*
X120222582Y-116389886D01*
X120252920Y-116392196D01*
X120268448Y-116394373D01*
X120298259Y-116400500D01*
X120357244Y-116400500D01*
X120366659Y-116400858D01*
X120370806Y-116401173D01*
X120425476Y-116405337D01*
X120452278Y-116401923D01*
X120455652Y-116401494D01*
X120471317Y-116400500D01*
X121850740Y-116400500D01*
X121850742Y-116400500D01*
X122002438Y-116385074D01*
X122196588Y-116324159D01*
X122374502Y-116225409D01*
X122528895Y-116092866D01*
X122653448Y-115931958D01*
X122743060Y-115749271D01*
X122794063Y-115552285D01*
X122804369Y-115349064D01*
X122803531Y-115343597D01*
X122773556Y-115147928D01*
X122702886Y-114957113D01*
X122595254Y-114784431D01*
X122587859Y-114776652D01*
X122455059Y-114636947D01*
X122288049Y-114520705D01*
X122101058Y-114440460D01*
X121901741Y-114399500D01*
X121901739Y-114399500D01*
X120865783Y-114399500D01*
X120818330Y-114390061D01*
X120778102Y-114363181D01*
X120536819Y-114121899D01*
X120509939Y-114081671D01*
X120500500Y-114034218D01*
X120500500Y-113111934D01*
X120512489Y-113058740D01*
X120546139Y-113015832D01*
X120594941Y-112991509D01*
X120649460Y-112990472D01*
X120698259Y-113000500D01*
X128498259Y-113000500D01*
X128650742Y-113000500D01*
X130734217Y-113000500D01*
X130781670Y-113009939D01*
X130821898Y-113036819D01*
X134528415Y-116743336D01*
X134528420Y-116743340D01*
X134646593Y-116839698D01*
X134826951Y-116933909D01*
X135022582Y-116989886D01*
X135225476Y-117005337D01*
X135427328Y-116979630D01*
X135619872Y-116913816D01*
X135795227Y-116810590D01*
X135946213Y-116674179D01*
X135985870Y-116620172D01*
X136074113Y-116500003D01*
X136075611Y-116501103D01*
X136100997Y-116469145D01*
X136155024Y-116445140D01*
X136214026Y-116448878D01*
X136264590Y-116479512D01*
X136728414Y-116943336D01*
X136728419Y-116943340D01*
X136846593Y-117039698D01*
X137026951Y-117133909D01*
X137222582Y-117189886D01*
X137425476Y-117205337D01*
X137627328Y-117179630D01*
X137819872Y-117113816D01*
X137995227Y-117010590D01*
X138146213Y-116874179D01*
X138266649Y-116710167D01*
X138351605Y-116525268D01*
X138382347Y-116392793D01*
X138397602Y-116327054D01*
X138402756Y-116123637D01*
X138366858Y-115923345D01*
X138291377Y-115734380D01*
X138179403Y-115564481D01*
X137039921Y-114425000D01*
X152812500Y-114425000D01*
X152812500Y-114897824D01*
X152818902Y-114957375D01*
X152869147Y-115092089D01*
X152955311Y-115207188D01*
X153070410Y-115293352D01*
X153205124Y-115343597D01*
X153264676Y-115350000D01*
X155162500Y-115350000D01*
X155162500Y-114425000D01*
X152812500Y-114425000D01*
X137039921Y-114425000D01*
X136539921Y-113925000D01*
X152812500Y-113925000D01*
X155162500Y-113925000D01*
X155162500Y-113000000D01*
X153264676Y-113000000D01*
X153205124Y-113006402D01*
X153070410Y-113056647D01*
X152955311Y-113142811D01*
X152869147Y-113257910D01*
X152818902Y-113392624D01*
X152812500Y-113452176D01*
X152812500Y-113925000D01*
X136539921Y-113925000D01*
X135836819Y-113221899D01*
X135809939Y-113181671D01*
X135800500Y-113134218D01*
X135800500Y-108775000D01*
X152812500Y-108775000D01*
X152812500Y-109247824D01*
X152818902Y-109307375D01*
X152869147Y-109442089D01*
X152955311Y-109557188D01*
X153070410Y-109643352D01*
X153205124Y-109693597D01*
X153264676Y-109700000D01*
X155162500Y-109700000D01*
X155162500Y-108775000D01*
X152812500Y-108775000D01*
X135800500Y-108775000D01*
X135800500Y-108473028D01*
X135817113Y-108411028D01*
X135862500Y-108365641D01*
X135924500Y-108349028D01*
X136237193Y-108349028D01*
X136240334Y-108349067D01*
X136327835Y-108351285D01*
X136385904Y-108340876D01*
X136395208Y-108339571D01*
X136453910Y-108333602D01*
X136482939Y-108324493D01*
X136498172Y-108320754D01*
X136528125Y-108315386D01*
X136582898Y-108293506D01*
X136591773Y-108290347D01*
X136609147Y-108284895D01*
X136640687Y-108275000D01*
X152812500Y-108275000D01*
X155162500Y-108275000D01*
X155162500Y-107350000D01*
X153264676Y-107350000D01*
X153205124Y-107356402D01*
X153070410Y-107406647D01*
X152955311Y-107492811D01*
X152869147Y-107607910D01*
X152818902Y-107742624D01*
X152812500Y-107802176D01*
X152812500Y-108275000D01*
X136640687Y-108275000D01*
X136648060Y-108272687D01*
X136674666Y-108257918D01*
X136688834Y-108251190D01*
X136717089Y-108239905D01*
X136766351Y-108207437D01*
X136774382Y-108202571D01*
X136825974Y-108173937D01*
X136849059Y-108154117D01*
X136861586Y-108144672D01*
X136886991Y-108127930D01*
X136928723Y-108086196D01*
X136935595Y-108079828D01*
X136980367Y-108041394D01*
X136998996Y-108017326D01*
X137009355Y-108005564D01*
X139778100Y-105236819D01*
X139818329Y-105209939D01*
X139865782Y-105200500D01*
X140098259Y-105200500D01*
X140250742Y-105200500D01*
X141934217Y-105200500D01*
X141981670Y-105209939D01*
X142021898Y-105236819D01*
X142763181Y-105978102D01*
X142790061Y-106018330D01*
X142799500Y-106065783D01*
X142799500Y-106250740D01*
X142814926Y-106402440D01*
X142845868Y-106501058D01*
X142875841Y-106596588D01*
X142974591Y-106774502D01*
X143107134Y-106928895D01*
X143268042Y-107053448D01*
X143450729Y-107143060D01*
X143647715Y-107194063D01*
X143850936Y-107204369D01*
X143850936Y-107204368D01*
X143850937Y-107204369D01*
X144052071Y-107173556D01*
X144052071Y-107173555D01*
X144242887Y-107102886D01*
X144385748Y-107013840D01*
X144415568Y-106995254D01*
X144415568Y-106995253D01*
X144415571Y-106995252D01*
X144563053Y-106855059D01*
X144679295Y-106688049D01*
X144759540Y-106501058D01*
X144800500Y-106301741D01*
X144800500Y-105614238D01*
X144800540Y-105611096D01*
X144802756Y-105523639D01*
X144802755Y-105523638D01*
X144802756Y-105523636D01*
X144792345Y-105465554D01*
X144791042Y-105456263D01*
X144785074Y-105397562D01*
X144775964Y-105368528D01*
X144772223Y-105353286D01*
X144766857Y-105323343D01*
X144744976Y-105268565D01*
X144741816Y-105259689D01*
X144734640Y-105236819D01*
X144724159Y-105203412D01*
X144709395Y-105176812D01*
X144702660Y-105162631D01*
X144691377Y-105134383D01*
X144658917Y-105085131D01*
X144654036Y-105077074D01*
X144625409Y-105025498D01*
X144605582Y-105002403D01*
X144596146Y-104989888D01*
X144579402Y-104964481D01*
X144579400Y-104964479D01*
X144579399Y-104964477D01*
X144537699Y-104922778D01*
X144531294Y-104915867D01*
X144492866Y-104871105D01*
X144468807Y-104852482D01*
X144457027Y-104842107D01*
X144403823Y-104788903D01*
X150964648Y-104788903D01*
X150964649Y-104788904D01*
X151222207Y-104997469D01*
X151547456Y-105208690D01*
X151893009Y-105384757D01*
X152255068Y-105523739D01*
X152629674Y-105624114D01*
X153012711Y-105684780D01*
X153399999Y-105705077D01*
X153787288Y-105684780D01*
X154170325Y-105624114D01*
X154544931Y-105523739D01*
X154906990Y-105384757D01*
X155252543Y-105208690D01*
X155577786Y-104997473D01*
X155835349Y-104788902D01*
X153400000Y-102353553D01*
X150964648Y-104788903D01*
X144403823Y-104788903D01*
X143117567Y-103502647D01*
X143115412Y-103500438D01*
X143055059Y-103436947D01*
X143006640Y-103403246D01*
X142999118Y-103397575D01*
X142953405Y-103360300D01*
X142926440Y-103346215D01*
X142913019Y-103338084D01*
X142888049Y-103320705D01*
X142888048Y-103320704D01*
X142888046Y-103320703D01*
X142833845Y-103297443D01*
X142825336Y-103293402D01*
X142773053Y-103266092D01*
X142767126Y-103264396D01*
X142743798Y-103257721D01*
X142729020Y-103252459D01*
X142701058Y-103240460D01*
X142643272Y-103228583D01*
X142634128Y-103226338D01*
X142577421Y-103210113D01*
X142547075Y-103207802D01*
X142531534Y-103205622D01*
X142501742Y-103199500D01*
X142501741Y-103199500D01*
X142442758Y-103199500D01*
X142433344Y-103199142D01*
X142424198Y-103198445D01*
X142374524Y-103194663D01*
X142374523Y-103194663D01*
X142344349Y-103198506D01*
X142328683Y-103199500D01*
X140301741Y-103199500D01*
X139414279Y-103199500D01*
X139411137Y-103199460D01*
X139323637Y-103197242D01*
X139265580Y-103207648D01*
X139256251Y-103208957D01*
X139197562Y-103214926D01*
X139168527Y-103224035D01*
X139153290Y-103227774D01*
X139123350Y-103233141D01*
X139068567Y-103255022D01*
X139059698Y-103258179D01*
X139003410Y-103275841D01*
X138976809Y-103290605D01*
X138962639Y-103297335D01*
X138934385Y-103308622D01*
X138885121Y-103341087D01*
X138877070Y-103345964D01*
X138825498Y-103374590D01*
X138805270Y-103391956D01*
X138741723Y-103420668D01*
X138672729Y-103410545D01*
X138620107Y-103364789D01*
X138600500Y-103297870D01*
X138600500Y-103265783D01*
X138609939Y-103218330D01*
X138636819Y-103178102D01*
X139814921Y-101999999D01*
X149694922Y-101999999D01*
X149715219Y-102387288D01*
X149775885Y-102770325D01*
X149876260Y-103144931D01*
X150015242Y-103506990D01*
X150191309Y-103852543D01*
X150402530Y-104177792D01*
X150611095Y-104435350D01*
X150611096Y-104435350D01*
X153046446Y-102000001D01*
X153753553Y-102000001D01*
X156188902Y-104435349D01*
X156397473Y-104177786D01*
X156608690Y-103852543D01*
X156784757Y-103506990D01*
X156923739Y-103144931D01*
X157024114Y-102770325D01*
X157084780Y-102387288D01*
X157105077Y-101999999D01*
X157084780Y-101612711D01*
X157024114Y-101229674D01*
X156923739Y-100855068D01*
X156784757Y-100493009D01*
X156608690Y-100147456D01*
X156397469Y-99822207D01*
X156188904Y-99564649D01*
X156188903Y-99564648D01*
X153753553Y-102000000D01*
X153753553Y-102000001D01*
X153046446Y-102000001D01*
X153046447Y-102000000D01*
X150611096Y-99564648D01*
X150402526Y-99822214D01*
X150191309Y-100147456D01*
X150015242Y-100493009D01*
X149876260Y-100855068D01*
X149775885Y-101229674D01*
X149715219Y-101612711D01*
X149694922Y-101999999D01*
X139814921Y-101999999D01*
X140081045Y-101733875D01*
X140121273Y-101706995D01*
X140168726Y-101697556D01*
X140971499Y-101697556D01*
X140977778Y-101697714D01*
X141050936Y-101701425D01*
X141123339Y-101690332D01*
X141129557Y-101689540D01*
X141202438Y-101682130D01*
X141217801Y-101677309D01*
X141236150Y-101673051D01*
X141243372Y-101671944D01*
X141252071Y-101670612D01*
X141320777Y-101645165D01*
X141326672Y-101643150D01*
X141396588Y-101621215D01*
X141410674Y-101613395D01*
X141427781Y-101605535D01*
X141442887Y-101599942D01*
X141505056Y-101561190D01*
X141510450Y-101558015D01*
X141574502Y-101522465D01*
X141586720Y-101511974D01*
X141601898Y-101500829D01*
X141615571Y-101492308D01*
X141668692Y-101441811D01*
X141673328Y-101437624D01*
X141728895Y-101389922D01*
X141738752Y-101377187D01*
X141751375Y-101363215D01*
X141763053Y-101352115D01*
X141804939Y-101291933D01*
X141808577Y-101286980D01*
X141853448Y-101229014D01*
X141860546Y-101214541D01*
X141870093Y-101198324D01*
X141879295Y-101185105D01*
X141908186Y-101117778D01*
X141910791Y-101112110D01*
X141943060Y-101046327D01*
X141947096Y-101030736D01*
X141953186Y-101012917D01*
X141959540Y-100998114D01*
X141974288Y-100926343D01*
X141975694Y-100920278D01*
X141994063Y-100849341D01*
X141994879Y-100833249D01*
X141997258Y-100814572D01*
X142000500Y-100798798D01*
X142000500Y-100725557D01*
X142000659Y-100719276D01*
X142004369Y-100646120D01*
X142001930Y-100630200D01*
X142000500Y-100611421D01*
X142000500Y-99749260D01*
X141998562Y-99730198D01*
X141985074Y-99597562D01*
X141924159Y-99403412D01*
X141825409Y-99225498D01*
X141813045Y-99211096D01*
X150964648Y-99211096D01*
X153400000Y-101646447D01*
X153400001Y-101646447D01*
X155835350Y-99211096D01*
X155835350Y-99211095D01*
X155577792Y-99002530D01*
X155252543Y-98791309D01*
X154906990Y-98615242D01*
X154544931Y-98476260D01*
X154170325Y-98375885D01*
X153787288Y-98315219D01*
X153400000Y-98294922D01*
X153012711Y-98315219D01*
X152629674Y-98375885D01*
X152255068Y-98476260D01*
X151893009Y-98615242D01*
X151547456Y-98791309D01*
X151222214Y-99002526D01*
X150964648Y-99211096D01*
X141813045Y-99211096D01*
X141692866Y-99071105D01*
X141531958Y-98946552D01*
X141531957Y-98946551D01*
X141349272Y-98856940D01*
X141283608Y-98839938D01*
X141152285Y-98805937D01*
X141131670Y-98804891D01*
X140949062Y-98795630D01*
X140747928Y-98826443D01*
X140557113Y-98897113D01*
X140384431Y-99004745D01*
X140314623Y-99071104D01*
X140236947Y-99144941D01*
X140236946Y-99144943D01*
X140120705Y-99311950D01*
X140040460Y-99498941D01*
X140020203Y-99597517D01*
X139996797Y-99648457D01*
X139953350Y-99683884D01*
X139898741Y-99696556D01*
X139717223Y-99696556D01*
X139714081Y-99696516D01*
X139626581Y-99694298D01*
X139568524Y-99704704D01*
X139559195Y-99706013D01*
X139500506Y-99711982D01*
X139471471Y-99721091D01*
X139456234Y-99724830D01*
X139426294Y-99730197D01*
X139371511Y-99752078D01*
X139362642Y-99755235D01*
X139306354Y-99772897D01*
X139279753Y-99787661D01*
X139265583Y-99794391D01*
X139237329Y-99805678D01*
X139188065Y-99838143D01*
X139180014Y-99843020D01*
X139128442Y-99871646D01*
X139105358Y-99891463D01*
X139092831Y-99900909D01*
X139067425Y-99917654D01*
X139025719Y-99959359D01*
X139018812Y-99965760D01*
X138974047Y-100004191D01*
X138955424Y-100028249D01*
X138945052Y-100040025D01*
X136902645Y-102082433D01*
X136900398Y-102084624D01*
X136836948Y-102144940D01*
X136803244Y-102193362D01*
X136797573Y-102200882D01*
X136760301Y-102246593D01*
X136746210Y-102273566D01*
X136738082Y-102286983D01*
X136720705Y-102311950D01*
X136697439Y-102366165D01*
X136693399Y-102374671D01*
X136666090Y-102426952D01*
X136657720Y-102456201D01*
X136652459Y-102470978D01*
X136640460Y-102498942D01*
X136628587Y-102556713D01*
X136626342Y-102565860D01*
X136610113Y-102622580D01*
X136607802Y-102652925D01*
X136605622Y-102668466D01*
X136599500Y-102698259D01*
X136599500Y-102757242D01*
X136599142Y-102766656D01*
X136594663Y-102825477D01*
X136598506Y-102855651D01*
X136599500Y-102871317D01*
X136599500Y-103300096D01*
X136581554Y-103364349D01*
X136532912Y-103410005D01*
X136467651Y-103423847D01*
X136404664Y-103401871D01*
X136288049Y-103320705D01*
X136101058Y-103240460D01*
X135901741Y-103199500D01*
X135901739Y-103199500D01*
X130169874Y-103199500D01*
X130166732Y-103199460D01*
X130079270Y-103197243D01*
X130021224Y-103207646D01*
X130011899Y-103208954D01*
X129953197Y-103214925D01*
X129924163Y-103224034D01*
X129908923Y-103227775D01*
X129878980Y-103233142D01*
X129824203Y-103255021D01*
X129815333Y-103258179D01*
X129759045Y-103275841D01*
X129732444Y-103290605D01*
X129718274Y-103297335D01*
X129690020Y-103308622D01*
X129640756Y-103341087D01*
X129632705Y-103345964D01*
X129581133Y-103374590D01*
X129558049Y-103394407D01*
X129545522Y-103403853D01*
X129520116Y-103420598D01*
X129478410Y-103462303D01*
X129471503Y-103468704D01*
X129426738Y-103507135D01*
X129408115Y-103531193D01*
X129397743Y-103542969D01*
X125777534Y-107163181D01*
X125737306Y-107190061D01*
X125689853Y-107199500D01*
X120814279Y-107199500D01*
X120811137Y-107199460D01*
X120723637Y-107197242D01*
X120665580Y-107207648D01*
X120656251Y-107208957D01*
X120597558Y-107214926D01*
X120568528Y-107224034D01*
X120553288Y-107227775D01*
X120523346Y-107233141D01*
X120468572Y-107255020D01*
X120459702Y-107258178D01*
X120403409Y-107275841D01*
X120376818Y-107290600D01*
X120362648Y-107297330D01*
X120334383Y-107308621D01*
X120285121Y-107341087D01*
X120277066Y-107345967D01*
X120225495Y-107374591D01*
X120202406Y-107394412D01*
X120189883Y-107403855D01*
X120164484Y-107420596D01*
X120122782Y-107462297D01*
X120115875Y-107468698D01*
X120071104Y-107507134D01*
X120052480Y-107531194D01*
X120042107Y-107542971D01*
X118802646Y-108782432D01*
X118800399Y-108784623D01*
X118736948Y-108844939D01*
X118703244Y-108893362D01*
X118697573Y-108900882D01*
X118660301Y-108946593D01*
X118646210Y-108973566D01*
X118638082Y-108986983D01*
X118620705Y-109011950D01*
X118597439Y-109066165D01*
X118593399Y-109074671D01*
X118566090Y-109126952D01*
X118557720Y-109156201D01*
X118552459Y-109170978D01*
X118540460Y-109198942D01*
X118528587Y-109256713D01*
X118526342Y-109265860D01*
X118510113Y-109322580D01*
X118507802Y-109352925D01*
X118505622Y-109368466D01*
X118499500Y-109398259D01*
X118499500Y-109457242D01*
X118499142Y-109466656D01*
X118494663Y-109525477D01*
X109480857Y-109525477D01*
X109505852Y-109492089D01*
X109556097Y-109357375D01*
X109562500Y-109297824D01*
X109562500Y-108825000D01*
X107212500Y-108825000D01*
X106712500Y-108825000D01*
X106712500Y-107400000D01*
X107212500Y-107400000D01*
X107212500Y-108325000D01*
X109562500Y-108325000D01*
X109562500Y-107852176D01*
X109556097Y-107792624D01*
X109505852Y-107657910D01*
X109419688Y-107542811D01*
X109304589Y-107456647D01*
X109169875Y-107406402D01*
X109110324Y-107400000D01*
X107212500Y-107400000D01*
X106712500Y-107400000D01*
X104814676Y-107400000D01*
X104739638Y-107408067D01*
X104739306Y-107404986D01*
X104709060Y-107408515D01*
X104653787Y-107387341D01*
X104614626Y-107342959D01*
X104600500Y-107285480D01*
X104600500Y-104788903D01*
X106564648Y-104788903D01*
X106564649Y-104788904D01*
X106822207Y-104997469D01*
X107147456Y-105208690D01*
X107493009Y-105384757D01*
X107855068Y-105523739D01*
X108229674Y-105624114D01*
X108612711Y-105684780D01*
X109000000Y-105705077D01*
X109387288Y-105684780D01*
X109770325Y-105624114D01*
X110144931Y-105523739D01*
X110506990Y-105384757D01*
X110852543Y-105208690D01*
X111177786Y-104997473D01*
X111264288Y-104927425D01*
X114299500Y-104927425D01*
X114306189Y-104997473D01*
X114314472Y-105084220D01*
X114373683Y-105285873D01*
X114469990Y-105472684D01*
X114599906Y-105637884D01*
X114758745Y-105775520D01*
X114940754Y-105880603D01*
X114940756Y-105880604D01*
X115023832Y-105909357D01*
X115139366Y-105949344D01*
X115174298Y-105954366D01*
X115347398Y-105979254D01*
X115557330Y-105969254D01*
X115761576Y-105919704D01*
X115847195Y-105880603D01*
X115952752Y-105832397D01*
X116123949Y-105710488D01*
X116123948Y-105710488D01*
X116123952Y-105710486D01*
X116222109Y-105607541D01*
X116269053Y-105576732D01*
X116324777Y-105569789D01*
X116377850Y-105588138D01*
X116417387Y-105628016D01*
X116457682Y-105693344D01*
X116581654Y-105817316D01*
X116730877Y-105909357D01*
X116897303Y-105964506D01*
X117000021Y-105975000D01*
X117150000Y-105975000D01*
X117150000Y-104850000D01*
X117650000Y-104850000D01*
X117650000Y-105974999D01*
X117799979Y-105974999D01*
X117902695Y-105964506D01*
X118069122Y-105909357D01*
X118218345Y-105817316D01*
X118342316Y-105693345D01*
X118434357Y-105544122D01*
X118489506Y-105377696D01*
X118500000Y-105274979D01*
X118500000Y-104850000D01*
X117650000Y-104850000D01*
X117150000Y-104850000D01*
X117150000Y-103225001D01*
X117000021Y-103225001D01*
X116897304Y-103235493D01*
X116730877Y-103290642D01*
X116581654Y-103382683D01*
X116457683Y-103506654D01*
X116418513Y-103570159D01*
X116376460Y-103611577D01*
X116320021Y-103628861D01*
X116261986Y-103618093D01*
X116215505Y-103581713D01*
X116200093Y-103562115D01*
X116041254Y-103424479D01*
X115859245Y-103319396D01*
X115660633Y-103250655D01*
X115482191Y-103225000D01*
X117650000Y-103225000D01*
X117650000Y-104350000D01*
X118499999Y-104350000D01*
X118499999Y-103925021D01*
X118489506Y-103822304D01*
X118434357Y-103655877D01*
X118342316Y-103506654D01*
X118218345Y-103382683D01*
X118069122Y-103290642D01*
X117902696Y-103235493D01*
X117799979Y-103225000D01*
X117650000Y-103225000D01*
X115482191Y-103225000D01*
X115452603Y-103220746D01*
X115452602Y-103220746D01*
X115363297Y-103225000D01*
X115242669Y-103230746D01*
X115038419Y-103280297D01*
X114847247Y-103367602D01*
X114676050Y-103489512D01*
X114676048Y-103489513D01*
X114676048Y-103489514D01*
X114636307Y-103531193D01*
X114531013Y-103641623D01*
X114417387Y-103818425D01*
X114339274Y-104013545D01*
X114299500Y-104219914D01*
X114299500Y-104219915D01*
X114299500Y-104927425D01*
X111264288Y-104927425D01*
X111435349Y-104788902D01*
X109000000Y-102353553D01*
X106564648Y-104788903D01*
X104600500Y-104788903D01*
X104600500Y-101999999D01*
X105294922Y-101999999D01*
X105315219Y-102387288D01*
X105375885Y-102770325D01*
X105476260Y-103144931D01*
X105615242Y-103506990D01*
X105791309Y-103852543D01*
X106002530Y-104177792D01*
X106211095Y-104435350D01*
X106211096Y-104435350D01*
X108646447Y-102000001D01*
X108646447Y-102000000D01*
X109353553Y-102000000D01*
X111788902Y-104435349D01*
X111997473Y-104177786D01*
X112208690Y-103852543D01*
X112384757Y-103506990D01*
X112523739Y-103144931D01*
X112624114Y-102770325D01*
X112684780Y-102387288D01*
X112705077Y-101999999D01*
X112684780Y-101612711D01*
X112624114Y-101229674D01*
X112523739Y-100855068D01*
X112384757Y-100493009D01*
X112208690Y-100147456D01*
X111997469Y-99822207D01*
X111788904Y-99564649D01*
X111788903Y-99564648D01*
X109353553Y-102000000D01*
X108646447Y-102000000D01*
X106211096Y-99564648D01*
X106002526Y-99822214D01*
X105791309Y-100147456D01*
X105615242Y-100493009D01*
X105476260Y-100855068D01*
X105375885Y-101229674D01*
X105315219Y-101612711D01*
X105294922Y-101999999D01*
X104600500Y-101999999D01*
X104600500Y-99211096D01*
X106564648Y-99211096D01*
X109000000Y-101646447D01*
X109000001Y-101646447D01*
X111435350Y-99211096D01*
X111435350Y-99211095D01*
X111177792Y-99002530D01*
X110852543Y-98791309D01*
X110506990Y-98615242D01*
X110144931Y-98476260D01*
X109770325Y-98375885D01*
X109387288Y-98315219D01*
X109000000Y-98294922D01*
X108612711Y-98315219D01*
X108229674Y-98375885D01*
X107855068Y-98476260D01*
X107493009Y-98615242D01*
X107147456Y-98791309D01*
X106822214Y-99002526D01*
X106564648Y-99211096D01*
X104600500Y-99211096D01*
X104600500Y-97724500D01*
X104617113Y-97662500D01*
X104662500Y-97617113D01*
X104724500Y-97600500D01*
X157475500Y-97600500D01*
X157537500Y-97617113D01*
G37*
%TD.AperFunction*%
%TD*%
M02*
