%TF.GenerationSoftware,KiCad,Pcbnew,7.0.1*%
%TF.CreationDate,2023-04-02T01:44:29+02:00*%
%TF.ProjectId,OpenSPS_PCB,4f70656e-5350-4535-9f50-43422e6b6963,rev?*%
%TF.SameCoordinates,Original*%
%TF.FileFunction,Legend,Top*%
%TF.FilePolarity,Positive*%
%FSLAX46Y46*%
G04 Gerber Fmt 4.6, Leading zero omitted, Abs format (unit mm)*
G04 Created by KiCad (PCBNEW 7.0.1) date 2023-04-02 01:44:29*
%MOMM*%
%LPD*%
G01*
G04 APERTURE LIST*
G04 Aperture macros list*
%AMRoundRect*
0 Rectangle with rounded corners*
0 $1 Rounding radius*
0 $2 $3 $4 $5 $6 $7 $8 $9 X,Y pos of 4 corners*
0 Add a 4 corners polygon primitive as box body*
4,1,4,$2,$3,$4,$5,$6,$7,$8,$9,$2,$3,0*
0 Add four circle primitives for the rounded corners*
1,1,$1+$1,$2,$3*
1,1,$1+$1,$4,$5*
1,1,$1+$1,$6,$7*
1,1,$1+$1,$8,$9*
0 Add four rect primitives between the rounded corners*
20,1,$1+$1,$2,$3,$4,$5,0*
20,1,$1+$1,$4,$5,$6,$7,0*
20,1,$1+$1,$6,$7,$8,$9,0*
20,1,$1+$1,$8,$9,$2,$3,0*%
G04 Aperture macros list end*
%ADD10C,0.150000*%
%ADD11C,0.120000*%
%ADD12C,0.249999*%
%ADD13RoundRect,0.200000X0.275000X-0.200000X0.275000X0.200000X-0.275000X0.200000X-0.275000X-0.200000X0*%
%ADD14RoundRect,0.200000X-0.200000X-0.275000X0.200000X-0.275000X0.200000X0.275000X-0.200000X0.275000X0*%
%ADD15C,6.400000*%
%ADD16RoundRect,0.225000X0.250000X-0.225000X0.250000X0.225000X-0.250000X0.225000X-0.250000X-0.225000X0*%
%ADD17RoundRect,0.250000X0.350000X0.625000X-0.350000X0.625000X-0.350000X-0.625000X0.350000X-0.625000X0*%
%ADD18O,1.200000X1.750000*%
%ADD19RoundRect,0.218750X0.218750X0.256250X-0.218750X0.256250X-0.218750X-0.256250X0.218750X-0.256250X0*%
%ADD20R,1.200000X0.399999*%
%ADD21R,2.000000X1.500000*%
%ADD22R,2.000000X3.800000*%
%ADD23RoundRect,0.225000X0.225000X0.250000X-0.225000X0.250000X-0.225000X-0.250000X0.225000X-0.250000X0*%
%ADD24RoundRect,0.225000X-0.225000X-0.250000X0.225000X-0.250000X0.225000X0.250000X-0.225000X0.250000X0*%
%ADD25R,3.600000X1.270000*%
%ADD26R,4.200000X1.350000*%
%ADD27RoundRect,0.150000X-0.512500X-0.150000X0.512500X-0.150000X0.512500X0.150000X-0.512500X0.150000X0*%
%ADD28RoundRect,0.225000X-0.250000X0.225000X-0.250000X-0.225000X0.250000X-0.225000X0.250000X0.225000X0*%
%ADD29RoundRect,0.200000X0.200000X0.275000X-0.200000X0.275000X-0.200000X-0.275000X0.200000X-0.275000X0*%
G04 APERTURE END LIST*
D10*
%TO.C,R6*%
X142032619Y-99941666D02*
X141556428Y-100274999D01*
X142032619Y-100513094D02*
X141032619Y-100513094D01*
X141032619Y-100513094D02*
X141032619Y-100132142D01*
X141032619Y-100132142D02*
X141080238Y-100036904D01*
X141080238Y-100036904D02*
X141127857Y-99989285D01*
X141127857Y-99989285D02*
X141223095Y-99941666D01*
X141223095Y-99941666D02*
X141365952Y-99941666D01*
X141365952Y-99941666D02*
X141461190Y-99989285D01*
X141461190Y-99989285D02*
X141508809Y-100036904D01*
X141508809Y-100036904D02*
X141556428Y-100132142D01*
X141556428Y-100132142D02*
X141556428Y-100513094D01*
X141032619Y-99084523D02*
X141032619Y-99274999D01*
X141032619Y-99274999D02*
X141080238Y-99370237D01*
X141080238Y-99370237D02*
X141127857Y-99417856D01*
X141127857Y-99417856D02*
X141270714Y-99513094D01*
X141270714Y-99513094D02*
X141461190Y-99560713D01*
X141461190Y-99560713D02*
X141842142Y-99560713D01*
X141842142Y-99560713D02*
X141937380Y-99513094D01*
X141937380Y-99513094D02*
X141985000Y-99465475D01*
X141985000Y-99465475D02*
X142032619Y-99370237D01*
X142032619Y-99370237D02*
X142032619Y-99179761D01*
X142032619Y-99179761D02*
X141985000Y-99084523D01*
X141985000Y-99084523D02*
X141937380Y-99036904D01*
X141937380Y-99036904D02*
X141842142Y-98989285D01*
X141842142Y-98989285D02*
X141604047Y-98989285D01*
X141604047Y-98989285D02*
X141508809Y-99036904D01*
X141508809Y-99036904D02*
X141461190Y-99084523D01*
X141461190Y-99084523D02*
X141413571Y-99179761D01*
X141413571Y-99179761D02*
X141413571Y-99370237D01*
X141413571Y-99370237D02*
X141461190Y-99465475D01*
X141461190Y-99465475D02*
X141508809Y-99513094D01*
X141508809Y-99513094D02*
X141604047Y-99560713D01*
%TO.C,R2*%
X126633333Y-109662619D02*
X126300000Y-109186428D01*
X126061905Y-109662619D02*
X126061905Y-108662619D01*
X126061905Y-108662619D02*
X126442857Y-108662619D01*
X126442857Y-108662619D02*
X126538095Y-108710238D01*
X126538095Y-108710238D02*
X126585714Y-108757857D01*
X126585714Y-108757857D02*
X126633333Y-108853095D01*
X126633333Y-108853095D02*
X126633333Y-108995952D01*
X126633333Y-108995952D02*
X126585714Y-109091190D01*
X126585714Y-109091190D02*
X126538095Y-109138809D01*
X126538095Y-109138809D02*
X126442857Y-109186428D01*
X126442857Y-109186428D02*
X126061905Y-109186428D01*
X127014286Y-108757857D02*
X127061905Y-108710238D01*
X127061905Y-108710238D02*
X127157143Y-108662619D01*
X127157143Y-108662619D02*
X127395238Y-108662619D01*
X127395238Y-108662619D02*
X127490476Y-108710238D01*
X127490476Y-108710238D02*
X127538095Y-108757857D01*
X127538095Y-108757857D02*
X127585714Y-108853095D01*
X127585714Y-108853095D02*
X127585714Y-108948333D01*
X127585714Y-108948333D02*
X127538095Y-109091190D01*
X127538095Y-109091190D02*
X126966667Y-109662619D01*
X126966667Y-109662619D02*
X127585714Y-109662619D01*
%TO.C,C10*%
X137767380Y-100642857D02*
X137815000Y-100690476D01*
X137815000Y-100690476D02*
X137862619Y-100833333D01*
X137862619Y-100833333D02*
X137862619Y-100928571D01*
X137862619Y-100928571D02*
X137815000Y-101071428D01*
X137815000Y-101071428D02*
X137719761Y-101166666D01*
X137719761Y-101166666D02*
X137624523Y-101214285D01*
X137624523Y-101214285D02*
X137434047Y-101261904D01*
X137434047Y-101261904D02*
X137291190Y-101261904D01*
X137291190Y-101261904D02*
X137100714Y-101214285D01*
X137100714Y-101214285D02*
X137005476Y-101166666D01*
X137005476Y-101166666D02*
X136910238Y-101071428D01*
X136910238Y-101071428D02*
X136862619Y-100928571D01*
X136862619Y-100928571D02*
X136862619Y-100833333D01*
X136862619Y-100833333D02*
X136910238Y-100690476D01*
X136910238Y-100690476D02*
X136957857Y-100642857D01*
X137862619Y-99690476D02*
X137862619Y-100261904D01*
X137862619Y-99976190D02*
X136862619Y-99976190D01*
X136862619Y-99976190D02*
X137005476Y-100071428D01*
X137005476Y-100071428D02*
X137100714Y-100166666D01*
X137100714Y-100166666D02*
X137148333Y-100261904D01*
X136862619Y-99071428D02*
X136862619Y-98976190D01*
X136862619Y-98976190D02*
X136910238Y-98880952D01*
X136910238Y-98880952D02*
X136957857Y-98833333D01*
X136957857Y-98833333D02*
X137053095Y-98785714D01*
X137053095Y-98785714D02*
X137243571Y-98738095D01*
X137243571Y-98738095D02*
X137481666Y-98738095D01*
X137481666Y-98738095D02*
X137672142Y-98785714D01*
X137672142Y-98785714D02*
X137767380Y-98833333D01*
X137767380Y-98833333D02*
X137815000Y-98880952D01*
X137815000Y-98880952D02*
X137862619Y-98976190D01*
X137862619Y-98976190D02*
X137862619Y-99071428D01*
X137862619Y-99071428D02*
X137815000Y-99166666D01*
X137815000Y-99166666D02*
X137767380Y-99214285D01*
X137767380Y-99214285D02*
X137672142Y-99261904D01*
X137672142Y-99261904D02*
X137481666Y-99309523D01*
X137481666Y-99309523D02*
X137243571Y-99309523D01*
X137243571Y-99309523D02*
X137053095Y-99261904D01*
X137053095Y-99261904D02*
X136957857Y-99214285D01*
X136957857Y-99214285D02*
X136910238Y-99166666D01*
X136910238Y-99166666D02*
X136862619Y-99071428D01*
%TO.C,VCC/GND*%
X113019048Y-107012619D02*
X113352381Y-108012619D01*
X113352381Y-108012619D02*
X113685714Y-107012619D01*
X114590476Y-107917380D02*
X114542857Y-107965000D01*
X114542857Y-107965000D02*
X114400000Y-108012619D01*
X114400000Y-108012619D02*
X114304762Y-108012619D01*
X114304762Y-108012619D02*
X114161905Y-107965000D01*
X114161905Y-107965000D02*
X114066667Y-107869761D01*
X114066667Y-107869761D02*
X114019048Y-107774523D01*
X114019048Y-107774523D02*
X113971429Y-107584047D01*
X113971429Y-107584047D02*
X113971429Y-107441190D01*
X113971429Y-107441190D02*
X114019048Y-107250714D01*
X114019048Y-107250714D02*
X114066667Y-107155476D01*
X114066667Y-107155476D02*
X114161905Y-107060238D01*
X114161905Y-107060238D02*
X114304762Y-107012619D01*
X114304762Y-107012619D02*
X114400000Y-107012619D01*
X114400000Y-107012619D02*
X114542857Y-107060238D01*
X114542857Y-107060238D02*
X114590476Y-107107857D01*
X115590476Y-107917380D02*
X115542857Y-107965000D01*
X115542857Y-107965000D02*
X115400000Y-108012619D01*
X115400000Y-108012619D02*
X115304762Y-108012619D01*
X115304762Y-108012619D02*
X115161905Y-107965000D01*
X115161905Y-107965000D02*
X115066667Y-107869761D01*
X115066667Y-107869761D02*
X115019048Y-107774523D01*
X115019048Y-107774523D02*
X114971429Y-107584047D01*
X114971429Y-107584047D02*
X114971429Y-107441190D01*
X114971429Y-107441190D02*
X115019048Y-107250714D01*
X115019048Y-107250714D02*
X115066667Y-107155476D01*
X115066667Y-107155476D02*
X115161905Y-107060238D01*
X115161905Y-107060238D02*
X115304762Y-107012619D01*
X115304762Y-107012619D02*
X115400000Y-107012619D01*
X115400000Y-107012619D02*
X115542857Y-107060238D01*
X115542857Y-107060238D02*
X115590476Y-107107857D01*
X116733333Y-106965000D02*
X115876191Y-108250714D01*
X117590476Y-107060238D02*
X117495238Y-107012619D01*
X117495238Y-107012619D02*
X117352381Y-107012619D01*
X117352381Y-107012619D02*
X117209524Y-107060238D01*
X117209524Y-107060238D02*
X117114286Y-107155476D01*
X117114286Y-107155476D02*
X117066667Y-107250714D01*
X117066667Y-107250714D02*
X117019048Y-107441190D01*
X117019048Y-107441190D02*
X117019048Y-107584047D01*
X117019048Y-107584047D02*
X117066667Y-107774523D01*
X117066667Y-107774523D02*
X117114286Y-107869761D01*
X117114286Y-107869761D02*
X117209524Y-107965000D01*
X117209524Y-107965000D02*
X117352381Y-108012619D01*
X117352381Y-108012619D02*
X117447619Y-108012619D01*
X117447619Y-108012619D02*
X117590476Y-107965000D01*
X117590476Y-107965000D02*
X117638095Y-107917380D01*
X117638095Y-107917380D02*
X117638095Y-107584047D01*
X117638095Y-107584047D02*
X117447619Y-107584047D01*
X118066667Y-108012619D02*
X118066667Y-107012619D01*
X118066667Y-107012619D02*
X118638095Y-108012619D01*
X118638095Y-108012619D02*
X118638095Y-107012619D01*
X119114286Y-108012619D02*
X119114286Y-107012619D01*
X119114286Y-107012619D02*
X119352381Y-107012619D01*
X119352381Y-107012619D02*
X119495238Y-107060238D01*
X119495238Y-107060238D02*
X119590476Y-107155476D01*
X119590476Y-107155476D02*
X119638095Y-107250714D01*
X119638095Y-107250714D02*
X119685714Y-107441190D01*
X119685714Y-107441190D02*
X119685714Y-107584047D01*
X119685714Y-107584047D02*
X119638095Y-107774523D01*
X119638095Y-107774523D02*
X119590476Y-107869761D01*
X119590476Y-107869761D02*
X119495238Y-107965000D01*
X119495238Y-107965000D02*
X119352381Y-108012619D01*
X119352381Y-108012619D02*
X119114286Y-108012619D01*
%TO.C,D1*%
X147861905Y-103062619D02*
X147861905Y-102062619D01*
X147861905Y-102062619D02*
X148100000Y-102062619D01*
X148100000Y-102062619D02*
X148242857Y-102110238D01*
X148242857Y-102110238D02*
X148338095Y-102205476D01*
X148338095Y-102205476D02*
X148385714Y-102300714D01*
X148385714Y-102300714D02*
X148433333Y-102491190D01*
X148433333Y-102491190D02*
X148433333Y-102634047D01*
X148433333Y-102634047D02*
X148385714Y-102824523D01*
X148385714Y-102824523D02*
X148338095Y-102919761D01*
X148338095Y-102919761D02*
X148242857Y-103015000D01*
X148242857Y-103015000D02*
X148100000Y-103062619D01*
X148100000Y-103062619D02*
X147861905Y-103062619D01*
X149385714Y-103062619D02*
X148814286Y-103062619D01*
X149100000Y-103062619D02*
X149100000Y-102062619D01*
X149100000Y-102062619D02*
X149004762Y-102205476D01*
X149004762Y-102205476D02*
X148909524Y-102300714D01*
X148909524Y-102300714D02*
X148814286Y-102348333D01*
%TO.C,U4*%
X133238095Y-111262619D02*
X133238095Y-112072142D01*
X133238095Y-112072142D02*
X133285714Y-112167380D01*
X133285714Y-112167380D02*
X133333333Y-112215000D01*
X133333333Y-112215000D02*
X133428571Y-112262619D01*
X133428571Y-112262619D02*
X133619047Y-112262619D01*
X133619047Y-112262619D02*
X133714285Y-112215000D01*
X133714285Y-112215000D02*
X133761904Y-112167380D01*
X133761904Y-112167380D02*
X133809523Y-112072142D01*
X133809523Y-112072142D02*
X133809523Y-111262619D01*
X134714285Y-111595952D02*
X134714285Y-112262619D01*
X134476190Y-111215000D02*
X134238095Y-111929285D01*
X134238095Y-111929285D02*
X134857142Y-111929285D01*
%TO.C,C6*%
X122167380Y-103916666D02*
X122215000Y-103964285D01*
X122215000Y-103964285D02*
X122262619Y-104107142D01*
X122262619Y-104107142D02*
X122262619Y-104202380D01*
X122262619Y-104202380D02*
X122215000Y-104345237D01*
X122215000Y-104345237D02*
X122119761Y-104440475D01*
X122119761Y-104440475D02*
X122024523Y-104488094D01*
X122024523Y-104488094D02*
X121834047Y-104535713D01*
X121834047Y-104535713D02*
X121691190Y-104535713D01*
X121691190Y-104535713D02*
X121500714Y-104488094D01*
X121500714Y-104488094D02*
X121405476Y-104440475D01*
X121405476Y-104440475D02*
X121310238Y-104345237D01*
X121310238Y-104345237D02*
X121262619Y-104202380D01*
X121262619Y-104202380D02*
X121262619Y-104107142D01*
X121262619Y-104107142D02*
X121310238Y-103964285D01*
X121310238Y-103964285D02*
X121357857Y-103916666D01*
X121262619Y-103059523D02*
X121262619Y-103249999D01*
X121262619Y-103249999D02*
X121310238Y-103345237D01*
X121310238Y-103345237D02*
X121357857Y-103392856D01*
X121357857Y-103392856D02*
X121500714Y-103488094D01*
X121500714Y-103488094D02*
X121691190Y-103535713D01*
X121691190Y-103535713D02*
X122072142Y-103535713D01*
X122072142Y-103535713D02*
X122167380Y-103488094D01*
X122167380Y-103488094D02*
X122215000Y-103440475D01*
X122215000Y-103440475D02*
X122262619Y-103345237D01*
X122262619Y-103345237D02*
X122262619Y-103154761D01*
X122262619Y-103154761D02*
X122215000Y-103059523D01*
X122215000Y-103059523D02*
X122167380Y-103011904D01*
X122167380Y-103011904D02*
X122072142Y-102964285D01*
X122072142Y-102964285D02*
X121834047Y-102964285D01*
X121834047Y-102964285D02*
X121738809Y-103011904D01*
X121738809Y-103011904D02*
X121691190Y-103059523D01*
X121691190Y-103059523D02*
X121643571Y-103154761D01*
X121643571Y-103154761D02*
X121643571Y-103345237D01*
X121643571Y-103345237D02*
X121691190Y-103440475D01*
X121691190Y-103440475D02*
X121738809Y-103488094D01*
X121738809Y-103488094D02*
X121834047Y-103535713D01*
%TO.C,C4*%
X124367380Y-104116666D02*
X124415000Y-104164285D01*
X124415000Y-104164285D02*
X124462619Y-104307142D01*
X124462619Y-104307142D02*
X124462619Y-104402380D01*
X124462619Y-104402380D02*
X124415000Y-104545237D01*
X124415000Y-104545237D02*
X124319761Y-104640475D01*
X124319761Y-104640475D02*
X124224523Y-104688094D01*
X124224523Y-104688094D02*
X124034047Y-104735713D01*
X124034047Y-104735713D02*
X123891190Y-104735713D01*
X123891190Y-104735713D02*
X123700714Y-104688094D01*
X123700714Y-104688094D02*
X123605476Y-104640475D01*
X123605476Y-104640475D02*
X123510238Y-104545237D01*
X123510238Y-104545237D02*
X123462619Y-104402380D01*
X123462619Y-104402380D02*
X123462619Y-104307142D01*
X123462619Y-104307142D02*
X123510238Y-104164285D01*
X123510238Y-104164285D02*
X123557857Y-104116666D01*
X123795952Y-103259523D02*
X124462619Y-103259523D01*
X123415000Y-103497618D02*
X124129285Y-103735713D01*
X124129285Y-103735713D02*
X124129285Y-103116666D01*
%TO.C,U2*%
X124238095Y-105837619D02*
X124238095Y-106647142D01*
X124238095Y-106647142D02*
X124285714Y-106742380D01*
X124285714Y-106742380D02*
X124333333Y-106790000D01*
X124333333Y-106790000D02*
X124428571Y-106837619D01*
X124428571Y-106837619D02*
X124619047Y-106837619D01*
X124619047Y-106837619D02*
X124714285Y-106790000D01*
X124714285Y-106790000D02*
X124761904Y-106742380D01*
X124761904Y-106742380D02*
X124809523Y-106647142D01*
X124809523Y-106647142D02*
X124809523Y-105837619D01*
X125238095Y-105932857D02*
X125285714Y-105885238D01*
X125285714Y-105885238D02*
X125380952Y-105837619D01*
X125380952Y-105837619D02*
X125619047Y-105837619D01*
X125619047Y-105837619D02*
X125714285Y-105885238D01*
X125714285Y-105885238D02*
X125761904Y-105932857D01*
X125761904Y-105932857D02*
X125809523Y-106028095D01*
X125809523Y-106028095D02*
X125809523Y-106123333D01*
X125809523Y-106123333D02*
X125761904Y-106266190D01*
X125761904Y-106266190D02*
X125190476Y-106837619D01*
X125190476Y-106837619D02*
X125809523Y-106837619D01*
%TO.C,C11*%
X145557142Y-107567380D02*
X145509523Y-107615000D01*
X145509523Y-107615000D02*
X145366666Y-107662619D01*
X145366666Y-107662619D02*
X145271428Y-107662619D01*
X145271428Y-107662619D02*
X145128571Y-107615000D01*
X145128571Y-107615000D02*
X145033333Y-107519761D01*
X145033333Y-107519761D02*
X144985714Y-107424523D01*
X144985714Y-107424523D02*
X144938095Y-107234047D01*
X144938095Y-107234047D02*
X144938095Y-107091190D01*
X144938095Y-107091190D02*
X144985714Y-106900714D01*
X144985714Y-106900714D02*
X145033333Y-106805476D01*
X145033333Y-106805476D02*
X145128571Y-106710238D01*
X145128571Y-106710238D02*
X145271428Y-106662619D01*
X145271428Y-106662619D02*
X145366666Y-106662619D01*
X145366666Y-106662619D02*
X145509523Y-106710238D01*
X145509523Y-106710238D02*
X145557142Y-106757857D01*
X146509523Y-107662619D02*
X145938095Y-107662619D01*
X146223809Y-107662619D02*
X146223809Y-106662619D01*
X146223809Y-106662619D02*
X146128571Y-106805476D01*
X146128571Y-106805476D02*
X146033333Y-106900714D01*
X146033333Y-106900714D02*
X145938095Y-106948333D01*
X147461904Y-107662619D02*
X146890476Y-107662619D01*
X147176190Y-107662619D02*
X147176190Y-106662619D01*
X147176190Y-106662619D02*
X147080952Y-106805476D01*
X147080952Y-106805476D02*
X146985714Y-106900714D01*
X146985714Y-106900714D02*
X146890476Y-106948333D01*
%TO.C,C15*%
X147167380Y-100442857D02*
X147215000Y-100490476D01*
X147215000Y-100490476D02*
X147262619Y-100633333D01*
X147262619Y-100633333D02*
X147262619Y-100728571D01*
X147262619Y-100728571D02*
X147215000Y-100871428D01*
X147215000Y-100871428D02*
X147119761Y-100966666D01*
X147119761Y-100966666D02*
X147024523Y-101014285D01*
X147024523Y-101014285D02*
X146834047Y-101061904D01*
X146834047Y-101061904D02*
X146691190Y-101061904D01*
X146691190Y-101061904D02*
X146500714Y-101014285D01*
X146500714Y-101014285D02*
X146405476Y-100966666D01*
X146405476Y-100966666D02*
X146310238Y-100871428D01*
X146310238Y-100871428D02*
X146262619Y-100728571D01*
X146262619Y-100728571D02*
X146262619Y-100633333D01*
X146262619Y-100633333D02*
X146310238Y-100490476D01*
X146310238Y-100490476D02*
X146357857Y-100442857D01*
X147262619Y-99490476D02*
X147262619Y-100061904D01*
X147262619Y-99776190D02*
X146262619Y-99776190D01*
X146262619Y-99776190D02*
X146405476Y-99871428D01*
X146405476Y-99871428D02*
X146500714Y-99966666D01*
X146500714Y-99966666D02*
X146548333Y-100061904D01*
X146262619Y-98585714D02*
X146262619Y-99061904D01*
X146262619Y-99061904D02*
X146738809Y-99109523D01*
X146738809Y-99109523D02*
X146691190Y-99061904D01*
X146691190Y-99061904D02*
X146643571Y-98966666D01*
X146643571Y-98966666D02*
X146643571Y-98728571D01*
X146643571Y-98728571D02*
X146691190Y-98633333D01*
X146691190Y-98633333D02*
X146738809Y-98585714D01*
X146738809Y-98585714D02*
X146834047Y-98538095D01*
X146834047Y-98538095D02*
X147072142Y-98538095D01*
X147072142Y-98538095D02*
X147167380Y-98585714D01*
X147167380Y-98585714D02*
X147215000Y-98633333D01*
X147215000Y-98633333D02*
X147262619Y-98728571D01*
X147262619Y-98728571D02*
X147262619Y-98966666D01*
X147262619Y-98966666D02*
X147215000Y-99061904D01*
X147215000Y-99061904D02*
X147167380Y-99109523D01*
%TO.C,C7*%
X142167380Y-114166666D02*
X142215000Y-114214285D01*
X142215000Y-114214285D02*
X142262619Y-114357142D01*
X142262619Y-114357142D02*
X142262619Y-114452380D01*
X142262619Y-114452380D02*
X142215000Y-114595237D01*
X142215000Y-114595237D02*
X142119761Y-114690475D01*
X142119761Y-114690475D02*
X142024523Y-114738094D01*
X142024523Y-114738094D02*
X141834047Y-114785713D01*
X141834047Y-114785713D02*
X141691190Y-114785713D01*
X141691190Y-114785713D02*
X141500714Y-114738094D01*
X141500714Y-114738094D02*
X141405476Y-114690475D01*
X141405476Y-114690475D02*
X141310238Y-114595237D01*
X141310238Y-114595237D02*
X141262619Y-114452380D01*
X141262619Y-114452380D02*
X141262619Y-114357142D01*
X141262619Y-114357142D02*
X141310238Y-114214285D01*
X141310238Y-114214285D02*
X141357857Y-114166666D01*
X141262619Y-113833332D02*
X141262619Y-113166666D01*
X141262619Y-113166666D02*
X142262619Y-113595237D01*
%TO.C,C14*%
X129757142Y-116167380D02*
X129709523Y-116215000D01*
X129709523Y-116215000D02*
X129566666Y-116262619D01*
X129566666Y-116262619D02*
X129471428Y-116262619D01*
X129471428Y-116262619D02*
X129328571Y-116215000D01*
X129328571Y-116215000D02*
X129233333Y-116119761D01*
X129233333Y-116119761D02*
X129185714Y-116024523D01*
X129185714Y-116024523D02*
X129138095Y-115834047D01*
X129138095Y-115834047D02*
X129138095Y-115691190D01*
X129138095Y-115691190D02*
X129185714Y-115500714D01*
X129185714Y-115500714D02*
X129233333Y-115405476D01*
X129233333Y-115405476D02*
X129328571Y-115310238D01*
X129328571Y-115310238D02*
X129471428Y-115262619D01*
X129471428Y-115262619D02*
X129566666Y-115262619D01*
X129566666Y-115262619D02*
X129709523Y-115310238D01*
X129709523Y-115310238D02*
X129757142Y-115357857D01*
X130709523Y-116262619D02*
X130138095Y-116262619D01*
X130423809Y-116262619D02*
X130423809Y-115262619D01*
X130423809Y-115262619D02*
X130328571Y-115405476D01*
X130328571Y-115405476D02*
X130233333Y-115500714D01*
X130233333Y-115500714D02*
X130138095Y-115548333D01*
X131566666Y-115595952D02*
X131566666Y-116262619D01*
X131328571Y-115215000D02*
X131090476Y-115929285D01*
X131090476Y-115929285D02*
X131709523Y-115929285D01*
%TO.C,R3*%
X129833333Y-114262619D02*
X129500000Y-113786428D01*
X129261905Y-114262619D02*
X129261905Y-113262619D01*
X129261905Y-113262619D02*
X129642857Y-113262619D01*
X129642857Y-113262619D02*
X129738095Y-113310238D01*
X129738095Y-113310238D02*
X129785714Y-113357857D01*
X129785714Y-113357857D02*
X129833333Y-113453095D01*
X129833333Y-113453095D02*
X129833333Y-113595952D01*
X129833333Y-113595952D02*
X129785714Y-113691190D01*
X129785714Y-113691190D02*
X129738095Y-113738809D01*
X129738095Y-113738809D02*
X129642857Y-113786428D01*
X129642857Y-113786428D02*
X129261905Y-113786428D01*
X130166667Y-113262619D02*
X130785714Y-113262619D01*
X130785714Y-113262619D02*
X130452381Y-113643571D01*
X130452381Y-113643571D02*
X130595238Y-113643571D01*
X130595238Y-113643571D02*
X130690476Y-113691190D01*
X130690476Y-113691190D02*
X130738095Y-113738809D01*
X130738095Y-113738809D02*
X130785714Y-113834047D01*
X130785714Y-113834047D02*
X130785714Y-114072142D01*
X130785714Y-114072142D02*
X130738095Y-114167380D01*
X130738095Y-114167380D02*
X130690476Y-114215000D01*
X130690476Y-114215000D02*
X130595238Y-114262619D01*
X130595238Y-114262619D02*
X130309524Y-114262619D01*
X130309524Y-114262619D02*
X130214286Y-114215000D01*
X130214286Y-114215000D02*
X130166667Y-114167380D01*
%TO.C,C2*%
X123408333Y-116017380D02*
X123360714Y-116065000D01*
X123360714Y-116065000D02*
X123217857Y-116112619D01*
X123217857Y-116112619D02*
X123122619Y-116112619D01*
X123122619Y-116112619D02*
X122979762Y-116065000D01*
X122979762Y-116065000D02*
X122884524Y-115969761D01*
X122884524Y-115969761D02*
X122836905Y-115874523D01*
X122836905Y-115874523D02*
X122789286Y-115684047D01*
X122789286Y-115684047D02*
X122789286Y-115541190D01*
X122789286Y-115541190D02*
X122836905Y-115350714D01*
X122836905Y-115350714D02*
X122884524Y-115255476D01*
X122884524Y-115255476D02*
X122979762Y-115160238D01*
X122979762Y-115160238D02*
X123122619Y-115112619D01*
X123122619Y-115112619D02*
X123217857Y-115112619D01*
X123217857Y-115112619D02*
X123360714Y-115160238D01*
X123360714Y-115160238D02*
X123408333Y-115207857D01*
X123789286Y-115207857D02*
X123836905Y-115160238D01*
X123836905Y-115160238D02*
X123932143Y-115112619D01*
X123932143Y-115112619D02*
X124170238Y-115112619D01*
X124170238Y-115112619D02*
X124265476Y-115160238D01*
X124265476Y-115160238D02*
X124313095Y-115207857D01*
X124313095Y-115207857D02*
X124360714Y-115303095D01*
X124360714Y-115303095D02*
X124360714Y-115398333D01*
X124360714Y-115398333D02*
X124313095Y-115541190D01*
X124313095Y-115541190D02*
X123741667Y-116112619D01*
X123741667Y-116112619D02*
X124360714Y-116112619D01*
%TO.C,Ref in*%
X106523809Y-116662619D02*
X106190476Y-116186428D01*
X105952381Y-116662619D02*
X105952381Y-115662619D01*
X105952381Y-115662619D02*
X106333333Y-115662619D01*
X106333333Y-115662619D02*
X106428571Y-115710238D01*
X106428571Y-115710238D02*
X106476190Y-115757857D01*
X106476190Y-115757857D02*
X106523809Y-115853095D01*
X106523809Y-115853095D02*
X106523809Y-115995952D01*
X106523809Y-115995952D02*
X106476190Y-116091190D01*
X106476190Y-116091190D02*
X106428571Y-116138809D01*
X106428571Y-116138809D02*
X106333333Y-116186428D01*
X106333333Y-116186428D02*
X105952381Y-116186428D01*
X107333333Y-116615000D02*
X107238095Y-116662619D01*
X107238095Y-116662619D02*
X107047619Y-116662619D01*
X107047619Y-116662619D02*
X106952381Y-116615000D01*
X106952381Y-116615000D02*
X106904762Y-116519761D01*
X106904762Y-116519761D02*
X106904762Y-116138809D01*
X106904762Y-116138809D02*
X106952381Y-116043571D01*
X106952381Y-116043571D02*
X107047619Y-115995952D01*
X107047619Y-115995952D02*
X107238095Y-115995952D01*
X107238095Y-115995952D02*
X107333333Y-116043571D01*
X107333333Y-116043571D02*
X107380952Y-116138809D01*
X107380952Y-116138809D02*
X107380952Y-116234047D01*
X107380952Y-116234047D02*
X106904762Y-116329285D01*
X107666667Y-115995952D02*
X108047619Y-115995952D01*
X107809524Y-116662619D02*
X107809524Y-115805476D01*
X107809524Y-115805476D02*
X107857143Y-115710238D01*
X107857143Y-115710238D02*
X107952381Y-115662619D01*
X107952381Y-115662619D02*
X108047619Y-115662619D01*
X109142858Y-116662619D02*
X109142858Y-115995952D01*
X109142858Y-115662619D02*
X109095239Y-115710238D01*
X109095239Y-115710238D02*
X109142858Y-115757857D01*
X109142858Y-115757857D02*
X109190477Y-115710238D01*
X109190477Y-115710238D02*
X109142858Y-115662619D01*
X109142858Y-115662619D02*
X109142858Y-115757857D01*
X109619048Y-115995952D02*
X109619048Y-116662619D01*
X109619048Y-116091190D02*
X109666667Y-116043571D01*
X109666667Y-116043571D02*
X109761905Y-115995952D01*
X109761905Y-115995952D02*
X109904762Y-115995952D01*
X109904762Y-115995952D02*
X110000000Y-116043571D01*
X110000000Y-116043571D02*
X110047619Y-116138809D01*
X110047619Y-116138809D02*
X110047619Y-116662619D01*
%TO.C,Laser out*%
X149942856Y-116662619D02*
X149466666Y-116662619D01*
X149466666Y-116662619D02*
X149466666Y-115662619D01*
X150704761Y-116662619D02*
X150704761Y-116138809D01*
X150704761Y-116138809D02*
X150657142Y-116043571D01*
X150657142Y-116043571D02*
X150561904Y-115995952D01*
X150561904Y-115995952D02*
X150371428Y-115995952D01*
X150371428Y-115995952D02*
X150276190Y-116043571D01*
X150704761Y-116615000D02*
X150609523Y-116662619D01*
X150609523Y-116662619D02*
X150371428Y-116662619D01*
X150371428Y-116662619D02*
X150276190Y-116615000D01*
X150276190Y-116615000D02*
X150228571Y-116519761D01*
X150228571Y-116519761D02*
X150228571Y-116424523D01*
X150228571Y-116424523D02*
X150276190Y-116329285D01*
X150276190Y-116329285D02*
X150371428Y-116281666D01*
X150371428Y-116281666D02*
X150609523Y-116281666D01*
X150609523Y-116281666D02*
X150704761Y-116234047D01*
X151133333Y-116615000D02*
X151228571Y-116662619D01*
X151228571Y-116662619D02*
X151419047Y-116662619D01*
X151419047Y-116662619D02*
X151514285Y-116615000D01*
X151514285Y-116615000D02*
X151561904Y-116519761D01*
X151561904Y-116519761D02*
X151561904Y-116472142D01*
X151561904Y-116472142D02*
X151514285Y-116376904D01*
X151514285Y-116376904D02*
X151419047Y-116329285D01*
X151419047Y-116329285D02*
X151276190Y-116329285D01*
X151276190Y-116329285D02*
X151180952Y-116281666D01*
X151180952Y-116281666D02*
X151133333Y-116186428D01*
X151133333Y-116186428D02*
X151133333Y-116138809D01*
X151133333Y-116138809D02*
X151180952Y-116043571D01*
X151180952Y-116043571D02*
X151276190Y-115995952D01*
X151276190Y-115995952D02*
X151419047Y-115995952D01*
X151419047Y-115995952D02*
X151514285Y-116043571D01*
X152371428Y-116615000D02*
X152276190Y-116662619D01*
X152276190Y-116662619D02*
X152085714Y-116662619D01*
X152085714Y-116662619D02*
X151990476Y-116615000D01*
X151990476Y-116615000D02*
X151942857Y-116519761D01*
X151942857Y-116519761D02*
X151942857Y-116138809D01*
X151942857Y-116138809D02*
X151990476Y-116043571D01*
X151990476Y-116043571D02*
X152085714Y-115995952D01*
X152085714Y-115995952D02*
X152276190Y-115995952D01*
X152276190Y-115995952D02*
X152371428Y-116043571D01*
X152371428Y-116043571D02*
X152419047Y-116138809D01*
X152419047Y-116138809D02*
X152419047Y-116234047D01*
X152419047Y-116234047D02*
X151942857Y-116329285D01*
X152847619Y-116662619D02*
X152847619Y-115995952D01*
X152847619Y-116186428D02*
X152895238Y-116091190D01*
X152895238Y-116091190D02*
X152942857Y-116043571D01*
X152942857Y-116043571D02*
X153038095Y-115995952D01*
X153038095Y-115995952D02*
X153133333Y-115995952D01*
X154371429Y-116662619D02*
X154276191Y-116615000D01*
X154276191Y-116615000D02*
X154228572Y-116567380D01*
X154228572Y-116567380D02*
X154180953Y-116472142D01*
X154180953Y-116472142D02*
X154180953Y-116186428D01*
X154180953Y-116186428D02*
X154228572Y-116091190D01*
X154228572Y-116091190D02*
X154276191Y-116043571D01*
X154276191Y-116043571D02*
X154371429Y-115995952D01*
X154371429Y-115995952D02*
X154514286Y-115995952D01*
X154514286Y-115995952D02*
X154609524Y-116043571D01*
X154609524Y-116043571D02*
X154657143Y-116091190D01*
X154657143Y-116091190D02*
X154704762Y-116186428D01*
X154704762Y-116186428D02*
X154704762Y-116472142D01*
X154704762Y-116472142D02*
X154657143Y-116567380D01*
X154657143Y-116567380D02*
X154609524Y-116615000D01*
X154609524Y-116615000D02*
X154514286Y-116662619D01*
X154514286Y-116662619D02*
X154371429Y-116662619D01*
X155561905Y-115995952D02*
X155561905Y-116662619D01*
X155133334Y-115995952D02*
X155133334Y-116519761D01*
X155133334Y-116519761D02*
X155180953Y-116615000D01*
X155180953Y-116615000D02*
X155276191Y-116662619D01*
X155276191Y-116662619D02*
X155419048Y-116662619D01*
X155419048Y-116662619D02*
X155514286Y-116615000D01*
X155514286Y-116615000D02*
X155561905Y-116567380D01*
X155895239Y-115995952D02*
X156276191Y-115995952D01*
X156038096Y-115662619D02*
X156038096Y-116519761D01*
X156038096Y-116519761D02*
X156085715Y-116615000D01*
X156085715Y-116615000D02*
X156180953Y-116662619D01*
X156180953Y-116662619D02*
X156276191Y-116662619D01*
%TO.C,C12*%
X139917380Y-100842857D02*
X139965000Y-100890476D01*
X139965000Y-100890476D02*
X140012619Y-101033333D01*
X140012619Y-101033333D02*
X140012619Y-101128571D01*
X140012619Y-101128571D02*
X139965000Y-101271428D01*
X139965000Y-101271428D02*
X139869761Y-101366666D01*
X139869761Y-101366666D02*
X139774523Y-101414285D01*
X139774523Y-101414285D02*
X139584047Y-101461904D01*
X139584047Y-101461904D02*
X139441190Y-101461904D01*
X139441190Y-101461904D02*
X139250714Y-101414285D01*
X139250714Y-101414285D02*
X139155476Y-101366666D01*
X139155476Y-101366666D02*
X139060238Y-101271428D01*
X139060238Y-101271428D02*
X139012619Y-101128571D01*
X139012619Y-101128571D02*
X139012619Y-101033333D01*
X139012619Y-101033333D02*
X139060238Y-100890476D01*
X139060238Y-100890476D02*
X139107857Y-100842857D01*
X140012619Y-99890476D02*
X140012619Y-100461904D01*
X140012619Y-100176190D02*
X139012619Y-100176190D01*
X139012619Y-100176190D02*
X139155476Y-100271428D01*
X139155476Y-100271428D02*
X139250714Y-100366666D01*
X139250714Y-100366666D02*
X139298333Y-100461904D01*
X139107857Y-99509523D02*
X139060238Y-99461904D01*
X139060238Y-99461904D02*
X139012619Y-99366666D01*
X139012619Y-99366666D02*
X139012619Y-99128571D01*
X139012619Y-99128571D02*
X139060238Y-99033333D01*
X139060238Y-99033333D02*
X139107857Y-98985714D01*
X139107857Y-98985714D02*
X139203095Y-98938095D01*
X139203095Y-98938095D02*
X139298333Y-98938095D01*
X139298333Y-98938095D02*
X139441190Y-98985714D01*
X139441190Y-98985714D02*
X140012619Y-99557142D01*
X140012619Y-99557142D02*
X140012619Y-98938095D01*
%TO.C,U5*%
X143438095Y-113462619D02*
X143438095Y-114272142D01*
X143438095Y-114272142D02*
X143485714Y-114367380D01*
X143485714Y-114367380D02*
X143533333Y-114415000D01*
X143533333Y-114415000D02*
X143628571Y-114462619D01*
X143628571Y-114462619D02*
X143819047Y-114462619D01*
X143819047Y-114462619D02*
X143914285Y-114415000D01*
X143914285Y-114415000D02*
X143961904Y-114367380D01*
X143961904Y-114367380D02*
X144009523Y-114272142D01*
X144009523Y-114272142D02*
X144009523Y-113462619D01*
X144961904Y-113462619D02*
X144485714Y-113462619D01*
X144485714Y-113462619D02*
X144438095Y-113938809D01*
X144438095Y-113938809D02*
X144485714Y-113891190D01*
X144485714Y-113891190D02*
X144580952Y-113843571D01*
X144580952Y-113843571D02*
X144819047Y-113843571D01*
X144819047Y-113843571D02*
X144914285Y-113891190D01*
X144914285Y-113891190D02*
X144961904Y-113938809D01*
X144961904Y-113938809D02*
X145009523Y-114034047D01*
X145009523Y-114034047D02*
X145009523Y-114272142D01*
X145009523Y-114272142D02*
X144961904Y-114367380D01*
X144961904Y-114367380D02*
X144914285Y-114415000D01*
X144914285Y-114415000D02*
X144819047Y-114462619D01*
X144819047Y-114462619D02*
X144580952Y-114462619D01*
X144580952Y-114462619D02*
X144485714Y-114415000D01*
X144485714Y-114415000D02*
X144438095Y-114367380D01*
%TO.C,C3*%
X138967380Y-107341666D02*
X139015000Y-107389285D01*
X139015000Y-107389285D02*
X139062619Y-107532142D01*
X139062619Y-107532142D02*
X139062619Y-107627380D01*
X139062619Y-107627380D02*
X139015000Y-107770237D01*
X139015000Y-107770237D02*
X138919761Y-107865475D01*
X138919761Y-107865475D02*
X138824523Y-107913094D01*
X138824523Y-107913094D02*
X138634047Y-107960713D01*
X138634047Y-107960713D02*
X138491190Y-107960713D01*
X138491190Y-107960713D02*
X138300714Y-107913094D01*
X138300714Y-107913094D02*
X138205476Y-107865475D01*
X138205476Y-107865475D02*
X138110238Y-107770237D01*
X138110238Y-107770237D02*
X138062619Y-107627380D01*
X138062619Y-107627380D02*
X138062619Y-107532142D01*
X138062619Y-107532142D02*
X138110238Y-107389285D01*
X138110238Y-107389285D02*
X138157857Y-107341666D01*
X138062619Y-107008332D02*
X138062619Y-106389285D01*
X138062619Y-106389285D02*
X138443571Y-106722618D01*
X138443571Y-106722618D02*
X138443571Y-106579761D01*
X138443571Y-106579761D02*
X138491190Y-106484523D01*
X138491190Y-106484523D02*
X138538809Y-106436904D01*
X138538809Y-106436904D02*
X138634047Y-106389285D01*
X138634047Y-106389285D02*
X138872142Y-106389285D01*
X138872142Y-106389285D02*
X138967380Y-106436904D01*
X138967380Y-106436904D02*
X139015000Y-106484523D01*
X139015000Y-106484523D02*
X139062619Y-106579761D01*
X139062619Y-106579761D02*
X139062619Y-106865475D01*
X139062619Y-106865475D02*
X139015000Y-106960713D01*
X139015000Y-106960713D02*
X138967380Y-107008332D01*
%TO.C,U3*%
X133238095Y-106462619D02*
X133238095Y-107272142D01*
X133238095Y-107272142D02*
X133285714Y-107367380D01*
X133285714Y-107367380D02*
X133333333Y-107415000D01*
X133333333Y-107415000D02*
X133428571Y-107462619D01*
X133428571Y-107462619D02*
X133619047Y-107462619D01*
X133619047Y-107462619D02*
X133714285Y-107415000D01*
X133714285Y-107415000D02*
X133761904Y-107367380D01*
X133761904Y-107367380D02*
X133809523Y-107272142D01*
X133809523Y-107272142D02*
X133809523Y-106462619D01*
X134190476Y-106462619D02*
X134809523Y-106462619D01*
X134809523Y-106462619D02*
X134476190Y-106843571D01*
X134476190Y-106843571D02*
X134619047Y-106843571D01*
X134619047Y-106843571D02*
X134714285Y-106891190D01*
X134714285Y-106891190D02*
X134761904Y-106938809D01*
X134761904Y-106938809D02*
X134809523Y-107034047D01*
X134809523Y-107034047D02*
X134809523Y-107272142D01*
X134809523Y-107272142D02*
X134761904Y-107367380D01*
X134761904Y-107367380D02*
X134714285Y-107415000D01*
X134714285Y-107415000D02*
X134619047Y-107462619D01*
X134619047Y-107462619D02*
X134333333Y-107462619D01*
X134333333Y-107462619D02*
X134238095Y-107415000D01*
X134238095Y-107415000D02*
X134190476Y-107367380D01*
%TO.C,C13*%
X128767380Y-109042857D02*
X128815000Y-109090476D01*
X128815000Y-109090476D02*
X128862619Y-109233333D01*
X128862619Y-109233333D02*
X128862619Y-109328571D01*
X128862619Y-109328571D02*
X128815000Y-109471428D01*
X128815000Y-109471428D02*
X128719761Y-109566666D01*
X128719761Y-109566666D02*
X128624523Y-109614285D01*
X128624523Y-109614285D02*
X128434047Y-109661904D01*
X128434047Y-109661904D02*
X128291190Y-109661904D01*
X128291190Y-109661904D02*
X128100714Y-109614285D01*
X128100714Y-109614285D02*
X128005476Y-109566666D01*
X128005476Y-109566666D02*
X127910238Y-109471428D01*
X127910238Y-109471428D02*
X127862619Y-109328571D01*
X127862619Y-109328571D02*
X127862619Y-109233333D01*
X127862619Y-109233333D02*
X127910238Y-109090476D01*
X127910238Y-109090476D02*
X127957857Y-109042857D01*
X128862619Y-108090476D02*
X128862619Y-108661904D01*
X128862619Y-108376190D02*
X127862619Y-108376190D01*
X127862619Y-108376190D02*
X128005476Y-108471428D01*
X128005476Y-108471428D02*
X128100714Y-108566666D01*
X128100714Y-108566666D02*
X128148333Y-108661904D01*
X127862619Y-107757142D02*
X127862619Y-107138095D01*
X127862619Y-107138095D02*
X128243571Y-107471428D01*
X128243571Y-107471428D02*
X128243571Y-107328571D01*
X128243571Y-107328571D02*
X128291190Y-107233333D01*
X128291190Y-107233333D02*
X128338809Y-107185714D01*
X128338809Y-107185714D02*
X128434047Y-107138095D01*
X128434047Y-107138095D02*
X128672142Y-107138095D01*
X128672142Y-107138095D02*
X128767380Y-107185714D01*
X128767380Y-107185714D02*
X128815000Y-107233333D01*
X128815000Y-107233333D02*
X128862619Y-107328571D01*
X128862619Y-107328571D02*
X128862619Y-107614285D01*
X128862619Y-107614285D02*
X128815000Y-107709523D01*
X128815000Y-107709523D02*
X128767380Y-107757142D01*
%TO.C,R1*%
X118132619Y-110666666D02*
X117656428Y-110999999D01*
X118132619Y-111238094D02*
X117132619Y-111238094D01*
X117132619Y-111238094D02*
X117132619Y-110857142D01*
X117132619Y-110857142D02*
X117180238Y-110761904D01*
X117180238Y-110761904D02*
X117227857Y-110714285D01*
X117227857Y-110714285D02*
X117323095Y-110666666D01*
X117323095Y-110666666D02*
X117465952Y-110666666D01*
X117465952Y-110666666D02*
X117561190Y-110714285D01*
X117561190Y-110714285D02*
X117608809Y-110761904D01*
X117608809Y-110761904D02*
X117656428Y-110857142D01*
X117656428Y-110857142D02*
X117656428Y-111238094D01*
X118132619Y-109714285D02*
X118132619Y-110285713D01*
X118132619Y-109999999D02*
X117132619Y-109999999D01*
X117132619Y-109999999D02*
X117275476Y-110095237D01*
X117275476Y-110095237D02*
X117370714Y-110190475D01*
X117370714Y-110190475D02*
X117418333Y-110285713D01*
%TO.C,R7*%
X147233333Y-115662619D02*
X146900000Y-115186428D01*
X146661905Y-115662619D02*
X146661905Y-114662619D01*
X146661905Y-114662619D02*
X147042857Y-114662619D01*
X147042857Y-114662619D02*
X147138095Y-114710238D01*
X147138095Y-114710238D02*
X147185714Y-114757857D01*
X147185714Y-114757857D02*
X147233333Y-114853095D01*
X147233333Y-114853095D02*
X147233333Y-114995952D01*
X147233333Y-114995952D02*
X147185714Y-115091190D01*
X147185714Y-115091190D02*
X147138095Y-115138809D01*
X147138095Y-115138809D02*
X147042857Y-115186428D01*
X147042857Y-115186428D02*
X146661905Y-115186428D01*
X147566667Y-114662619D02*
X148233333Y-114662619D01*
X148233333Y-114662619D02*
X147804762Y-115662619D01*
%TO.C,C8*%
X140567380Y-114166666D02*
X140615000Y-114214285D01*
X140615000Y-114214285D02*
X140662619Y-114357142D01*
X140662619Y-114357142D02*
X140662619Y-114452380D01*
X140662619Y-114452380D02*
X140615000Y-114595237D01*
X140615000Y-114595237D02*
X140519761Y-114690475D01*
X140519761Y-114690475D02*
X140424523Y-114738094D01*
X140424523Y-114738094D02*
X140234047Y-114785713D01*
X140234047Y-114785713D02*
X140091190Y-114785713D01*
X140091190Y-114785713D02*
X139900714Y-114738094D01*
X139900714Y-114738094D02*
X139805476Y-114690475D01*
X139805476Y-114690475D02*
X139710238Y-114595237D01*
X139710238Y-114595237D02*
X139662619Y-114452380D01*
X139662619Y-114452380D02*
X139662619Y-114357142D01*
X139662619Y-114357142D02*
X139710238Y-114214285D01*
X139710238Y-114214285D02*
X139757857Y-114166666D01*
X140091190Y-113595237D02*
X140043571Y-113690475D01*
X140043571Y-113690475D02*
X139995952Y-113738094D01*
X139995952Y-113738094D02*
X139900714Y-113785713D01*
X139900714Y-113785713D02*
X139853095Y-113785713D01*
X139853095Y-113785713D02*
X139757857Y-113738094D01*
X139757857Y-113738094D02*
X139710238Y-113690475D01*
X139710238Y-113690475D02*
X139662619Y-113595237D01*
X139662619Y-113595237D02*
X139662619Y-113404761D01*
X139662619Y-113404761D02*
X139710238Y-113309523D01*
X139710238Y-113309523D02*
X139757857Y-113261904D01*
X139757857Y-113261904D02*
X139853095Y-113214285D01*
X139853095Y-113214285D02*
X139900714Y-113214285D01*
X139900714Y-113214285D02*
X139995952Y-113261904D01*
X139995952Y-113261904D02*
X140043571Y-113309523D01*
X140043571Y-113309523D02*
X140091190Y-113404761D01*
X140091190Y-113404761D02*
X140091190Y-113595237D01*
X140091190Y-113595237D02*
X140138809Y-113690475D01*
X140138809Y-113690475D02*
X140186428Y-113738094D01*
X140186428Y-113738094D02*
X140281666Y-113785713D01*
X140281666Y-113785713D02*
X140472142Y-113785713D01*
X140472142Y-113785713D02*
X140567380Y-113738094D01*
X140567380Y-113738094D02*
X140615000Y-113690475D01*
X140615000Y-113690475D02*
X140662619Y-113595237D01*
X140662619Y-113595237D02*
X140662619Y-113404761D01*
X140662619Y-113404761D02*
X140615000Y-113309523D01*
X140615000Y-113309523D02*
X140567380Y-113261904D01*
X140567380Y-113261904D02*
X140472142Y-113214285D01*
X140472142Y-113214285D02*
X140281666Y-113214285D01*
X140281666Y-113214285D02*
X140186428Y-113261904D01*
X140186428Y-113261904D02*
X140138809Y-113309523D01*
X140138809Y-113309523D02*
X140091190Y-113404761D01*
%TO.C,C5*%
X136967380Y-107141666D02*
X137015000Y-107189285D01*
X137015000Y-107189285D02*
X137062619Y-107332142D01*
X137062619Y-107332142D02*
X137062619Y-107427380D01*
X137062619Y-107427380D02*
X137015000Y-107570237D01*
X137015000Y-107570237D02*
X136919761Y-107665475D01*
X136919761Y-107665475D02*
X136824523Y-107713094D01*
X136824523Y-107713094D02*
X136634047Y-107760713D01*
X136634047Y-107760713D02*
X136491190Y-107760713D01*
X136491190Y-107760713D02*
X136300714Y-107713094D01*
X136300714Y-107713094D02*
X136205476Y-107665475D01*
X136205476Y-107665475D02*
X136110238Y-107570237D01*
X136110238Y-107570237D02*
X136062619Y-107427380D01*
X136062619Y-107427380D02*
X136062619Y-107332142D01*
X136062619Y-107332142D02*
X136110238Y-107189285D01*
X136110238Y-107189285D02*
X136157857Y-107141666D01*
X136062619Y-106236904D02*
X136062619Y-106713094D01*
X136062619Y-106713094D02*
X136538809Y-106760713D01*
X136538809Y-106760713D02*
X136491190Y-106713094D01*
X136491190Y-106713094D02*
X136443571Y-106617856D01*
X136443571Y-106617856D02*
X136443571Y-106379761D01*
X136443571Y-106379761D02*
X136491190Y-106284523D01*
X136491190Y-106284523D02*
X136538809Y-106236904D01*
X136538809Y-106236904D02*
X136634047Y-106189285D01*
X136634047Y-106189285D02*
X136872142Y-106189285D01*
X136872142Y-106189285D02*
X136967380Y-106236904D01*
X136967380Y-106236904D02*
X137015000Y-106284523D01*
X137015000Y-106284523D02*
X137062619Y-106379761D01*
X137062619Y-106379761D02*
X137062619Y-106617856D01*
X137062619Y-106617856D02*
X137015000Y-106713094D01*
X137015000Y-106713094D02*
X136967380Y-106760713D01*
%TO.C,R4*%
X148433333Y-105062619D02*
X148100000Y-104586428D01*
X147861905Y-105062619D02*
X147861905Y-104062619D01*
X147861905Y-104062619D02*
X148242857Y-104062619D01*
X148242857Y-104062619D02*
X148338095Y-104110238D01*
X148338095Y-104110238D02*
X148385714Y-104157857D01*
X148385714Y-104157857D02*
X148433333Y-104253095D01*
X148433333Y-104253095D02*
X148433333Y-104395952D01*
X148433333Y-104395952D02*
X148385714Y-104491190D01*
X148385714Y-104491190D02*
X148338095Y-104538809D01*
X148338095Y-104538809D02*
X148242857Y-104586428D01*
X148242857Y-104586428D02*
X147861905Y-104586428D01*
X149290476Y-104395952D02*
X149290476Y-105062619D01*
X149052381Y-104015000D02*
X148814286Y-104729285D01*
X148814286Y-104729285D02*
X149433333Y-104729285D01*
%TO.C,U1*%
X122238095Y-108862619D02*
X122238095Y-109672142D01*
X122238095Y-109672142D02*
X122285714Y-109767380D01*
X122285714Y-109767380D02*
X122333333Y-109815000D01*
X122333333Y-109815000D02*
X122428571Y-109862619D01*
X122428571Y-109862619D02*
X122619047Y-109862619D01*
X122619047Y-109862619D02*
X122714285Y-109815000D01*
X122714285Y-109815000D02*
X122761904Y-109767380D01*
X122761904Y-109767380D02*
X122809523Y-109672142D01*
X122809523Y-109672142D02*
X122809523Y-108862619D01*
X123809523Y-109862619D02*
X123238095Y-109862619D01*
X123523809Y-109862619D02*
X123523809Y-108862619D01*
X123523809Y-108862619D02*
X123428571Y-109005476D01*
X123428571Y-109005476D02*
X123333333Y-109100714D01*
X123333333Y-109100714D02*
X123238095Y-109148333D01*
%TO.C,C9*%
X147233333Y-113767380D02*
X147185714Y-113815000D01*
X147185714Y-113815000D02*
X147042857Y-113862619D01*
X147042857Y-113862619D02*
X146947619Y-113862619D01*
X146947619Y-113862619D02*
X146804762Y-113815000D01*
X146804762Y-113815000D02*
X146709524Y-113719761D01*
X146709524Y-113719761D02*
X146661905Y-113624523D01*
X146661905Y-113624523D02*
X146614286Y-113434047D01*
X146614286Y-113434047D02*
X146614286Y-113291190D01*
X146614286Y-113291190D02*
X146661905Y-113100714D01*
X146661905Y-113100714D02*
X146709524Y-113005476D01*
X146709524Y-113005476D02*
X146804762Y-112910238D01*
X146804762Y-112910238D02*
X146947619Y-112862619D01*
X146947619Y-112862619D02*
X147042857Y-112862619D01*
X147042857Y-112862619D02*
X147185714Y-112910238D01*
X147185714Y-112910238D02*
X147233333Y-112957857D01*
X147709524Y-113862619D02*
X147900000Y-113862619D01*
X147900000Y-113862619D02*
X147995238Y-113815000D01*
X147995238Y-113815000D02*
X148042857Y-113767380D01*
X148042857Y-113767380D02*
X148138095Y-113624523D01*
X148138095Y-113624523D02*
X148185714Y-113434047D01*
X148185714Y-113434047D02*
X148185714Y-113053095D01*
X148185714Y-113053095D02*
X148138095Y-112957857D01*
X148138095Y-112957857D02*
X148090476Y-112910238D01*
X148090476Y-112910238D02*
X147995238Y-112862619D01*
X147995238Y-112862619D02*
X147804762Y-112862619D01*
X147804762Y-112862619D02*
X147709524Y-112910238D01*
X147709524Y-112910238D02*
X147661905Y-112957857D01*
X147661905Y-112957857D02*
X147614286Y-113053095D01*
X147614286Y-113053095D02*
X147614286Y-113291190D01*
X147614286Y-113291190D02*
X147661905Y-113386428D01*
X147661905Y-113386428D02*
X147709524Y-113434047D01*
X147709524Y-113434047D02*
X147804762Y-113481666D01*
X147804762Y-113481666D02*
X147995238Y-113481666D01*
X147995238Y-113481666D02*
X148090476Y-113434047D01*
X148090476Y-113434047D02*
X148138095Y-113386428D01*
X148138095Y-113386428D02*
X148185714Y-113291190D01*
%TO.C,R5*%
X142032619Y-103566666D02*
X141556428Y-103899999D01*
X142032619Y-104138094D02*
X141032619Y-104138094D01*
X141032619Y-104138094D02*
X141032619Y-103757142D01*
X141032619Y-103757142D02*
X141080238Y-103661904D01*
X141080238Y-103661904D02*
X141127857Y-103614285D01*
X141127857Y-103614285D02*
X141223095Y-103566666D01*
X141223095Y-103566666D02*
X141365952Y-103566666D01*
X141365952Y-103566666D02*
X141461190Y-103614285D01*
X141461190Y-103614285D02*
X141508809Y-103661904D01*
X141508809Y-103661904D02*
X141556428Y-103757142D01*
X141556428Y-103757142D02*
X141556428Y-104138094D01*
X141032619Y-102661904D02*
X141032619Y-103138094D01*
X141032619Y-103138094D02*
X141508809Y-103185713D01*
X141508809Y-103185713D02*
X141461190Y-103138094D01*
X141461190Y-103138094D02*
X141413571Y-103042856D01*
X141413571Y-103042856D02*
X141413571Y-102804761D01*
X141413571Y-102804761D02*
X141461190Y-102709523D01*
X141461190Y-102709523D02*
X141508809Y-102661904D01*
X141508809Y-102661904D02*
X141604047Y-102614285D01*
X141604047Y-102614285D02*
X141842142Y-102614285D01*
X141842142Y-102614285D02*
X141937380Y-102661904D01*
X141937380Y-102661904D02*
X141985000Y-102709523D01*
X141985000Y-102709523D02*
X142032619Y-102804761D01*
X142032619Y-102804761D02*
X142032619Y-103042856D01*
X142032619Y-103042856D02*
X141985000Y-103138094D01*
X141985000Y-103138094D02*
X141937380Y-103185713D01*
%TO.C,C1*%
X119833333Y-115972380D02*
X119785714Y-116020000D01*
X119785714Y-116020000D02*
X119642857Y-116067619D01*
X119642857Y-116067619D02*
X119547619Y-116067619D01*
X119547619Y-116067619D02*
X119404762Y-116020000D01*
X119404762Y-116020000D02*
X119309524Y-115924761D01*
X119309524Y-115924761D02*
X119261905Y-115829523D01*
X119261905Y-115829523D02*
X119214286Y-115639047D01*
X119214286Y-115639047D02*
X119214286Y-115496190D01*
X119214286Y-115496190D02*
X119261905Y-115305714D01*
X119261905Y-115305714D02*
X119309524Y-115210476D01*
X119309524Y-115210476D02*
X119404762Y-115115238D01*
X119404762Y-115115238D02*
X119547619Y-115067619D01*
X119547619Y-115067619D02*
X119642857Y-115067619D01*
X119642857Y-115067619D02*
X119785714Y-115115238D01*
X119785714Y-115115238D02*
X119833333Y-115162857D01*
X120785714Y-116067619D02*
X120214286Y-116067619D01*
X120500000Y-116067619D02*
X120500000Y-115067619D01*
X120500000Y-115067619D02*
X120404762Y-115210476D01*
X120404762Y-115210476D02*
X120309524Y-115305714D01*
X120309524Y-115305714D02*
X120214286Y-115353333D01*
D11*
%TO.C,R6*%
X142477500Y-100012258D02*
X142477500Y-99537742D01*
X143522500Y-100012258D02*
X143522500Y-99537742D01*
%TO.C,R2*%
X127187742Y-110227500D02*
X127662258Y-110227500D01*
X127187742Y-111272500D02*
X127662258Y-111272500D01*
%TO.C,C10*%
X136890000Y-103515580D02*
X136890000Y-103234420D01*
X137910000Y-103515580D02*
X137910000Y-103234420D01*
%TO.C,VCC/GND*%
X119460000Y-106060000D02*
X119460000Y-98240000D01*
X119460000Y-104460000D02*
X118540000Y-104460000D01*
X119460000Y-98240000D02*
X113340000Y-98240000D01*
X118700000Y-102100000D02*
X118700000Y-100500000D01*
X118700000Y-100500000D02*
X117700000Y-100500000D01*
X118540000Y-106060000D02*
X119460000Y-106060000D01*
X118540000Y-104460000D02*
X118540000Y-106060000D01*
X118260000Y-104460000D02*
X118540000Y-104460000D01*
X118260000Y-104460000D02*
X118260000Y-105675000D01*
X118200000Y-100500000D02*
X118200000Y-98240000D01*
X117700000Y-102100000D02*
X118700000Y-102100000D01*
X117700000Y-100500000D02*
X117700000Y-102100000D01*
X117700000Y-100500000D02*
X117700000Y-98240000D01*
X116900000Y-102600000D02*
X115900000Y-102600000D01*
X116900000Y-98240000D02*
X116900000Y-102600000D01*
X115900000Y-102600000D02*
X115900000Y-98240000D01*
X115100000Y-102100000D02*
X114100000Y-102100000D01*
X115100000Y-100500000D02*
X115100000Y-102100000D01*
X114260000Y-106060000D02*
X114260000Y-104460000D01*
X114260000Y-104460000D02*
X114540000Y-104460000D01*
X114100000Y-102100000D02*
X114100000Y-100500000D01*
X114100000Y-100500000D02*
X115100000Y-100500000D01*
X113340000Y-106060000D02*
X114260000Y-106060000D01*
X113340000Y-104460000D02*
X114260000Y-104460000D01*
X113340000Y-98240000D02*
X113340000Y-106060000D01*
%TO.C,D1*%
X147472500Y-103335000D02*
X147472500Y-101865000D01*
X147472500Y-101865000D02*
X145187500Y-101865000D01*
X145187500Y-103335000D02*
X147472500Y-103335000D01*
D12*
%TO.C,U4*%
X132725001Y-112449999D02*
G75*
G03*
X132725001Y-112449999I-125001J0D01*
G01*
D11*
%TO.C,C6*%
X121290000Y-101315580D02*
X121290000Y-101034420D01*
X122310000Y-101315580D02*
X122310000Y-101034420D01*
%TO.C,C4*%
X123490000Y-101340580D02*
X123490000Y-101059420D01*
X124510000Y-101340580D02*
X124510000Y-101059420D01*
%TO.C,U2*%
X126700000Y-98965000D02*
X132710000Y-98965000D01*
X128950000Y-105785000D02*
X132710000Y-105785000D01*
X132710000Y-98965000D02*
X132710000Y-100225000D01*
X132710000Y-105785000D02*
X132710000Y-104525000D01*
%TO.C,C11*%
X143140580Y-108310000D02*
X142859420Y-108310000D01*
X143140580Y-107290000D02*
X142859420Y-107290000D01*
%TO.C,C15*%
X144690000Y-99940580D02*
X144690000Y-99659420D01*
X145710000Y-99940580D02*
X145710000Y-99659420D01*
%TO.C,C7*%
X138090000Y-114140580D02*
X138090000Y-113859420D01*
X139110000Y-114140580D02*
X139110000Y-113859420D01*
%TO.C,C14*%
X127540580Y-116110000D02*
X127259420Y-116110000D01*
X127540580Y-115090000D02*
X127259420Y-115090000D01*
%TO.C,R3*%
X127162742Y-113077500D02*
X127637258Y-113077500D01*
X127162742Y-114122500D02*
X127637258Y-114122500D01*
%TO.C,C2*%
X123434420Y-113690000D02*
X123715580Y-113690000D01*
X123434420Y-114710000D02*
X123715580Y-114710000D01*
%TO.C,Ref in*%
X108672500Y-109450000D02*
X108672500Y-110560000D01*
X104962500Y-109450000D02*
X104962500Y-110560000D01*
X109722500Y-111150000D02*
X109222500Y-111400000D01*
X109222500Y-111400000D02*
X109722500Y-111650000D01*
X109722500Y-111650000D02*
X109722500Y-111150000D01*
X108672500Y-112240000D02*
X108672500Y-113350000D01*
X104962500Y-112240000D02*
X104962500Y-113350000D01*
%TO.C,Laser out*%
X153702500Y-113300000D02*
X153702500Y-112190000D01*
X157412500Y-113300000D02*
X157412500Y-112190000D01*
X152652500Y-111600000D02*
X153152500Y-111350000D01*
X153152500Y-111350000D02*
X152652500Y-111100000D01*
X152652500Y-111100000D02*
X152652500Y-111600000D01*
X153702500Y-110510000D02*
X153702500Y-109400000D01*
X157412500Y-110510000D02*
X157412500Y-109400000D01*
%TO.C,C12*%
X139090000Y-103515580D02*
X139090000Y-103234420D01*
X140110000Y-103515580D02*
X140110000Y-103234420D01*
%TO.C,U5*%
X143000000Y-109640000D02*
X141200000Y-109640000D01*
X143000000Y-109640000D02*
X143800000Y-109640000D01*
X143000000Y-112760000D02*
X142200000Y-112760000D01*
X143000000Y-112760000D02*
X143800000Y-112760000D01*
%TO.C,C3*%
X139110000Y-109634420D02*
X139110000Y-109915580D01*
X138090000Y-109634420D02*
X138090000Y-109915580D01*
D12*
%TO.C,U3*%
X132725001Y-107549999D02*
G75*
G03*
X132725001Y-107549999I-125001J0D01*
G01*
D11*
%TO.C,C13*%
X129690000Y-110140580D02*
X129690000Y-109859420D01*
X130710000Y-110140580D02*
X130710000Y-109859420D01*
%TO.C,R1*%
X118577500Y-110737258D02*
X118577500Y-110262742D01*
X119622500Y-110737258D02*
X119622500Y-110262742D01*
%TO.C,R7*%
X147162742Y-110877500D02*
X147637258Y-110877500D01*
X147162742Y-111922500D02*
X147637258Y-111922500D01*
%TO.C,C8*%
X136090000Y-114140580D02*
X136090000Y-113859420D01*
X137110000Y-114140580D02*
X137110000Y-113859420D01*
%TO.C,C5*%
X137110000Y-109634420D02*
X137110000Y-109915580D01*
X136090000Y-109634420D02*
X136090000Y-109915580D01*
%TO.C,R4*%
X146212258Y-105122500D02*
X145737742Y-105122500D01*
X146212258Y-104077500D02*
X145737742Y-104077500D01*
D12*
%TO.C,U1*%
X124525002Y-113000002D02*
G75*
G03*
X124525002Y-113000002I-125001J0D01*
G01*
D11*
%TO.C,C9*%
X147259420Y-108590000D02*
X147540580Y-108590000D01*
X147259420Y-109610000D02*
X147540580Y-109610000D01*
%TO.C,R5*%
X142477500Y-103637258D02*
X142477500Y-103162742D01*
X143522500Y-103637258D02*
X143522500Y-103162742D01*
%TO.C,C1*%
X120140580Y-114685000D02*
X119859420Y-114685000D01*
X120140580Y-113665000D02*
X119859420Y-113665000D01*
%TD*%
%LPC*%
D13*
%TO.C,R6*%
X143000000Y-100600000D03*
X143000000Y-98950000D03*
%TD*%
D14*
%TO.C,R2*%
X126600000Y-110750000D03*
X128250000Y-110750000D03*
%TD*%
D15*
%TO.C,H2*%
X153400000Y-102000000D03*
%TD*%
D16*
%TO.C,C10*%
X137400000Y-104150000D03*
X137400000Y-102600000D03*
%TD*%
D17*
%TO.C,VCC/GND*%
X117400000Y-104600000D03*
D18*
X115400000Y-104600000D03*
%TD*%
D19*
%TO.C,D1*%
X146775000Y-102600000D03*
X145200000Y-102600000D03*
%TD*%
D20*
%TO.C,U4*%
X132600000Y-113200000D03*
X132600000Y-113850000D03*
X132600000Y-114500000D03*
X134199999Y-114500000D03*
X134199999Y-113850000D03*
X134199999Y-113200000D03*
%TD*%
D16*
%TO.C,C6*%
X121800000Y-101950000D03*
X121800000Y-100400000D03*
%TD*%
%TO.C,C4*%
X124000000Y-101975000D03*
X124000000Y-100425000D03*
%TD*%
D21*
%TO.C,U2*%
X127650000Y-100075000D03*
X127650000Y-102375000D03*
D22*
X133950000Y-102375000D03*
D21*
X127650000Y-104675000D03*
%TD*%
D23*
%TO.C,C11*%
X143775000Y-107800000D03*
X142225000Y-107800000D03*
%TD*%
D16*
%TO.C,C15*%
X145200000Y-100575000D03*
X145200000Y-99025000D03*
%TD*%
%TO.C,C7*%
X138600000Y-114775000D03*
X138600000Y-113225000D03*
%TD*%
D23*
%TO.C,C14*%
X128175000Y-115600000D03*
X126625000Y-115600000D03*
%TD*%
D14*
%TO.C,R3*%
X126575000Y-113600000D03*
X128225000Y-113600000D03*
%TD*%
D24*
%TO.C,C2*%
X122800000Y-114200000D03*
X124350000Y-114200000D03*
%TD*%
D25*
%TO.C,Ref in*%
X106762500Y-111400000D03*
D26*
X106962500Y-108575000D03*
X106962500Y-114225000D03*
%TD*%
D25*
%TO.C,Laser out*%
X155612500Y-111350000D03*
D26*
X155412500Y-114175000D03*
X155412500Y-108525000D03*
%TD*%
D16*
%TO.C,C12*%
X139600000Y-104150000D03*
X139600000Y-102600000D03*
%TD*%
D27*
%TO.C,U5*%
X141862500Y-110250000D03*
X141862500Y-111200000D03*
X141862500Y-112150000D03*
X144137500Y-112150000D03*
X144137500Y-110250000D03*
%TD*%
D28*
%TO.C,C3*%
X138600000Y-109000000D03*
X138600000Y-110550000D03*
%TD*%
D20*
%TO.C,U3*%
X132600000Y-108300000D03*
X132600000Y-108950000D03*
X132600000Y-109600000D03*
X134199999Y-109600000D03*
X134199999Y-108950000D03*
X134199999Y-108300000D03*
%TD*%
D16*
%TO.C,C13*%
X130200000Y-110775000D03*
X130200000Y-109225000D03*
%TD*%
D13*
%TO.C,R1*%
X119100000Y-111325000D03*
X119100000Y-109675000D03*
%TD*%
D14*
%TO.C,R7*%
X146575000Y-111400000D03*
X148225000Y-111400000D03*
%TD*%
D16*
%TO.C,C8*%
X136600000Y-114775000D03*
X136600000Y-113225000D03*
%TD*%
D28*
%TO.C,C5*%
X136600000Y-109000000D03*
X136600000Y-110550000D03*
%TD*%
D29*
%TO.C,R4*%
X146800000Y-104600000D03*
X145150000Y-104600000D03*
%TD*%
D20*
%TO.C,U1*%
X124400001Y-112250001D03*
X124400001Y-111600001D03*
X124400001Y-110950001D03*
X122800002Y-110950001D03*
X122800002Y-111600001D03*
X122800002Y-112250001D03*
%TD*%
D24*
%TO.C,C9*%
X146625000Y-109100000D03*
X148175000Y-109100000D03*
%TD*%
D13*
%TO.C,R5*%
X143000000Y-104225000D03*
X143000000Y-102575000D03*
%TD*%
D23*
%TO.C,C1*%
X120775000Y-114175000D03*
X119225000Y-114175000D03*
%TD*%
D15*
%TO.C,H1*%
X109000000Y-102000000D03*
%TD*%
G36*
X118988000Y-110916613D02*
G01*
X119033387Y-110962000D01*
X119050000Y-111024000D01*
X119050000Y-111776000D01*
X119033387Y-111838000D01*
X118988000Y-111883387D01*
X118926000Y-111900000D01*
X108574000Y-111900000D01*
X108512000Y-111883387D01*
X108466613Y-111838000D01*
X108450000Y-111776000D01*
X108450000Y-111024000D01*
X108466613Y-110962000D01*
X108512000Y-110916613D01*
X108574000Y-110900000D01*
X118926000Y-110900000D01*
X118988000Y-110916613D01*
G37*
G36*
X153938000Y-110916613D02*
G01*
X153983387Y-110962000D01*
X154000000Y-111024000D01*
X154000000Y-111776000D01*
X153983387Y-111838000D01*
X153938000Y-111883387D01*
X153876000Y-111900000D01*
X148524000Y-111900000D01*
X148462000Y-111883387D01*
X148416613Y-111838000D01*
X148400000Y-111776000D01*
X148400000Y-111024000D01*
X148416613Y-110962000D01*
X148462000Y-110916613D01*
X148524000Y-110900000D01*
X153876000Y-110900000D01*
X153938000Y-110916613D01*
G37*
M02*
