%TF.GenerationSoftware,KiCad,Pcbnew,7.0.1*%
%TF.CreationDate,2023-04-02T01:44:29+02:00*%
%TF.ProjectId,OpenSPS_PCB,4f70656e-5350-4535-9f50-43422e6b6963,rev?*%
%TF.SameCoordinates,Original*%
%TF.FileFunction,Legend,Bot*%
%TF.FilePolarity,Positive*%
%FSLAX46Y46*%
G04 Gerber Fmt 4.6, Leading zero omitted, Abs format (unit mm)*
G04 Created by KiCad (PCBNEW 7.0.1) date 2023-04-02 01:44:29*
%MOMM*%
%LPD*%
G01*
G04 APERTURE LIST*
G04 Aperture macros list*
%AMRoundRect*
0 Rectangle with rounded corners*
0 $1 Rounding radius*
0 $2 $3 $4 $5 $6 $7 $8 $9 X,Y pos of 4 corners*
0 Add a 4 corners polygon primitive as box body*
4,1,4,$2,$3,$4,$5,$6,$7,$8,$9,$2,$3,0*
0 Add four circle primitives for the rounded corners*
1,1,$1+$1,$2,$3*
1,1,$1+$1,$4,$5*
1,1,$1+$1,$6,$7*
1,1,$1+$1,$8,$9*
0 Add four rect primitives between the rounded corners*
20,1,$1+$1,$2,$3,$4,$5,0*
20,1,$1+$1,$4,$5,$6,$7,0*
20,1,$1+$1,$6,$7,$8,$9,0*
20,1,$1+$1,$8,$9,$2,$3,0*%
G04 Aperture macros list end*
%ADD10C,0.250000*%
%ADD11C,0.200000*%
%ADD12C,0.400000*%
%ADD13C,0.300000*%
%ADD14C,6.400000*%
%ADD15RoundRect,0.250000X0.350000X0.625000X-0.350000X0.625000X-0.350000X-0.625000X0.350000X-0.625000X0*%
%ADD16O,1.200000X1.750000*%
%ADD17R,4.200000X1.350000*%
G04 APERTURE END LIST*
D10*
G36*
X132266671Y-107633733D02*
G01*
X132301402Y-107635876D01*
X132335217Y-107639416D01*
X132368100Y-107644326D01*
X132400037Y-107650579D01*
X132431012Y-107658150D01*
X132461011Y-107667011D01*
X132490017Y-107677137D01*
X132518018Y-107688500D01*
X132544996Y-107701075D01*
X132570937Y-107714834D01*
X132595826Y-107729752D01*
X132619648Y-107745802D01*
X132642388Y-107762957D01*
X132664031Y-107781191D01*
X132684561Y-107800478D01*
X132703964Y-107820791D01*
X132722225Y-107842103D01*
X132739328Y-107864389D01*
X132755258Y-107887622D01*
X132770000Y-107911774D01*
X132783540Y-107936821D01*
X132795861Y-107962735D01*
X132806950Y-107989490D01*
X132816791Y-108017059D01*
X132825368Y-108045416D01*
X132832667Y-108074535D01*
X132838673Y-108104389D01*
X132843371Y-108134952D01*
X132846745Y-108166196D01*
X132848780Y-108198097D01*
X132849462Y-108230626D01*
X132848794Y-108262240D01*
X132846799Y-108293262D01*
X132843490Y-108323666D01*
X132838878Y-108353423D01*
X132832975Y-108382507D01*
X132825795Y-108410891D01*
X132817349Y-108438549D01*
X132807651Y-108465452D01*
X132796711Y-108491574D01*
X132784543Y-108516889D01*
X132771159Y-108541368D01*
X132756572Y-108564986D01*
X132740792Y-108587714D01*
X132723834Y-108609527D01*
X132705709Y-108630397D01*
X132686430Y-108650296D01*
X132666009Y-108669199D01*
X132644458Y-108687078D01*
X132621789Y-108703906D01*
X132598016Y-108719657D01*
X132573150Y-108734302D01*
X132547204Y-108747815D01*
X132520189Y-108760170D01*
X132492119Y-108771339D01*
X132463006Y-108781294D01*
X132432862Y-108790010D01*
X132401700Y-108797459D01*
X132369531Y-108803615D01*
X132336368Y-108808449D01*
X132302223Y-108811936D01*
X132267110Y-108814047D01*
X132231039Y-108814757D01*
X132216338Y-108814668D01*
X132204224Y-108814437D01*
X132191214Y-108814006D01*
X132177341Y-108813324D01*
X132162639Y-108812339D01*
X132147141Y-108810999D01*
X132130880Y-108809251D01*
X132113890Y-108807043D01*
X132102175Y-108805290D01*
X132090160Y-108803293D01*
X132077855Y-108801039D01*
X132071597Y-108799810D01*
X132067209Y-108817978D01*
X132062875Y-108835764D01*
X132058569Y-108853155D01*
X132054268Y-108870139D01*
X132049947Y-108886703D01*
X132045580Y-108902833D01*
X132041142Y-108918517D01*
X132036610Y-108933743D01*
X132031957Y-108948498D01*
X132027159Y-108962768D01*
X132022190Y-108976541D01*
X132017027Y-108989805D01*
X132011645Y-109002546D01*
X132006017Y-109014752D01*
X132000120Y-109026410D01*
X131993928Y-109037507D01*
X131987417Y-109048030D01*
X131980562Y-109057967D01*
X131973337Y-109067305D01*
X131957680Y-109084132D01*
X131940248Y-109098410D01*
X131920841Y-109110036D01*
X131899259Y-109118907D01*
X131887591Y-109122278D01*
X131875304Y-109124922D01*
X131862375Y-109126826D01*
X131848777Y-109127978D01*
X131834486Y-109128365D01*
X131818767Y-109127527D01*
X131803695Y-109125596D01*
X131789262Y-109122624D01*
X131775457Y-109118661D01*
X131762271Y-109113759D01*
X131749694Y-109107968D01*
X131737715Y-109101341D01*
X131726327Y-109093927D01*
X131715517Y-109085778D01*
X131705278Y-109076945D01*
X131695599Y-109067480D01*
X131686470Y-109057432D01*
X131677881Y-109046854D01*
X131669823Y-109035797D01*
X131662287Y-109024311D01*
X131655261Y-109012448D01*
X131648737Y-109000258D01*
X131642705Y-108987793D01*
X131637154Y-108975104D01*
X131632076Y-108962242D01*
X131627460Y-108949258D01*
X131623297Y-108936203D01*
X131619576Y-108923129D01*
X131616289Y-108910085D01*
X131613425Y-108897125D01*
X131610975Y-108884297D01*
X131608928Y-108871655D01*
X131607275Y-108859248D01*
X131606007Y-108847128D01*
X131605113Y-108835345D01*
X131604455Y-108814436D01*
X131604881Y-108803125D01*
X131607519Y-108790495D01*
X131614219Y-108779379D01*
X131624634Y-108773289D01*
X131634598Y-108771966D01*
X131646618Y-108774072D01*
X131656871Y-108781889D01*
X131662212Y-108792659D01*
X131664643Y-108804543D01*
X131664787Y-108805672D01*
X131670005Y-108822046D01*
X131679334Y-108835429D01*
X131691936Y-108846124D01*
X131706976Y-108854430D01*
X131717944Y-108858790D01*
X131729377Y-108862311D01*
X131741025Y-108865084D01*
X131752642Y-108867198D01*
X131769468Y-108869327D01*
X131784829Y-108870474D01*
X131797890Y-108870942D01*
X131807815Y-108871031D01*
X131822783Y-108870837D01*
X131834771Y-108869994D01*
X131847429Y-108868008D01*
X131860775Y-108864389D01*
X131874823Y-108858648D01*
X131889590Y-108850295D01*
X131899842Y-108843033D01*
X131910425Y-108834247D01*
X131921344Y-108823793D01*
X131932604Y-108811525D01*
X131944209Y-108797298D01*
X131956164Y-108780966D01*
X131962274Y-108771966D01*
X131937037Y-108761027D01*
X131912965Y-108749336D01*
X131890036Y-108736930D01*
X131868315Y-108723899D01*
X132093286Y-108723899D01*
X132105287Y-108728831D01*
X132117669Y-108733244D01*
X132130367Y-108737146D01*
X132143312Y-108740545D01*
X132156439Y-108743447D01*
X132169681Y-108745860D01*
X132182972Y-108747791D01*
X132196244Y-108749247D01*
X132209431Y-108750235D01*
X132222466Y-108750763D01*
X132231039Y-108750863D01*
X132247425Y-108750253D01*
X132262030Y-108748506D01*
X132274952Y-108745751D01*
X132286291Y-108742116D01*
X132300554Y-108735294D01*
X132311819Y-108727210D01*
X132320425Y-108718298D01*
X132328346Y-108705872D01*
X132332940Y-108693764D01*
X132335222Y-108680635D01*
X132335380Y-108676418D01*
X132334124Y-108663212D01*
X132330498Y-108650860D01*
X132324710Y-108639459D01*
X132316972Y-108629107D01*
X132307492Y-108619901D01*
X132296483Y-108611938D01*
X132284152Y-108605314D01*
X132270712Y-108600127D01*
X132256371Y-108596475D01*
X132241340Y-108594453D01*
X132231039Y-108594060D01*
X132217607Y-108594636D01*
X132203801Y-108596598D01*
X132189787Y-108600297D01*
X132175732Y-108606084D01*
X132161803Y-108614309D01*
X132148166Y-108625323D01*
X132139319Y-108634388D01*
X132130726Y-108644953D01*
X132122435Y-108657120D01*
X132114496Y-108670994D01*
X132106959Y-108686680D01*
X132099873Y-108704280D01*
X132093286Y-108723899D01*
X131868315Y-108723899D01*
X131868225Y-108723845D01*
X131847509Y-108710119D01*
X131827863Y-108695787D01*
X131809263Y-108680887D01*
X131791686Y-108665455D01*
X131775108Y-108649527D01*
X131759504Y-108633140D01*
X131744851Y-108616332D01*
X131731125Y-108599137D01*
X131718302Y-108581594D01*
X131706357Y-108563738D01*
X131695268Y-108545606D01*
X131685010Y-108527235D01*
X131675559Y-108508661D01*
X131666891Y-108489921D01*
X131658982Y-108471052D01*
X131651809Y-108452090D01*
X131645347Y-108433072D01*
X131639573Y-108414034D01*
X131634462Y-108395013D01*
X131629991Y-108376045D01*
X131626136Y-108357168D01*
X131622872Y-108338418D01*
X131620176Y-108319830D01*
X131618024Y-108301443D01*
X131616391Y-108283293D01*
X131615255Y-108265415D01*
X131614591Y-108247847D01*
X131614375Y-108230626D01*
X131614462Y-108226523D01*
X131861451Y-108226523D01*
X131861490Y-108245687D01*
X131861766Y-108268059D01*
X131862066Y-108280318D01*
X131862513Y-108293221D01*
X131863138Y-108306716D01*
X131863970Y-108320752D01*
X131865037Y-108335275D01*
X131866370Y-108350234D01*
X131867999Y-108365575D01*
X131869952Y-108381248D01*
X131872259Y-108397198D01*
X131874950Y-108413374D01*
X131878054Y-108429724D01*
X131881601Y-108446195D01*
X131885620Y-108462734D01*
X131890141Y-108479290D01*
X131895193Y-108495810D01*
X131900806Y-108512241D01*
X131907010Y-108528532D01*
X131913833Y-108544629D01*
X131921306Y-108560481D01*
X131929457Y-108576034D01*
X131938317Y-108591238D01*
X131947915Y-108606038D01*
X131958280Y-108620384D01*
X131969442Y-108634222D01*
X131981431Y-108647500D01*
X131994276Y-108660167D01*
X132008006Y-108672168D01*
X132022651Y-108683452D01*
X132029861Y-108672059D01*
X132037668Y-108660090D01*
X132046113Y-108647728D01*
X132055239Y-108635152D01*
X132065086Y-108622543D01*
X132075696Y-108610083D01*
X132087110Y-108597951D01*
X132099368Y-108586329D01*
X132112512Y-108575398D01*
X132126584Y-108565337D01*
X132141625Y-108556329D01*
X132157675Y-108548552D01*
X132174776Y-108542190D01*
X132192969Y-108537421D01*
X132212296Y-108534428D01*
X132232798Y-108533390D01*
X132248731Y-108534052D01*
X132264371Y-108536013D01*
X132279616Y-108539230D01*
X132294365Y-108543662D01*
X132308516Y-108549266D01*
X132321968Y-108556002D01*
X132334620Y-108563827D01*
X132346371Y-108572700D01*
X132357118Y-108582580D01*
X132366761Y-108593425D01*
X132375199Y-108605192D01*
X132382329Y-108617841D01*
X132388052Y-108631330D01*
X132392265Y-108645617D01*
X132394867Y-108660660D01*
X132395757Y-108676418D01*
X132395145Y-108689378D01*
X132393767Y-108701111D01*
X132391072Y-108713108D01*
X132390774Y-108713934D01*
X132409561Y-108703775D01*
X132427202Y-108692785D01*
X132443734Y-108681015D01*
X132459192Y-108668515D01*
X132473613Y-108655335D01*
X132487032Y-108641526D01*
X132499486Y-108627139D01*
X132511010Y-108612222D01*
X132521641Y-108596827D01*
X132531415Y-108581004D01*
X132540367Y-108564804D01*
X132548533Y-108548277D01*
X132555951Y-108531472D01*
X132562654Y-108514441D01*
X132568681Y-108497234D01*
X132574066Y-108479900D01*
X132578846Y-108462492D01*
X132583056Y-108445058D01*
X132586733Y-108427649D01*
X132589913Y-108410315D01*
X132592631Y-108393108D01*
X132594925Y-108376076D01*
X132596828Y-108359271D01*
X132598379Y-108342743D01*
X132599612Y-108326542D01*
X132600564Y-108310718D01*
X132601271Y-108295322D01*
X132601768Y-108280405D01*
X132602093Y-108266016D01*
X132602280Y-108252205D01*
X132602365Y-108239024D01*
X132602386Y-108226523D01*
X132602371Y-108213012D01*
X132602265Y-108197557D01*
X132601976Y-108180349D01*
X132601415Y-108161580D01*
X132600490Y-108141443D01*
X132599109Y-108120129D01*
X132597183Y-108097830D01*
X132594619Y-108074738D01*
X132593070Y-108062955D01*
X132591327Y-108051045D01*
X132589380Y-108039033D01*
X132587216Y-108026943D01*
X132584825Y-108014799D01*
X132582195Y-108002624D01*
X132579315Y-107990443D01*
X132576173Y-107978279D01*
X132572758Y-107966157D01*
X132569058Y-107954101D01*
X132565063Y-107942134D01*
X132560760Y-107930281D01*
X132556139Y-107918566D01*
X132551188Y-107907012D01*
X132545896Y-107895644D01*
X132540251Y-107884485D01*
X132531899Y-107869955D01*
X132523235Y-107856191D01*
X132514283Y-107843174D01*
X132505065Y-107830883D01*
X132495604Y-107819299D01*
X132485924Y-107808401D01*
X132476048Y-107798170D01*
X132465998Y-107788585D01*
X132455798Y-107779626D01*
X132445470Y-107771274D01*
X132435039Y-107763508D01*
X132424526Y-107756309D01*
X132413956Y-107749655D01*
X132403351Y-107743529D01*
X132392734Y-107737908D01*
X132382128Y-107732774D01*
X132361042Y-107723884D01*
X132340279Y-107716699D01*
X132320022Y-107711059D01*
X132300456Y-107706803D01*
X132281766Y-107703772D01*
X132264137Y-107701805D01*
X132247752Y-107700742D01*
X132232798Y-107700424D01*
X132215313Y-107700830D01*
X132197021Y-107702122D01*
X132178052Y-107704409D01*
X132158540Y-107707801D01*
X132138618Y-107712408D01*
X132118418Y-107718337D01*
X132098073Y-107725700D01*
X132077716Y-107734606D01*
X132057478Y-107745163D01*
X132037494Y-107757482D01*
X132027638Y-107764336D01*
X132017895Y-107771672D01*
X132008282Y-107779503D01*
X131998815Y-107787843D01*
X131989510Y-107796705D01*
X131980385Y-107806103D01*
X131971455Y-107816052D01*
X131962739Y-107826564D01*
X131954251Y-107837653D01*
X131946009Y-107849333D01*
X131938029Y-107861617D01*
X131930327Y-107874520D01*
X131919024Y-107894585D01*
X131909023Y-107915460D01*
X131900245Y-107937018D01*
X131892610Y-107959136D01*
X131889197Y-107970366D01*
X131886040Y-107981689D01*
X131883130Y-107993089D01*
X131880456Y-108004551D01*
X131878009Y-108016059D01*
X131875779Y-108027598D01*
X131873755Y-108039152D01*
X131870290Y-108062241D01*
X131867534Y-108085203D01*
X131865408Y-108107912D01*
X131863833Y-108130244D01*
X131862731Y-108152073D01*
X131862022Y-108173274D01*
X131861627Y-108193723D01*
X131861467Y-108213295D01*
X131861451Y-108222713D01*
X131861451Y-108226523D01*
X131614462Y-108226523D01*
X131615085Y-108197220D01*
X131617201Y-108164554D01*
X131620703Y-108132650D01*
X131625569Y-108101528D01*
X131631779Y-108071210D01*
X131639311Y-108041716D01*
X131648145Y-108013068D01*
X131658261Y-107985286D01*
X131669636Y-107958391D01*
X131682251Y-107932405D01*
X131696083Y-107907349D01*
X131711114Y-107883242D01*
X131727321Y-107860108D01*
X131744683Y-107837965D01*
X131763181Y-107816836D01*
X131782792Y-107796741D01*
X131803497Y-107777701D01*
X131825274Y-107759738D01*
X131848102Y-107742872D01*
X131871960Y-107727124D01*
X131896828Y-107712516D01*
X131922685Y-107699067D01*
X131949510Y-107686800D01*
X131977282Y-107675735D01*
X132005979Y-107665894D01*
X132035582Y-107657296D01*
X132066069Y-107649964D01*
X132097420Y-107643917D01*
X132129613Y-107639178D01*
X132162628Y-107635767D01*
X132196444Y-107633705D01*
X132231039Y-107633013D01*
X132266671Y-107633733D01*
G37*
G36*
X131604455Y-108814436D02*
G01*
X131604410Y-108815637D01*
X131604410Y-108812999D01*
X131604455Y-108814436D01*
G37*
G36*
X130472198Y-108804792D02*
G01*
X130472198Y-108725951D01*
X130490648Y-108725935D01*
X130507058Y-108725822D01*
X130521545Y-108725516D01*
X130534228Y-108724920D01*
X130550122Y-108723272D01*
X130562614Y-108720428D01*
X130574661Y-108714214D01*
X130582299Y-108704522D01*
X130586467Y-108690579D01*
X130587879Y-108676868D01*
X130588262Y-108660005D01*
X130588262Y-108045685D01*
X130895715Y-108059168D01*
X130895715Y-108138302D01*
X130877216Y-108138318D01*
X130860770Y-108138431D01*
X130846258Y-108138737D01*
X130833561Y-108139333D01*
X130817660Y-108140981D01*
X130805176Y-108143825D01*
X130793156Y-108150039D01*
X130785554Y-108159731D01*
X130781420Y-108173674D01*
X130780026Y-108187385D01*
X130779650Y-108204248D01*
X130779650Y-108526648D01*
X130779900Y-108539473D01*
X130780642Y-108552004D01*
X130781867Y-108564232D01*
X130783568Y-108576152D01*
X130785734Y-108587756D01*
X130791430Y-108609984D01*
X130798884Y-108630857D01*
X130808025Y-108650317D01*
X130818782Y-108668303D01*
X130831084Y-108684758D01*
X130844861Y-108699620D01*
X130860041Y-108712832D01*
X130876555Y-108724334D01*
X130894330Y-108734067D01*
X130913297Y-108741971D01*
X130933384Y-108747987D01*
X130954521Y-108752057D01*
X130976636Y-108754120D01*
X130988038Y-108754381D01*
X130999796Y-108754258D01*
X131021220Y-108753269D01*
X131039998Y-108751283D01*
X131056306Y-108748287D01*
X131070316Y-108744272D01*
X131082203Y-108739225D01*
X131096433Y-108729700D01*
X131106864Y-108717796D01*
X131114082Y-108703476D01*
X131118675Y-108686704D01*
X131120568Y-108674143D01*
X131121728Y-108660466D01*
X131122331Y-108645661D01*
X131122548Y-108629718D01*
X131122567Y-108621317D01*
X131122567Y-108045685D01*
X131430020Y-108059168D01*
X131430020Y-108138302D01*
X131411522Y-108138318D01*
X131395076Y-108138431D01*
X131380564Y-108138737D01*
X131367867Y-108139333D01*
X131351965Y-108140981D01*
X131339482Y-108143825D01*
X131327462Y-108150039D01*
X131319859Y-108159731D01*
X131315726Y-108173674D01*
X131314332Y-108187385D01*
X131313956Y-108204248D01*
X131313956Y-108597577D01*
X131313561Y-108614059D01*
X131312388Y-108629720D01*
X131310457Y-108644581D01*
X131307787Y-108658660D01*
X131304398Y-108671978D01*
X131300308Y-108684553D01*
X131295538Y-108696406D01*
X131290106Y-108707555D01*
X131284031Y-108718020D01*
X131277334Y-108727820D01*
X131262148Y-108745506D01*
X131244701Y-108760768D01*
X131225149Y-108773761D01*
X131214632Y-108779456D01*
X131203647Y-108784642D01*
X131192212Y-108789340D01*
X131180348Y-108793567D01*
X131168073Y-108797345D01*
X131155407Y-108800691D01*
X131142369Y-108803627D01*
X131128979Y-108806171D01*
X131115255Y-108808342D01*
X131101218Y-108810161D01*
X131086886Y-108811647D01*
X131072279Y-108812818D01*
X131057416Y-108813696D01*
X131042317Y-108814299D01*
X131027000Y-108814646D01*
X131011486Y-108814757D01*
X130997263Y-108814649D01*
X130979560Y-108813894D01*
X130966121Y-108812710D01*
X130951579Y-108810759D01*
X130936112Y-108807849D01*
X130919898Y-108803786D01*
X130903115Y-108798381D01*
X130885941Y-108791440D01*
X130868552Y-108782772D01*
X130851128Y-108772185D01*
X130833845Y-108759487D01*
X130816882Y-108744486D01*
X130808575Y-108736061D01*
X130800415Y-108726990D01*
X130792424Y-108717246D01*
X130784624Y-108706807D01*
X130777037Y-108695648D01*
X130769685Y-108683745D01*
X130769685Y-108814757D01*
X130472198Y-108804792D01*
G37*
G36*
X128861953Y-108796000D02*
G01*
X128861953Y-108717158D01*
X128977724Y-108717158D01*
X128977724Y-108286314D01*
X128977976Y-108270538D01*
X128978731Y-108255356D01*
X128979990Y-108240761D01*
X128981752Y-108226747D01*
X128984019Y-108213308D01*
X128986789Y-108200438D01*
X128990065Y-108188131D01*
X128993844Y-108176381D01*
X128998129Y-108165182D01*
X129008214Y-108144412D01*
X129020322Y-108125773D01*
X129034453Y-108109216D01*
X129050609Y-108094692D01*
X129068794Y-108082153D01*
X129089007Y-108071551D01*
X129099875Y-108066961D01*
X129111250Y-108062837D01*
X129123134Y-108059172D01*
X129135527Y-108055962D01*
X129148428Y-108053199D01*
X129161837Y-108050878D01*
X129175756Y-108048992D01*
X129190184Y-108047537D01*
X129205121Y-108046504D01*
X129220568Y-108045889D01*
X129236524Y-108045685D01*
X129250676Y-108045929D01*
X129264446Y-108046649D01*
X129277841Y-108047828D01*
X129290862Y-108049450D01*
X129303515Y-108051498D01*
X129315804Y-108053954D01*
X129327732Y-108056804D01*
X129339303Y-108060029D01*
X129350522Y-108063612D01*
X129371919Y-108071790D01*
X129391953Y-108081202D01*
X129410659Y-108091715D01*
X129428067Y-108103195D01*
X129444210Y-108115508D01*
X129459121Y-108128520D01*
X129472830Y-108142097D01*
X129485372Y-108156105D01*
X129496777Y-108170410D01*
X129507078Y-108184878D01*
X129516307Y-108199375D01*
X129520530Y-108206593D01*
X129524011Y-108192438D01*
X129528165Y-108179138D01*
X129532952Y-108166666D01*
X129538333Y-108154995D01*
X129544270Y-108144099D01*
X129550723Y-108133951D01*
X129565025Y-108115794D01*
X129580927Y-108100310D01*
X129598119Y-108087288D01*
X129616290Y-108076514D01*
X129635128Y-108067777D01*
X129654325Y-108060864D01*
X129673567Y-108055562D01*
X129692545Y-108051659D01*
X129710948Y-108048942D01*
X129728464Y-108047198D01*
X129744784Y-108046216D01*
X129759595Y-108045783D01*
X129772588Y-108045685D01*
X129786125Y-108045906D01*
X129799370Y-108046560D01*
X129812325Y-108047641D01*
X129824990Y-108049140D01*
X129837367Y-108051048D01*
X129849459Y-108053357D01*
X129861265Y-108056059D01*
X129872789Y-108059145D01*
X129884031Y-108062606D01*
X129905676Y-108070622D01*
X129926212Y-108080040D01*
X129945652Y-108090792D01*
X129964007Y-108102810D01*
X129981290Y-108116028D01*
X129997513Y-108130378D01*
X130012687Y-108145792D01*
X130026824Y-108162204D01*
X130039937Y-108179545D01*
X130052038Y-108197748D01*
X130063139Y-108216747D01*
X130068318Y-108226523D01*
X130068318Y-108045685D01*
X130357306Y-108060633D01*
X130357306Y-108139475D01*
X130338807Y-108139491D01*
X130322361Y-108139601D01*
X130307849Y-108139902D01*
X130295152Y-108140487D01*
X130279251Y-108142106D01*
X130266767Y-108144899D01*
X130254747Y-108151003D01*
X130247145Y-108160523D01*
X130243011Y-108174218D01*
X130241617Y-108187685D01*
X130241242Y-108204248D01*
X130241242Y-108717158D01*
X130357306Y-108717158D01*
X130357306Y-108796000D01*
X130145401Y-108791017D01*
X129933789Y-108796000D01*
X129933789Y-108717158D01*
X130049853Y-108717158D01*
X130049853Y-108370431D01*
X130049430Y-108353767D01*
X130048185Y-108337680D01*
X130046152Y-108322168D01*
X130043365Y-108307227D01*
X130039859Y-108292853D01*
X130035668Y-108279044D01*
X130030827Y-108265796D01*
X130025371Y-108253107D01*
X130019333Y-108240973D01*
X130012748Y-108229391D01*
X130005650Y-108218358D01*
X129998075Y-108207870D01*
X129990057Y-108197925D01*
X129981629Y-108188519D01*
X129972826Y-108179649D01*
X129963684Y-108171312D01*
X129954236Y-108163505D01*
X129944516Y-108156224D01*
X129934560Y-108149467D01*
X129924402Y-108143231D01*
X129914075Y-108137511D01*
X129893057Y-108127611D01*
X129871780Y-108119741D01*
X129850521Y-108113876D01*
X129829556Y-108109991D01*
X129809159Y-108108061D01*
X129799260Y-108107821D01*
X129783732Y-108108752D01*
X129769354Y-108111747D01*
X129756208Y-108117106D01*
X129744375Y-108125132D01*
X129733940Y-108136125D01*
X129724984Y-108150387D01*
X129719876Y-108161860D01*
X129715487Y-108175009D01*
X129711841Y-108189923D01*
X129708962Y-108206692D01*
X129706876Y-108225405D01*
X129705606Y-108246152D01*
X129705177Y-108269021D01*
X129705177Y-108717158D01*
X129821242Y-108717158D01*
X129821242Y-108796000D01*
X129609630Y-108791017D01*
X129397724Y-108796000D01*
X129397724Y-108717158D01*
X129513789Y-108717158D01*
X129513789Y-108370431D01*
X129513366Y-108353767D01*
X129512121Y-108337680D01*
X129510088Y-108322168D01*
X129507301Y-108307227D01*
X129503796Y-108292853D01*
X129499606Y-108279044D01*
X129494766Y-108265796D01*
X129489311Y-108253107D01*
X129483275Y-108240973D01*
X129476692Y-108229391D01*
X129469598Y-108218358D01*
X129462027Y-108207870D01*
X129454012Y-108197925D01*
X129445589Y-108188519D01*
X129436792Y-108179649D01*
X129427656Y-108171312D01*
X129418216Y-108163505D01*
X129408504Y-108156224D01*
X129398557Y-108149467D01*
X129388409Y-108143231D01*
X129378094Y-108137511D01*
X129357101Y-108127611D01*
X129335856Y-108119741D01*
X129314633Y-108113876D01*
X129293709Y-108109991D01*
X129273361Y-108108061D01*
X129263489Y-108107821D01*
X129247961Y-108108752D01*
X129233583Y-108111747D01*
X129220437Y-108117106D01*
X129208604Y-108125132D01*
X129198169Y-108136125D01*
X129189213Y-108150387D01*
X129184105Y-108161860D01*
X129179716Y-108175009D01*
X129176069Y-108189923D01*
X129173191Y-108206692D01*
X129171105Y-108225405D01*
X129169835Y-108246152D01*
X129169406Y-108269021D01*
X129169406Y-108717158D01*
X129285177Y-108717158D01*
X129285177Y-108796000D01*
X129073565Y-108791017D01*
X128861953Y-108796000D01*
G37*
G36*
X127838185Y-108796000D02*
G01*
X127838185Y-108717158D01*
X127866615Y-108717158D01*
X127879419Y-108717076D01*
X127895933Y-108716613D01*
X127909585Y-108715683D01*
X127924054Y-108713603D01*
X127937529Y-108709429D01*
X127947674Y-108703218D01*
X127956416Y-108694662D01*
X127965680Y-108683452D01*
X128249685Y-108326174D01*
X128031332Y-108155302D01*
X128020540Y-108147042D01*
X128008535Y-108139920D01*
X127996434Y-108135114D01*
X127985092Y-108132065D01*
X127971226Y-108129519D01*
X127954315Y-108127498D01*
X127941092Y-108126454D01*
X127926129Y-108125661D01*
X127909272Y-108125125D01*
X127890367Y-108124854D01*
X127880097Y-108124820D01*
X127880097Y-108045685D01*
X127892786Y-108046060D01*
X127905315Y-108046365D01*
X127917711Y-108046607D01*
X127929999Y-108046793D01*
X127942207Y-108046931D01*
X127954359Y-108047028D01*
X127966483Y-108047091D01*
X127978603Y-108047128D01*
X127990747Y-108047145D01*
X128002940Y-108047151D01*
X128011109Y-108047151D01*
X128204256Y-108045685D01*
X128204256Y-108124820D01*
X128191246Y-108123815D01*
X128178673Y-108123735D01*
X128166228Y-108125773D01*
X128155173Y-108131968D01*
X128147103Y-108139475D01*
X128464814Y-108390068D01*
X128464814Y-107633013D01*
X128762009Y-107651771D01*
X128762009Y-107730905D01*
X128743562Y-107730921D01*
X128727162Y-107731032D01*
X128712688Y-107731334D01*
X128700025Y-107731922D01*
X128684164Y-107733548D01*
X128671711Y-107736354D01*
X128659719Y-107742486D01*
X128652132Y-107752049D01*
X128648006Y-107765805D01*
X128646614Y-107779334D01*
X128646238Y-107795972D01*
X128646238Y-108717158D01*
X128762009Y-108717158D01*
X128762009Y-108796000D01*
X128560655Y-108791017D01*
X128357250Y-108796000D01*
X128357250Y-108717158D01*
X128473021Y-108717158D01*
X128473021Y-108505546D01*
X128460219Y-108495463D01*
X128449000Y-108486673D01*
X128439090Y-108478971D01*
X128427444Y-108470038D01*
X128416997Y-108462185D01*
X128407103Y-108454924D01*
X128397116Y-108447769D01*
X128386390Y-108440230D01*
X128377473Y-108434032D01*
X128207773Y-108643885D01*
X128199918Y-108654055D01*
X128191231Y-108665240D01*
X128182598Y-108676482D01*
X128174904Y-108686821D01*
X128168157Y-108696685D01*
X128165568Y-108702210D01*
X128173300Y-108712301D01*
X128185488Y-108715618D01*
X128198226Y-108716825D01*
X128211439Y-108717146D01*
X128217738Y-108717158D01*
X128217738Y-108796000D01*
X128201226Y-108795132D01*
X128187981Y-108794597D01*
X128173346Y-108794097D01*
X128157663Y-108793634D01*
X128141277Y-108793206D01*
X128124528Y-108792815D01*
X128107760Y-108792462D01*
X128091316Y-108792146D01*
X128075537Y-108791868D01*
X128060767Y-108791628D01*
X128047347Y-108791428D01*
X128035622Y-108791266D01*
X128021959Y-108791099D01*
X128012867Y-108791017D01*
X127995894Y-108791063D01*
X127979090Y-108791200D01*
X127962440Y-108791428D01*
X127945928Y-108791743D01*
X127929537Y-108792146D01*
X127913252Y-108792634D01*
X127897056Y-108793206D01*
X127880935Y-108793861D01*
X127864872Y-108794597D01*
X127848850Y-108795412D01*
X127838185Y-108796000D01*
G37*
G36*
X126772212Y-108804792D02*
G01*
X126772212Y-108725951D01*
X126790661Y-108725935D01*
X126807072Y-108725822D01*
X126821559Y-108725516D01*
X126834242Y-108724920D01*
X126850136Y-108723272D01*
X126862628Y-108720428D01*
X126874675Y-108714214D01*
X126882313Y-108704522D01*
X126886481Y-108690579D01*
X126887893Y-108676868D01*
X126888276Y-108660005D01*
X126888276Y-108045685D01*
X127195729Y-108059168D01*
X127195729Y-108138302D01*
X127177230Y-108138318D01*
X127160784Y-108138431D01*
X127146272Y-108138737D01*
X127133575Y-108139333D01*
X127117674Y-108140981D01*
X127105190Y-108143825D01*
X127093170Y-108150039D01*
X127085568Y-108159731D01*
X127081434Y-108173674D01*
X127080040Y-108187385D01*
X127079664Y-108204248D01*
X127079664Y-108526648D01*
X127079914Y-108539473D01*
X127080656Y-108552004D01*
X127081881Y-108564232D01*
X127083582Y-108576152D01*
X127085748Y-108587756D01*
X127091444Y-108609984D01*
X127098898Y-108630857D01*
X127108038Y-108650317D01*
X127118795Y-108668303D01*
X127131098Y-108684758D01*
X127144875Y-108699620D01*
X127160055Y-108712832D01*
X127176569Y-108724334D01*
X127194344Y-108734067D01*
X127213311Y-108741971D01*
X127233398Y-108747987D01*
X127254535Y-108752057D01*
X127276650Y-108754120D01*
X127288052Y-108754381D01*
X127299810Y-108754258D01*
X127321234Y-108753269D01*
X127340012Y-108751283D01*
X127356320Y-108748287D01*
X127370330Y-108744272D01*
X127382217Y-108739225D01*
X127396447Y-108729700D01*
X127406878Y-108717796D01*
X127414096Y-108703476D01*
X127418689Y-108686704D01*
X127420582Y-108674143D01*
X127421742Y-108660466D01*
X127422344Y-108645661D01*
X127422562Y-108629718D01*
X127422581Y-108621317D01*
X127422581Y-108045685D01*
X127730034Y-108059168D01*
X127730034Y-108138302D01*
X127711536Y-108138318D01*
X127695090Y-108138431D01*
X127680578Y-108138737D01*
X127667881Y-108139333D01*
X127651979Y-108140981D01*
X127639496Y-108143825D01*
X127627476Y-108150039D01*
X127619873Y-108159731D01*
X127615740Y-108173674D01*
X127614346Y-108187385D01*
X127613970Y-108204248D01*
X127613970Y-108597577D01*
X127613575Y-108614059D01*
X127612402Y-108629720D01*
X127610471Y-108644581D01*
X127607801Y-108658660D01*
X127604412Y-108671978D01*
X127600322Y-108684553D01*
X127595552Y-108696406D01*
X127590120Y-108707555D01*
X127584045Y-108718020D01*
X127577348Y-108727820D01*
X127562162Y-108745506D01*
X127544715Y-108760768D01*
X127525163Y-108773761D01*
X127514646Y-108779456D01*
X127503661Y-108784642D01*
X127492226Y-108789340D01*
X127480362Y-108793567D01*
X127468087Y-108797345D01*
X127455421Y-108800691D01*
X127442383Y-108803627D01*
X127428993Y-108806171D01*
X127415269Y-108808342D01*
X127401232Y-108810161D01*
X127386900Y-108811647D01*
X127372293Y-108812818D01*
X127357430Y-108813696D01*
X127342331Y-108814299D01*
X127327014Y-108814646D01*
X127311500Y-108814757D01*
X127297277Y-108814649D01*
X127279574Y-108813894D01*
X127266135Y-108812710D01*
X127251593Y-108810759D01*
X127236126Y-108807849D01*
X127219912Y-108803786D01*
X127203129Y-108798381D01*
X127185955Y-108791440D01*
X127168566Y-108782772D01*
X127151142Y-108772185D01*
X127133859Y-108759487D01*
X127116895Y-108744486D01*
X127108589Y-108736061D01*
X127100429Y-108726990D01*
X127092438Y-108717246D01*
X127084638Y-108706807D01*
X127077051Y-108695648D01*
X127069699Y-108683745D01*
X127069699Y-108814757D01*
X126772212Y-108804792D01*
G37*
G36*
X126330302Y-108027040D02*
G01*
X126351533Y-108027509D01*
X126374410Y-108028533D01*
X126386323Y-108029316D01*
X126398474Y-108030312D01*
X126410807Y-108031546D01*
X126423263Y-108033044D01*
X126435784Y-108034829D01*
X126448315Y-108036928D01*
X126460795Y-108039364D01*
X126473169Y-108042162D01*
X126485378Y-108045348D01*
X126497365Y-108048946D01*
X126509072Y-108052981D01*
X126520441Y-108057478D01*
X126531415Y-108062462D01*
X126541937Y-108067958D01*
X126561390Y-108080583D01*
X126578341Y-108095552D01*
X126592327Y-108113065D01*
X126602888Y-108133320D01*
X126606740Y-108144538D01*
X126609563Y-108156516D01*
X126611299Y-108169279D01*
X126611891Y-108182852D01*
X126611218Y-108196422D01*
X126609270Y-108209004D01*
X126606154Y-108220614D01*
X126599521Y-108236240D01*
X126590855Y-108249766D01*
X126580514Y-108261245D01*
X126568855Y-108270727D01*
X126556238Y-108278266D01*
X126543019Y-108283914D01*
X126529556Y-108287722D01*
X126516208Y-108289743D01*
X126507550Y-108290124D01*
X126492952Y-108289181D01*
X126478522Y-108286352D01*
X126464537Y-108281638D01*
X126451275Y-108275039D01*
X126439011Y-108266553D01*
X126428023Y-108256182D01*
X126418587Y-108243926D01*
X126410981Y-108229784D01*
X126405480Y-108213756D01*
X126403120Y-108202023D01*
X126401900Y-108189452D01*
X126401744Y-108182852D01*
X126402538Y-108169092D01*
X126404725Y-108156509D01*
X126408015Y-108145124D01*
X126413612Y-108131838D01*
X126419960Y-108120757D01*
X126427900Y-108110077D01*
X126436610Y-108101198D01*
X126438673Y-108099614D01*
X126425333Y-108096948D01*
X126411824Y-108094696D01*
X126398350Y-108092826D01*
X126385113Y-108091304D01*
X126372317Y-108090097D01*
X126360165Y-108089172D01*
X126345313Y-108088318D01*
X126332446Y-108087827D01*
X126319887Y-108087603D01*
X126317920Y-108087598D01*
X126295074Y-108088432D01*
X126273789Y-108090923D01*
X126254053Y-108095049D01*
X126235854Y-108100791D01*
X126219180Y-108108129D01*
X126204019Y-108117041D01*
X126190360Y-108127509D01*
X126178188Y-108139511D01*
X126167494Y-108153029D01*
X126158265Y-108168040D01*
X126150489Y-108184526D01*
X126144153Y-108202466D01*
X126139247Y-108221841D01*
X126135757Y-108242629D01*
X126133672Y-108264810D01*
X126132979Y-108288365D01*
X126132979Y-108346104D01*
X126145041Y-108347833D01*
X126158769Y-108349585D01*
X126174031Y-108351403D01*
X126190690Y-108353330D01*
X126208613Y-108355407D01*
X126227666Y-108357677D01*
X126247713Y-108360183D01*
X126268621Y-108362966D01*
X126290255Y-108366070D01*
X126312480Y-108369536D01*
X126335163Y-108373408D01*
X126358168Y-108377727D01*
X126381361Y-108382536D01*
X126404609Y-108387877D01*
X126427775Y-108393793D01*
X126450727Y-108400326D01*
X126473329Y-108407518D01*
X126495447Y-108415413D01*
X126516947Y-108424051D01*
X126537694Y-108433476D01*
X126557554Y-108443731D01*
X126576392Y-108454856D01*
X126594075Y-108466896D01*
X126610466Y-108479891D01*
X126625433Y-108493886D01*
X126638840Y-108508921D01*
X126650554Y-108525040D01*
X126660439Y-108542284D01*
X126668361Y-108560697D01*
X126674187Y-108580320D01*
X126677781Y-108601197D01*
X126679008Y-108623369D01*
X126678407Y-108638100D01*
X126676640Y-108652083D01*
X126673762Y-108665335D01*
X126669828Y-108677875D01*
X126664894Y-108689720D01*
X126659014Y-108700891D01*
X126652244Y-108711404D01*
X126644639Y-108721280D01*
X126636254Y-108730535D01*
X126627143Y-108739188D01*
X126617363Y-108747259D01*
X126606968Y-108754765D01*
X126596013Y-108761725D01*
X126584554Y-108768158D01*
X126572646Y-108774081D01*
X126560343Y-108779513D01*
X126547701Y-108784473D01*
X126534775Y-108788980D01*
X126521620Y-108793051D01*
X126508291Y-108796705D01*
X126494844Y-108799960D01*
X126481333Y-108802836D01*
X126467813Y-108805350D01*
X126454340Y-108807522D01*
X126440969Y-108809368D01*
X126427755Y-108810909D01*
X126414752Y-108812162D01*
X126402017Y-108813145D01*
X126389604Y-108813878D01*
X126377568Y-108814379D01*
X126354849Y-108814757D01*
X126342400Y-108814957D01*
X126330274Y-108814740D01*
X126318470Y-108814121D01*
X126295815Y-108811724D01*
X126274415Y-108807872D01*
X126254249Y-108802670D01*
X126235298Y-108796221D01*
X126217540Y-108788632D01*
X126200957Y-108780006D01*
X126185528Y-108770448D01*
X126171232Y-108760063D01*
X126158050Y-108748956D01*
X126145961Y-108737232D01*
X126134945Y-108724995D01*
X126124982Y-108712351D01*
X126116052Y-108699403D01*
X126108135Y-108686257D01*
X126104549Y-108679642D01*
X126104405Y-108691590D01*
X126103396Y-108704964D01*
X126100657Y-108719196D01*
X126095322Y-108733718D01*
X126086527Y-108747961D01*
X126078315Y-108757021D01*
X126067923Y-108765538D01*
X126055097Y-108773341D01*
X126039580Y-108780263D01*
X126021114Y-108786137D01*
X125999445Y-108790792D01*
X125987329Y-108792611D01*
X125974316Y-108794062D01*
X125960374Y-108795124D01*
X125945470Y-108795777D01*
X125929574Y-108796000D01*
X125848974Y-108796000D01*
X125837076Y-108795921D01*
X125824068Y-108795106D01*
X125811406Y-108791864D01*
X125801048Y-108782952D01*
X125796792Y-108771880D01*
X125795397Y-108759494D01*
X125795338Y-108755846D01*
X125796313Y-108743076D01*
X125800009Y-108731523D01*
X125808930Y-108721994D01*
X125821007Y-108718019D01*
X125832851Y-108717190D01*
X125839008Y-108717158D01*
X125857065Y-108716592D01*
X125872869Y-108715556D01*
X125886568Y-108714055D01*
X125898314Y-108712093D01*
X125912598Y-108708294D01*
X125923333Y-108703483D01*
X125933000Y-108695516D01*
X125939308Y-108683112D01*
X125941199Y-108671275D01*
X125941587Y-108657774D01*
X125941590Y-108654143D01*
X125941590Y-108402085D01*
X126132979Y-108402085D01*
X126132979Y-108562699D01*
X126133424Y-108578153D01*
X126134724Y-108592769D01*
X126136832Y-108606568D01*
X126139698Y-108619573D01*
X126143275Y-108631808D01*
X126147512Y-108643295D01*
X126152361Y-108654057D01*
X126163699Y-108673498D01*
X126176900Y-108690314D01*
X126191572Y-108704687D01*
X126207325Y-108716801D01*
X126223768Y-108726837D01*
X126240509Y-108734981D01*
X126257160Y-108741413D01*
X126273328Y-108746317D01*
X126288624Y-108749876D01*
X126302656Y-108752273D01*
X126315033Y-108753690D01*
X126329643Y-108754381D01*
X126345462Y-108753684D01*
X126360776Y-108751638D01*
X126375516Y-108748308D01*
X126389608Y-108743761D01*
X126402983Y-108738060D01*
X126415568Y-108731274D01*
X126427294Y-108723466D01*
X126438087Y-108714703D01*
X126447878Y-108705051D01*
X126456594Y-108694574D01*
X126464165Y-108683340D01*
X126470520Y-108671413D01*
X126475586Y-108658859D01*
X126479293Y-108645744D01*
X126481569Y-108632133D01*
X126482344Y-108618093D01*
X126481581Y-108601088D01*
X126479345Y-108585006D01*
X126475718Y-108569822D01*
X126470782Y-108555509D01*
X126464620Y-108542041D01*
X126457311Y-108529391D01*
X126448939Y-108517534D01*
X126439585Y-108506443D01*
X126429330Y-108496093D01*
X126418257Y-108486457D01*
X126406447Y-108477508D01*
X126393982Y-108469221D01*
X126380944Y-108461569D01*
X126367414Y-108454527D01*
X126353474Y-108448067D01*
X126339206Y-108442165D01*
X126324691Y-108436793D01*
X126310012Y-108431926D01*
X126295249Y-108427536D01*
X126280486Y-108423599D01*
X126265803Y-108420088D01*
X126251282Y-108416977D01*
X126237005Y-108414239D01*
X126223054Y-108411848D01*
X126209511Y-108409779D01*
X126196456Y-108408004D01*
X126183973Y-108406499D01*
X126172142Y-108405235D01*
X126150765Y-108403332D01*
X126132979Y-108402085D01*
X125941590Y-108402085D01*
X125941590Y-108288365D01*
X125941940Y-108274283D01*
X125942991Y-108260458D01*
X125944745Y-108246901D01*
X125947205Y-108233626D01*
X125950372Y-108220645D01*
X125954249Y-108207970D01*
X125958838Y-108195614D01*
X125964140Y-108183590D01*
X125970159Y-108171909D01*
X125976896Y-108160585D01*
X125984353Y-108149629D01*
X125992533Y-108139055D01*
X126001438Y-108128875D01*
X126011070Y-108119101D01*
X126021430Y-108109747D01*
X126032522Y-108100823D01*
X126044347Y-108092344D01*
X126056908Y-108084321D01*
X126070206Y-108076767D01*
X126084244Y-108069694D01*
X126099023Y-108063116D01*
X126114547Y-108057044D01*
X126130817Y-108051490D01*
X126147835Y-108046469D01*
X126165604Y-108041991D01*
X126184125Y-108038069D01*
X126203401Y-108034717D01*
X126223434Y-108031946D01*
X126244227Y-108029769D01*
X126265780Y-108028199D01*
X126288097Y-108027248D01*
X126311179Y-108026928D01*
X126330302Y-108027040D01*
G37*
G36*
X125152002Y-108593180D02*
G01*
X125152002Y-108502322D01*
X125230844Y-108502322D01*
X125230844Y-108589956D01*
X125231461Y-108610950D01*
X125233253Y-108630223D01*
X125236130Y-108647825D01*
X125240003Y-108663806D01*
X125244783Y-108678218D01*
X125250380Y-108691111D01*
X125256706Y-108702535D01*
X125263670Y-108712542D01*
X125275119Y-108725005D01*
X125287503Y-108734563D01*
X125300521Y-108741387D01*
X125313871Y-108745648D01*
X125327252Y-108747518D01*
X125331667Y-108747639D01*
X125348847Y-108746399D01*
X125363883Y-108742852D01*
X125376917Y-108737263D01*
X125388092Y-108729894D01*
X125397552Y-108721008D01*
X125405439Y-108710870D01*
X125411896Y-108699741D01*
X125417067Y-108687885D01*
X125421094Y-108675566D01*
X125424120Y-108663046D01*
X125426288Y-108650589D01*
X125427742Y-108638458D01*
X125428894Y-108621448D01*
X125429243Y-108606652D01*
X125429267Y-108598456D01*
X125429267Y-108124820D01*
X125183949Y-108124820D01*
X125183949Y-108045685D01*
X125429267Y-108045685D01*
X125429267Y-107726802D01*
X125508108Y-107726802D01*
X125508509Y-107742454D01*
X125509383Y-107758067D01*
X125510731Y-107773611D01*
X125512552Y-107789059D01*
X125514848Y-107804380D01*
X125517619Y-107819546D01*
X125520867Y-107834527D01*
X125524590Y-107849296D01*
X125528791Y-107863822D01*
X125533469Y-107878078D01*
X125538625Y-107892033D01*
X125544260Y-107905659D01*
X125550374Y-107918927D01*
X125556968Y-107931808D01*
X125564043Y-107944273D01*
X125571599Y-107956293D01*
X125579637Y-107967839D01*
X125588157Y-107978882D01*
X125597160Y-107989393D01*
X125606646Y-107999343D01*
X125616616Y-108008703D01*
X125627071Y-108017444D01*
X125638012Y-108025538D01*
X125649438Y-108032954D01*
X125661350Y-108039665D01*
X125673750Y-108045641D01*
X125686637Y-108050853D01*
X125700013Y-108055273D01*
X125713877Y-108058870D01*
X125728231Y-108061617D01*
X125743074Y-108063485D01*
X125758408Y-108064443D01*
X125758408Y-108124820D01*
X125620655Y-108124820D01*
X125620655Y-108594939D01*
X125620232Y-108611660D01*
X125618984Y-108627547D01*
X125616942Y-108642618D01*
X125614138Y-108656893D01*
X125610604Y-108670394D01*
X125606372Y-108683138D01*
X125601473Y-108695148D01*
X125595939Y-108706442D01*
X125589803Y-108717040D01*
X125583094Y-108726963D01*
X125575846Y-108736230D01*
X125559857Y-108752878D01*
X125542089Y-108767143D01*
X125522797Y-108779184D01*
X125502234Y-108789163D01*
X125480653Y-108797237D01*
X125458309Y-108803568D01*
X125435455Y-108808315D01*
X125412345Y-108811637D01*
X125389233Y-108813694D01*
X125366371Y-108814646D01*
X125355115Y-108814757D01*
X125343315Y-108814478D01*
X125320644Y-108812278D01*
X125299242Y-108807971D01*
X125279142Y-108801656D01*
X125260380Y-108793431D01*
X125242990Y-108783393D01*
X125227007Y-108771640D01*
X125212467Y-108758271D01*
X125199403Y-108743382D01*
X125187850Y-108727072D01*
X125177844Y-108709439D01*
X125169418Y-108690581D01*
X125162609Y-108670595D01*
X125157450Y-108649580D01*
X125153976Y-108627633D01*
X125152223Y-108604853D01*
X125152002Y-108593180D01*
G37*
D11*
X132357143Y-113257619D02*
X132357143Y-112257619D01*
X132357143Y-112257619D02*
X131976191Y-112257619D01*
X131976191Y-112257619D02*
X131880953Y-112305238D01*
X131880953Y-112305238D02*
X131833334Y-112352857D01*
X131833334Y-112352857D02*
X131785715Y-112448095D01*
X131785715Y-112448095D02*
X131785715Y-112590952D01*
X131785715Y-112590952D02*
X131833334Y-112686190D01*
X131833334Y-112686190D02*
X131880953Y-112733809D01*
X131880953Y-112733809D02*
X131976191Y-112781428D01*
X131976191Y-112781428D02*
X132357143Y-112781428D01*
X130928572Y-113257619D02*
X130928572Y-112733809D01*
X130928572Y-112733809D02*
X130976191Y-112638571D01*
X130976191Y-112638571D02*
X131071429Y-112590952D01*
X131071429Y-112590952D02*
X131261905Y-112590952D01*
X131261905Y-112590952D02*
X131357143Y-112638571D01*
X130928572Y-113210000D02*
X131023810Y-113257619D01*
X131023810Y-113257619D02*
X131261905Y-113257619D01*
X131261905Y-113257619D02*
X131357143Y-113210000D01*
X131357143Y-113210000D02*
X131404762Y-113114761D01*
X131404762Y-113114761D02*
X131404762Y-113019523D01*
X131404762Y-113019523D02*
X131357143Y-112924285D01*
X131357143Y-112924285D02*
X131261905Y-112876666D01*
X131261905Y-112876666D02*
X131023810Y-112876666D01*
X131023810Y-112876666D02*
X130928572Y-112829047D01*
X130452381Y-113257619D02*
X130452381Y-112257619D01*
X130452381Y-112638571D02*
X130357143Y-112590952D01*
X130357143Y-112590952D02*
X130166667Y-112590952D01*
X130166667Y-112590952D02*
X130071429Y-112638571D01*
X130071429Y-112638571D02*
X130023810Y-112686190D01*
X130023810Y-112686190D02*
X129976191Y-112781428D01*
X129976191Y-112781428D02*
X129976191Y-113067142D01*
X129976191Y-113067142D02*
X130023810Y-113162380D01*
X130023810Y-113162380D02*
X130071429Y-113210000D01*
X130071429Y-113210000D02*
X130166667Y-113257619D01*
X130166667Y-113257619D02*
X130357143Y-113257619D01*
X130357143Y-113257619D02*
X130452381Y-113210000D01*
X129404762Y-113257619D02*
X129500000Y-113210000D01*
X129500000Y-113210000D02*
X129547619Y-113114761D01*
X129547619Y-113114761D02*
X129547619Y-112257619D01*
X128880952Y-113257619D02*
X128976190Y-113210000D01*
X128976190Y-113210000D02*
X129023809Y-113162380D01*
X129023809Y-113162380D02*
X129071428Y-113067142D01*
X129071428Y-113067142D02*
X129071428Y-112781428D01*
X129071428Y-112781428D02*
X129023809Y-112686190D01*
X129023809Y-112686190D02*
X128976190Y-112638571D01*
X128976190Y-112638571D02*
X128880952Y-112590952D01*
X128880952Y-112590952D02*
X128738095Y-112590952D01*
X128738095Y-112590952D02*
X128642857Y-112638571D01*
X128642857Y-112638571D02*
X128595238Y-112686190D01*
X128595238Y-112686190D02*
X128547619Y-112781428D01*
X128547619Y-112781428D02*
X128547619Y-113067142D01*
X128547619Y-113067142D02*
X128595238Y-113162380D01*
X128595238Y-113162380D02*
X128642857Y-113210000D01*
X128642857Y-113210000D02*
X128738095Y-113257619D01*
X128738095Y-113257619D02*
X128880952Y-113257619D01*
X127404761Y-112971904D02*
X126928571Y-112971904D01*
X127499999Y-113257619D02*
X127166666Y-112257619D01*
X127166666Y-112257619D02*
X126833333Y-113257619D01*
X127071428Y-111876666D02*
X127214285Y-112019523D01*
X126357142Y-113257619D02*
X126452380Y-113210000D01*
X126452380Y-113210000D02*
X126499999Y-113114761D01*
X126499999Y-113114761D02*
X126499999Y-112257619D01*
X126071427Y-112590952D02*
X125833332Y-113257619D01*
X125833332Y-113257619D02*
X125595237Y-112590952D01*
X124785713Y-113257619D02*
X124785713Y-112733809D01*
X124785713Y-112733809D02*
X124833332Y-112638571D01*
X124833332Y-112638571D02*
X124928570Y-112590952D01*
X124928570Y-112590952D02*
X125119046Y-112590952D01*
X125119046Y-112590952D02*
X125214284Y-112638571D01*
X124785713Y-113210000D02*
X124880951Y-113257619D01*
X124880951Y-113257619D02*
X125119046Y-113257619D01*
X125119046Y-113257619D02*
X125214284Y-113210000D01*
X125214284Y-113210000D02*
X125261903Y-113114761D01*
X125261903Y-113114761D02*
X125261903Y-113019523D01*
X125261903Y-113019523D02*
X125214284Y-112924285D01*
X125214284Y-112924285D02*
X125119046Y-112876666D01*
X125119046Y-112876666D02*
X124880951Y-112876666D01*
X124880951Y-112876666D02*
X124785713Y-112829047D01*
X124309522Y-113257619D02*
X124309522Y-112590952D01*
X124309522Y-112781428D02*
X124261903Y-112686190D01*
X124261903Y-112686190D02*
X124214284Y-112638571D01*
X124214284Y-112638571D02*
X124119046Y-112590952D01*
X124119046Y-112590952D02*
X124023808Y-112590952D01*
X123309522Y-113210000D02*
X123404760Y-113257619D01*
X123404760Y-113257619D02*
X123595236Y-113257619D01*
X123595236Y-113257619D02*
X123690474Y-113210000D01*
X123690474Y-113210000D02*
X123738093Y-113114761D01*
X123738093Y-113114761D02*
X123738093Y-112733809D01*
X123738093Y-112733809D02*
X123690474Y-112638571D01*
X123690474Y-112638571D02*
X123595236Y-112590952D01*
X123595236Y-112590952D02*
X123404760Y-112590952D01*
X123404760Y-112590952D02*
X123309522Y-112638571D01*
X123309522Y-112638571D02*
X123261903Y-112733809D01*
X123261903Y-112733809D02*
X123261903Y-112829047D01*
X123261903Y-112829047D02*
X123738093Y-112924285D01*
X122928569Y-112590952D02*
X122404760Y-112590952D01*
X122404760Y-112590952D02*
X122928569Y-113257619D01*
X122928569Y-113257619D02*
X122404760Y-113257619D01*
X121261902Y-113257619D02*
X121261902Y-112257619D01*
X121261902Y-112257619D02*
X121023807Y-112257619D01*
X121023807Y-112257619D02*
X120880950Y-112305238D01*
X120880950Y-112305238D02*
X120785712Y-112400476D01*
X120785712Y-112400476D02*
X120738093Y-112495714D01*
X120738093Y-112495714D02*
X120690474Y-112686190D01*
X120690474Y-112686190D02*
X120690474Y-112829047D01*
X120690474Y-112829047D02*
X120738093Y-113019523D01*
X120738093Y-113019523D02*
X120785712Y-113114761D01*
X120785712Y-113114761D02*
X120880950Y-113210000D01*
X120880950Y-113210000D02*
X121023807Y-113257619D01*
X121023807Y-113257619D02*
X121261902Y-113257619D01*
X120119045Y-113257619D02*
X120214283Y-113210000D01*
X120214283Y-113210000D02*
X120261902Y-113162380D01*
X120261902Y-113162380D02*
X120309521Y-113067142D01*
X120309521Y-113067142D02*
X120309521Y-112781428D01*
X120309521Y-112781428D02*
X120261902Y-112686190D01*
X120261902Y-112686190D02*
X120214283Y-112638571D01*
X120214283Y-112638571D02*
X120119045Y-112590952D01*
X120119045Y-112590952D02*
X119976188Y-112590952D01*
X119976188Y-112590952D02*
X119880950Y-112638571D01*
X119880950Y-112638571D02*
X119833331Y-112686190D01*
X119833331Y-112686190D02*
X119785712Y-112781428D01*
X119785712Y-112781428D02*
X119785712Y-113067142D01*
X119785712Y-113067142D02*
X119833331Y-113162380D01*
X119833331Y-113162380D02*
X119880950Y-113210000D01*
X119880950Y-113210000D02*
X119976188Y-113257619D01*
X119976188Y-113257619D02*
X120119045Y-113257619D01*
X119357140Y-113257619D02*
X119357140Y-112590952D01*
X119357140Y-112686190D02*
X119309521Y-112638571D01*
X119309521Y-112638571D02*
X119214283Y-112590952D01*
X119214283Y-112590952D02*
X119071426Y-112590952D01*
X119071426Y-112590952D02*
X118976188Y-112638571D01*
X118976188Y-112638571D02*
X118928569Y-112733809D01*
X118928569Y-112733809D02*
X118928569Y-113257619D01*
X118928569Y-112733809D02*
X118880950Y-112638571D01*
X118880950Y-112638571D02*
X118785712Y-112590952D01*
X118785712Y-112590952D02*
X118642855Y-112590952D01*
X118642855Y-112590952D02*
X118547616Y-112638571D01*
X118547616Y-112638571D02*
X118499997Y-112733809D01*
X118499997Y-112733809D02*
X118499997Y-113257619D01*
X118023807Y-113257619D02*
X118023807Y-112590952D01*
X117928569Y-112210000D02*
X118071426Y-112352857D01*
X117547617Y-112590952D02*
X117547617Y-113257619D01*
X117547617Y-112686190D02*
X117499998Y-112638571D01*
X117499998Y-112638571D02*
X117404760Y-112590952D01*
X117404760Y-112590952D02*
X117261903Y-112590952D01*
X117261903Y-112590952D02*
X117166665Y-112638571D01*
X117166665Y-112638571D02*
X117119046Y-112733809D01*
X117119046Y-112733809D02*
X117119046Y-113257619D01*
X116214284Y-112590952D02*
X116214284Y-113400476D01*
X116214284Y-113400476D02*
X116261903Y-113495714D01*
X116261903Y-113495714D02*
X116309522Y-113543333D01*
X116309522Y-113543333D02*
X116404760Y-113590952D01*
X116404760Y-113590952D02*
X116547617Y-113590952D01*
X116547617Y-113590952D02*
X116642855Y-113543333D01*
X116214284Y-113210000D02*
X116309522Y-113257619D01*
X116309522Y-113257619D02*
X116499998Y-113257619D01*
X116499998Y-113257619D02*
X116595236Y-113210000D01*
X116595236Y-113210000D02*
X116642855Y-113162380D01*
X116642855Y-113162380D02*
X116690474Y-113067142D01*
X116690474Y-113067142D02*
X116690474Y-112781428D01*
X116690474Y-112781428D02*
X116642855Y-112686190D01*
X116642855Y-112686190D02*
X116595236Y-112638571D01*
X116595236Y-112638571D02*
X116499998Y-112590952D01*
X116499998Y-112590952D02*
X116309522Y-112590952D01*
X116309522Y-112590952D02*
X116214284Y-112638571D01*
X115309522Y-112590952D02*
X115309522Y-113257619D01*
X115738093Y-112590952D02*
X115738093Y-113114761D01*
X115738093Y-113114761D02*
X115690474Y-113210000D01*
X115690474Y-113210000D02*
X115595236Y-113257619D01*
X115595236Y-113257619D02*
X115452379Y-113257619D01*
X115452379Y-113257619D02*
X115357141Y-113210000D01*
X115357141Y-113210000D02*
X115309522Y-113162380D01*
X114452379Y-113210000D02*
X114547617Y-113257619D01*
X114547617Y-113257619D02*
X114738093Y-113257619D01*
X114738093Y-113257619D02*
X114833331Y-113210000D01*
X114833331Y-113210000D02*
X114880950Y-113114761D01*
X114880950Y-113114761D02*
X114880950Y-112733809D01*
X114880950Y-112733809D02*
X114833331Y-112638571D01*
X114833331Y-112638571D02*
X114738093Y-112590952D01*
X114738093Y-112590952D02*
X114547617Y-112590952D01*
X114547617Y-112590952D02*
X114452379Y-112638571D01*
X114452379Y-112638571D02*
X114404760Y-112733809D01*
X114404760Y-112733809D02*
X114404760Y-112829047D01*
X114404760Y-112829047D02*
X114880950Y-112924285D01*
X114071426Y-112590952D02*
X113547617Y-112590952D01*
X113547617Y-112590952D02*
X114071426Y-113257619D01*
X114071426Y-113257619D02*
X113547617Y-113257619D01*
X125285713Y-114353809D02*
X124952380Y-114353809D01*
X124809523Y-114877619D02*
X125285713Y-114877619D01*
X125285713Y-114877619D02*
X125285713Y-113877619D01*
X125285713Y-113877619D02*
X124809523Y-113877619D01*
X124428570Y-114591904D02*
X123952380Y-114591904D01*
X124523808Y-114877619D02*
X124190475Y-113877619D01*
X124190475Y-113877619D02*
X123857142Y-114877619D01*
X122999999Y-114877619D02*
X123571427Y-114877619D01*
X123285713Y-114877619D02*
X123285713Y-113877619D01*
X123285713Y-113877619D02*
X123380951Y-114020476D01*
X123380951Y-114020476D02*
X123476189Y-114115714D01*
X123476189Y-114115714D02*
X123571427Y-114163333D01*
X122238094Y-114353809D02*
X122571427Y-114353809D01*
X122571427Y-114877619D02*
X122571427Y-113877619D01*
X122571427Y-113877619D02*
X122095237Y-113877619D01*
X121714284Y-114877619D02*
X121714284Y-113877619D01*
X121238094Y-114877619D02*
X121238094Y-113877619D01*
X121238094Y-113877619D02*
X120999999Y-113877619D01*
X120999999Y-113877619D02*
X120857142Y-113925238D01*
X120857142Y-113925238D02*
X120761904Y-114020476D01*
X120761904Y-114020476D02*
X120714285Y-114115714D01*
X120714285Y-114115714D02*
X120666666Y-114306190D01*
X120666666Y-114306190D02*
X120666666Y-114449047D01*
X120666666Y-114449047D02*
X120714285Y-114639523D01*
X120714285Y-114639523D02*
X120761904Y-114734761D01*
X120761904Y-114734761D02*
X120857142Y-114830000D01*
X120857142Y-114830000D02*
X120999999Y-114877619D01*
X120999999Y-114877619D02*
X121238094Y-114877619D01*
D12*
X141142857Y-99755238D02*
X140761904Y-99755238D01*
X140761904Y-99755238D02*
X140571428Y-99850476D01*
X140571428Y-99850476D02*
X140380952Y-100040952D01*
X140380952Y-100040952D02*
X140285714Y-100421904D01*
X140285714Y-100421904D02*
X140285714Y-101088571D01*
X140285714Y-101088571D02*
X140380952Y-101469523D01*
X140380952Y-101469523D02*
X140571428Y-101660000D01*
X140571428Y-101660000D02*
X140761904Y-101755238D01*
X140761904Y-101755238D02*
X141142857Y-101755238D01*
X141142857Y-101755238D02*
X141333333Y-101660000D01*
X141333333Y-101660000D02*
X141523809Y-101469523D01*
X141523809Y-101469523D02*
X141619047Y-101088571D01*
X141619047Y-101088571D02*
X141619047Y-100421904D01*
X141619047Y-100421904D02*
X141523809Y-100040952D01*
X141523809Y-100040952D02*
X141333333Y-99850476D01*
X141333333Y-99850476D02*
X141142857Y-99755238D01*
X139428571Y-100421904D02*
X139428571Y-102421904D01*
X139428571Y-100517142D02*
X139238095Y-100421904D01*
X139238095Y-100421904D02*
X138857142Y-100421904D01*
X138857142Y-100421904D02*
X138666666Y-100517142D01*
X138666666Y-100517142D02*
X138571428Y-100612380D01*
X138571428Y-100612380D02*
X138476190Y-100802857D01*
X138476190Y-100802857D02*
X138476190Y-101374285D01*
X138476190Y-101374285D02*
X138571428Y-101564761D01*
X138571428Y-101564761D02*
X138666666Y-101660000D01*
X138666666Y-101660000D02*
X138857142Y-101755238D01*
X138857142Y-101755238D02*
X139238095Y-101755238D01*
X139238095Y-101755238D02*
X139428571Y-101660000D01*
X136857142Y-101660000D02*
X137047618Y-101755238D01*
X137047618Y-101755238D02*
X137428571Y-101755238D01*
X137428571Y-101755238D02*
X137619047Y-101660000D01*
X137619047Y-101660000D02*
X137714285Y-101469523D01*
X137714285Y-101469523D02*
X137714285Y-100707619D01*
X137714285Y-100707619D02*
X137619047Y-100517142D01*
X137619047Y-100517142D02*
X137428571Y-100421904D01*
X137428571Y-100421904D02*
X137047618Y-100421904D01*
X137047618Y-100421904D02*
X136857142Y-100517142D01*
X136857142Y-100517142D02*
X136761904Y-100707619D01*
X136761904Y-100707619D02*
X136761904Y-100898095D01*
X136761904Y-100898095D02*
X137714285Y-101088571D01*
X135904761Y-100421904D02*
X135904761Y-101755238D01*
X135904761Y-100612380D02*
X135809523Y-100517142D01*
X135809523Y-100517142D02*
X135619047Y-100421904D01*
X135619047Y-100421904D02*
X135333332Y-100421904D01*
X135333332Y-100421904D02*
X135142856Y-100517142D01*
X135142856Y-100517142D02*
X135047618Y-100707619D01*
X135047618Y-100707619D02*
X135047618Y-101755238D01*
X134190475Y-101660000D02*
X133904761Y-101755238D01*
X133904761Y-101755238D02*
X133428570Y-101755238D01*
X133428570Y-101755238D02*
X133238094Y-101660000D01*
X133238094Y-101660000D02*
X133142856Y-101564761D01*
X133142856Y-101564761D02*
X133047618Y-101374285D01*
X133047618Y-101374285D02*
X133047618Y-101183809D01*
X133047618Y-101183809D02*
X133142856Y-100993333D01*
X133142856Y-100993333D02*
X133238094Y-100898095D01*
X133238094Y-100898095D02*
X133428570Y-100802857D01*
X133428570Y-100802857D02*
X133809523Y-100707619D01*
X133809523Y-100707619D02*
X133999999Y-100612380D01*
X133999999Y-100612380D02*
X134095237Y-100517142D01*
X134095237Y-100517142D02*
X134190475Y-100326666D01*
X134190475Y-100326666D02*
X134190475Y-100136190D01*
X134190475Y-100136190D02*
X134095237Y-99945714D01*
X134095237Y-99945714D02*
X133999999Y-99850476D01*
X133999999Y-99850476D02*
X133809523Y-99755238D01*
X133809523Y-99755238D02*
X133333332Y-99755238D01*
X133333332Y-99755238D02*
X133047618Y-99850476D01*
X132190475Y-101755238D02*
X132190475Y-99755238D01*
X132190475Y-99755238D02*
X131428570Y-99755238D01*
X131428570Y-99755238D02*
X131238094Y-99850476D01*
X131238094Y-99850476D02*
X131142856Y-99945714D01*
X131142856Y-99945714D02*
X131047618Y-100136190D01*
X131047618Y-100136190D02*
X131047618Y-100421904D01*
X131047618Y-100421904D02*
X131142856Y-100612380D01*
X131142856Y-100612380D02*
X131238094Y-100707619D01*
X131238094Y-100707619D02*
X131428570Y-100802857D01*
X131428570Y-100802857D02*
X132190475Y-100802857D01*
X130190475Y-101755238D02*
X130190475Y-99755238D01*
X130190475Y-99755238D02*
X129714285Y-99755238D01*
X129714285Y-99755238D02*
X129428570Y-99850476D01*
X129428570Y-99850476D02*
X129238094Y-100040952D01*
X129238094Y-100040952D02*
X129142856Y-100231428D01*
X129142856Y-100231428D02*
X129047618Y-100612380D01*
X129047618Y-100612380D02*
X129047618Y-100898095D01*
X129047618Y-100898095D02*
X129142856Y-101279047D01*
X129142856Y-101279047D02*
X129238094Y-101469523D01*
X129238094Y-101469523D02*
X129428570Y-101660000D01*
X129428570Y-101660000D02*
X129714285Y-101755238D01*
X129714285Y-101755238D02*
X130190475Y-101755238D01*
X126857141Y-100421904D02*
X126380951Y-101755238D01*
X126380951Y-101755238D02*
X125904760Y-100421904D01*
X124095236Y-101755238D02*
X125238093Y-101755238D01*
X124666665Y-101755238D02*
X124666665Y-99755238D01*
X124666665Y-99755238D02*
X124857141Y-100040952D01*
X124857141Y-100040952D02*
X125047617Y-100231428D01*
X125047617Y-100231428D02*
X125238093Y-100326666D01*
X123238093Y-101564761D02*
X123142855Y-101660000D01*
X123142855Y-101660000D02*
X123238093Y-101755238D01*
X123238093Y-101755238D02*
X123333331Y-101660000D01*
X123333331Y-101660000D02*
X123238093Y-101564761D01*
X123238093Y-101564761D02*
X123238093Y-101755238D01*
X121904760Y-99755238D02*
X121714283Y-99755238D01*
X121714283Y-99755238D02*
X121523807Y-99850476D01*
X121523807Y-99850476D02*
X121428569Y-99945714D01*
X121428569Y-99945714D02*
X121333331Y-100136190D01*
X121333331Y-100136190D02*
X121238093Y-100517142D01*
X121238093Y-100517142D02*
X121238093Y-100993333D01*
X121238093Y-100993333D02*
X121333331Y-101374285D01*
X121333331Y-101374285D02*
X121428569Y-101564761D01*
X121428569Y-101564761D02*
X121523807Y-101660000D01*
X121523807Y-101660000D02*
X121714283Y-101755238D01*
X121714283Y-101755238D02*
X121904760Y-101755238D01*
X121904760Y-101755238D02*
X122095236Y-101660000D01*
X122095236Y-101660000D02*
X122190474Y-101564761D01*
X122190474Y-101564761D02*
X122285712Y-101374285D01*
X122285712Y-101374285D02*
X122380950Y-100993333D01*
X122380950Y-100993333D02*
X122380950Y-100517142D01*
X122380950Y-100517142D02*
X122285712Y-100136190D01*
X122285712Y-100136190D02*
X122190474Y-99945714D01*
X122190474Y-99945714D02*
X122095236Y-99850476D01*
X122095236Y-99850476D02*
X121904760Y-99755238D01*
D11*
G36*
X121899874Y-108330863D02*
G01*
X121978715Y-108330863D01*
X121982215Y-108352627D01*
X121985822Y-108373890D01*
X121989581Y-108394640D01*
X121993540Y-108414866D01*
X121997744Y-108434553D01*
X122002241Y-108453690D01*
X122007077Y-108472265D01*
X122012297Y-108490264D01*
X122017949Y-108507675D01*
X122024079Y-108524487D01*
X122030733Y-108540685D01*
X122037958Y-108556258D01*
X122045800Y-108571194D01*
X122054306Y-108585479D01*
X122063522Y-108599101D01*
X122073494Y-108612048D01*
X122084269Y-108624307D01*
X122095893Y-108635866D01*
X122108413Y-108646712D01*
X122121875Y-108656833D01*
X122136326Y-108666216D01*
X122151811Y-108674849D01*
X122168378Y-108682719D01*
X122186073Y-108689813D01*
X122204942Y-108696120D01*
X122225031Y-108701627D01*
X122246388Y-108706320D01*
X122269058Y-108710188D01*
X122293088Y-108713219D01*
X122318525Y-108715399D01*
X122345414Y-108716716D01*
X122373802Y-108717158D01*
X122629085Y-108717158D01*
X122629085Y-108237367D01*
X122536761Y-108237367D01*
X122522042Y-108237581D01*
X122508147Y-108238221D01*
X122495053Y-108239282D01*
X122482738Y-108240761D01*
X122460348Y-108244958D01*
X122440788Y-108250781D01*
X122423871Y-108258199D01*
X122409409Y-108267182D01*
X122397215Y-108277699D01*
X122387102Y-108289721D01*
X122378880Y-108303216D01*
X122372364Y-108318153D01*
X122367365Y-108334504D01*
X122363695Y-108352236D01*
X122361168Y-108371320D01*
X122359595Y-108391725D01*
X122358789Y-108413421D01*
X122358562Y-108436376D01*
X122279427Y-108436376D01*
X122279427Y-107963620D01*
X122358562Y-107963620D01*
X122358773Y-107986091D01*
X122359535Y-108007325D01*
X122361042Y-108027291D01*
X122363489Y-108045960D01*
X122367070Y-108063304D01*
X122371978Y-108079293D01*
X122378407Y-108093897D01*
X122386552Y-108107088D01*
X122396607Y-108118837D01*
X122408765Y-108129113D01*
X122423221Y-108137889D01*
X122440169Y-108145135D01*
X122459803Y-108150821D01*
X122482317Y-108154919D01*
X122494715Y-108156363D01*
X122507905Y-108157399D01*
X122521913Y-108158024D01*
X122536761Y-108158233D01*
X122629085Y-108158233D01*
X122629085Y-107730905D01*
X122373802Y-107730905D01*
X122349099Y-107731264D01*
X122325686Y-107732334D01*
X122303526Y-107734109D01*
X122282580Y-107736580D01*
X122262808Y-107739740D01*
X122244174Y-107743581D01*
X122226638Y-107748096D01*
X122210161Y-107753276D01*
X122194706Y-107759115D01*
X122180234Y-107765604D01*
X122166707Y-107772736D01*
X122154085Y-107780504D01*
X122142331Y-107788898D01*
X122131406Y-107797913D01*
X122121271Y-107807539D01*
X122111889Y-107817770D01*
X122103220Y-107828598D01*
X122095226Y-107840015D01*
X122087868Y-107852013D01*
X122081109Y-107864585D01*
X122074909Y-107877723D01*
X122069231Y-107891420D01*
X122064035Y-107905667D01*
X122059283Y-107920458D01*
X122054937Y-107935783D01*
X122050959Y-107951637D01*
X122047309Y-107968010D01*
X122043949Y-107984896D01*
X122040841Y-108002286D01*
X122037947Y-108020174D01*
X122035227Y-108038551D01*
X122032644Y-108057409D01*
X121953509Y-108057409D01*
X122005680Y-107651771D01*
X123049085Y-107651771D01*
X123049085Y-107730905D01*
X122867662Y-107730905D01*
X122867662Y-108717158D01*
X123049085Y-108717158D01*
X123049085Y-108796000D01*
X121977250Y-108796000D01*
X121899874Y-108330863D01*
G37*
G36*
X120573049Y-108072650D02*
G01*
X120608220Y-107670528D01*
X121738966Y-107670528D01*
X121774431Y-108072650D01*
X121695296Y-108072650D01*
X121693882Y-108055168D01*
X121692415Y-108038014D01*
X121690854Y-108021202D01*
X121689159Y-108004748D01*
X121687289Y-107988665D01*
X121685203Y-107972970D01*
X121682860Y-107957677D01*
X121680220Y-107942801D01*
X121677241Y-107928357D01*
X121673884Y-107914360D01*
X121670106Y-107900824D01*
X121665868Y-107887765D01*
X121661128Y-107875198D01*
X121655846Y-107863137D01*
X121649981Y-107851598D01*
X121643492Y-107840595D01*
X121636338Y-107830143D01*
X121628480Y-107820257D01*
X121619875Y-107810953D01*
X121610483Y-107802244D01*
X121600263Y-107794147D01*
X121589174Y-107786675D01*
X121577177Y-107779844D01*
X121564229Y-107773669D01*
X121550290Y-107768165D01*
X121535320Y-107763346D01*
X121519277Y-107759227D01*
X121502121Y-107755824D01*
X121483811Y-107753151D01*
X121464306Y-107751223D01*
X121443565Y-107750056D01*
X121421548Y-107749663D01*
X121292295Y-107749663D01*
X121292295Y-108717158D01*
X121549336Y-108717158D01*
X121549336Y-108796000D01*
X121531225Y-108795122D01*
X121511143Y-108794355D01*
X121489357Y-108793689D01*
X121466135Y-108793119D01*
X121454069Y-108792867D01*
X121441745Y-108792636D01*
X121429196Y-108792425D01*
X121416456Y-108792233D01*
X121403558Y-108792060D01*
X121390535Y-108791904D01*
X121377421Y-108791764D01*
X121364249Y-108791640D01*
X121351054Y-108791530D01*
X121337867Y-108791434D01*
X121324724Y-108791351D01*
X121311658Y-108791280D01*
X121298701Y-108791219D01*
X121285887Y-108791169D01*
X121273251Y-108791128D01*
X121260824Y-108791095D01*
X121248642Y-108791069D01*
X121236737Y-108791050D01*
X121213893Y-108791027D01*
X121192561Y-108791018D01*
X121173007Y-108791017D01*
X121153402Y-108791018D01*
X121132024Y-108791027D01*
X121109141Y-108791050D01*
X121097218Y-108791069D01*
X121085020Y-108791095D01*
X121072579Y-108791128D01*
X121059929Y-108791169D01*
X121047103Y-108791219D01*
X121034135Y-108791280D01*
X121021058Y-108791351D01*
X121007906Y-108791434D01*
X120994711Y-108791530D01*
X120981508Y-108791640D01*
X120968330Y-108791764D01*
X120955211Y-108791904D01*
X120942183Y-108792060D01*
X120929280Y-108792233D01*
X120916536Y-108792425D01*
X120903984Y-108792636D01*
X120891658Y-108792867D01*
X120879590Y-108793119D01*
X120867815Y-108793393D01*
X120845276Y-108794010D01*
X120824307Y-108794725D01*
X120805177Y-108795547D01*
X120796384Y-108796000D01*
X120796384Y-108717158D01*
X121053719Y-108717158D01*
X121053719Y-107749663D01*
X120925931Y-107749663D01*
X120904048Y-107750051D01*
X120883434Y-107751207D01*
X120864049Y-107753116D01*
X120845851Y-107755764D01*
X120828799Y-107759136D01*
X120812852Y-107763220D01*
X120797970Y-107768000D01*
X120784111Y-107773463D01*
X120771235Y-107779594D01*
X120759300Y-107786380D01*
X120748265Y-107793806D01*
X120738089Y-107801858D01*
X120728732Y-107810522D01*
X120720152Y-107819784D01*
X120712308Y-107829630D01*
X120705160Y-107840045D01*
X120698666Y-107851016D01*
X120692785Y-107862529D01*
X120687477Y-107874568D01*
X120682699Y-107887121D01*
X120678413Y-107900173D01*
X120674575Y-107913710D01*
X120671146Y-107927718D01*
X120668084Y-107942183D01*
X120665348Y-107957090D01*
X120662898Y-107972426D01*
X120660692Y-107988176D01*
X120658689Y-108004327D01*
X120656848Y-108020864D01*
X120655129Y-108037773D01*
X120653490Y-108055039D01*
X120651890Y-108072650D01*
X120573049Y-108072650D01*
G37*
G36*
X119056594Y-108796000D02*
G01*
X119056594Y-108717158D01*
X119238017Y-108717158D01*
X119238017Y-107730905D01*
X119056594Y-107730905D01*
X119056594Y-107651771D01*
X119069657Y-107652699D01*
X119084806Y-107653512D01*
X119101759Y-107654217D01*
X119120231Y-107654821D01*
X119139940Y-107655332D01*
X119160602Y-107655758D01*
X119181934Y-107656107D01*
X119203652Y-107656387D01*
X119225474Y-107656604D01*
X119247115Y-107656768D01*
X119268292Y-107656885D01*
X119288722Y-107656964D01*
X119308122Y-107657011D01*
X119326208Y-107657036D01*
X119342697Y-107657045D01*
X119357306Y-107657046D01*
X119371863Y-107657045D01*
X119388307Y-107657036D01*
X119406355Y-107657011D01*
X119425724Y-107656964D01*
X119446130Y-107656885D01*
X119467290Y-107656768D01*
X119488921Y-107656604D01*
X119510739Y-107656387D01*
X119532461Y-107656107D01*
X119553803Y-107655758D01*
X119574482Y-107655332D01*
X119594215Y-107654821D01*
X119612718Y-107654217D01*
X119629709Y-107653512D01*
X119644903Y-107652699D01*
X119658017Y-107651771D01*
X119658017Y-107730905D01*
X119476594Y-107730905D01*
X119476594Y-108158233D01*
X120015882Y-108158233D01*
X120015882Y-107730905D01*
X119834458Y-107730905D01*
X119834458Y-107651771D01*
X119847570Y-107652699D01*
X119862755Y-107653512D01*
X119879732Y-107654217D01*
X119898220Y-107654821D01*
X119917935Y-107655332D01*
X119938596Y-107655758D01*
X119959921Y-107656107D01*
X119981627Y-107656387D01*
X120003433Y-107656604D01*
X120025057Y-107656768D01*
X120046216Y-107656885D01*
X120066628Y-107656964D01*
X120086012Y-107657011D01*
X120104085Y-107657036D01*
X120120565Y-107657045D01*
X120135170Y-107657046D01*
X120149727Y-107657045D01*
X120166172Y-107657036D01*
X120184220Y-107657011D01*
X120203589Y-107656964D01*
X120223995Y-107656885D01*
X120245155Y-107656768D01*
X120266786Y-107656604D01*
X120288604Y-107656387D01*
X120310325Y-107656107D01*
X120331667Y-107655758D01*
X120352347Y-107655332D01*
X120372080Y-107654821D01*
X120390583Y-107654217D01*
X120407574Y-107653512D01*
X120422768Y-107652699D01*
X120435882Y-107651771D01*
X120435882Y-107730905D01*
X120254458Y-107730905D01*
X120254458Y-108717158D01*
X120435882Y-108717158D01*
X120435882Y-108796000D01*
X120422768Y-108795122D01*
X120407574Y-108794355D01*
X120390583Y-108793689D01*
X120372080Y-108793119D01*
X120352347Y-108792636D01*
X120331667Y-108792233D01*
X120310325Y-108791904D01*
X120288604Y-108791640D01*
X120266786Y-108791434D01*
X120245155Y-108791280D01*
X120223995Y-108791169D01*
X120203589Y-108791095D01*
X120184220Y-108791050D01*
X120166172Y-108791027D01*
X120149727Y-108791018D01*
X120135170Y-108791017D01*
X120120565Y-108791018D01*
X120104085Y-108791027D01*
X120086012Y-108791050D01*
X120066628Y-108791095D01*
X120046216Y-108791169D01*
X120025057Y-108791280D01*
X120003433Y-108791434D01*
X119981627Y-108791640D01*
X119959921Y-108791904D01*
X119938596Y-108792233D01*
X119917935Y-108792636D01*
X119898220Y-108793119D01*
X119879732Y-108793689D01*
X119862755Y-108794355D01*
X119847570Y-108795122D01*
X119834458Y-108796000D01*
X119834458Y-108717158D01*
X120015882Y-108717158D01*
X120015882Y-108237367D01*
X119476594Y-108237367D01*
X119476594Y-108717158D01*
X119658017Y-108717158D01*
X119658017Y-108796000D01*
X119644903Y-108795122D01*
X119629709Y-108794355D01*
X119612718Y-108793689D01*
X119594215Y-108793119D01*
X119574482Y-108792636D01*
X119553803Y-108792233D01*
X119532461Y-108791904D01*
X119510739Y-108791640D01*
X119488921Y-108791434D01*
X119467290Y-108791280D01*
X119446130Y-108791169D01*
X119425724Y-108791095D01*
X119406355Y-108791050D01*
X119388307Y-108791027D01*
X119371863Y-108791018D01*
X119357306Y-108791017D01*
X119342697Y-108791018D01*
X119326208Y-108791027D01*
X119308122Y-108791050D01*
X119288722Y-108791095D01*
X119268292Y-108791169D01*
X119247115Y-108791280D01*
X119225474Y-108791434D01*
X119203652Y-108791640D01*
X119181934Y-108791904D01*
X119160602Y-108792233D01*
X119139940Y-108792636D01*
X119120231Y-108793119D01*
X119101759Y-108793689D01*
X119084806Y-108794355D01*
X119069657Y-108795122D01*
X119056594Y-108796000D01*
G37*
G36*
X117264047Y-108322364D02*
G01*
X117343181Y-108322364D01*
X117344458Y-108339748D01*
X117345854Y-108357199D01*
X117347425Y-108374675D01*
X117349228Y-108392136D01*
X117351320Y-108409542D01*
X117353757Y-108426851D01*
X117356597Y-108444023D01*
X117359897Y-108461019D01*
X117363712Y-108477797D01*
X117368101Y-108494316D01*
X117373119Y-108510537D01*
X117378823Y-108526419D01*
X117385270Y-108541921D01*
X117392518Y-108557003D01*
X117400622Y-108571623D01*
X117409640Y-108585743D01*
X117419628Y-108599321D01*
X117430643Y-108612316D01*
X117442742Y-108624689D01*
X117455982Y-108636398D01*
X117470419Y-108647403D01*
X117486110Y-108657664D01*
X117503112Y-108667140D01*
X117521482Y-108675791D01*
X117541276Y-108683575D01*
X117562552Y-108690453D01*
X117585366Y-108696385D01*
X117609774Y-108701328D01*
X117635835Y-108705244D01*
X117663603Y-108708091D01*
X117693137Y-108709829D01*
X117724493Y-108710417D01*
X117959553Y-108710417D01*
X117289253Y-107734422D01*
X117282199Y-107723433D01*
X117277159Y-107712552D01*
X117275797Y-107700186D01*
X117275770Y-107693976D01*
X117276633Y-107680045D01*
X117280120Y-107667442D01*
X117287791Y-107658099D01*
X117299213Y-107653485D01*
X117311553Y-107652049D01*
X117326424Y-107651772D01*
X117329699Y-107651771D01*
X118193147Y-107651771D01*
X118213370Y-108054185D01*
X118134235Y-108054185D01*
X118132707Y-108033763D01*
X118130592Y-108014040D01*
X118127887Y-107995012D01*
X118124586Y-107976677D01*
X118120686Y-107959031D01*
X118116183Y-107942071D01*
X118111071Y-107925793D01*
X118105347Y-107910195D01*
X118099007Y-107895272D01*
X118092046Y-107881021D01*
X118084460Y-107867440D01*
X118076244Y-107854525D01*
X118067395Y-107842272D01*
X118057908Y-107830678D01*
X118047778Y-107819739D01*
X118037002Y-107809454D01*
X118025575Y-107799817D01*
X118013493Y-107790827D01*
X118000751Y-107782478D01*
X117987346Y-107774769D01*
X117973273Y-107767696D01*
X117958527Y-107761256D01*
X117943104Y-107755444D01*
X117927001Y-107750258D01*
X117910213Y-107745695D01*
X117892735Y-107741752D01*
X117874563Y-107738424D01*
X117855693Y-107735708D01*
X117836121Y-107733602D01*
X117815842Y-107732102D01*
X117794852Y-107731204D01*
X117773147Y-107730905D01*
X117554793Y-107730905D01*
X118226852Y-108708658D01*
X118233103Y-108718616D01*
X118238313Y-108730009D01*
X118240193Y-108741846D01*
X118240334Y-108752329D01*
X118239532Y-108766744D01*
X118236235Y-108779784D01*
X118228827Y-108789452D01*
X118217543Y-108794226D01*
X118205096Y-108795712D01*
X118193097Y-108795989D01*
X118186405Y-108796000D01*
X117294235Y-108796000D01*
X117264047Y-108322364D01*
G37*
G36*
X116133886Y-108804792D02*
G01*
X116133886Y-108725951D01*
X116152336Y-108725935D01*
X116168746Y-108725822D01*
X116183234Y-108725516D01*
X116195916Y-108724920D01*
X116211811Y-108723272D01*
X116224303Y-108720428D01*
X116236350Y-108714214D01*
X116243988Y-108704522D01*
X116248156Y-108690579D01*
X116249568Y-108676868D01*
X116249950Y-108660005D01*
X116249950Y-108045685D01*
X116557403Y-108059168D01*
X116557403Y-108138302D01*
X116538905Y-108138318D01*
X116522459Y-108138431D01*
X116507947Y-108138737D01*
X116495250Y-108139333D01*
X116479348Y-108140981D01*
X116466865Y-108143825D01*
X116454845Y-108150039D01*
X116447242Y-108159731D01*
X116443109Y-108173674D01*
X116441715Y-108187385D01*
X116441339Y-108204248D01*
X116441339Y-108526648D01*
X116441588Y-108539473D01*
X116442330Y-108552004D01*
X116443556Y-108564232D01*
X116445256Y-108576152D01*
X116447423Y-108587756D01*
X116453119Y-108609984D01*
X116460572Y-108630857D01*
X116469713Y-108650317D01*
X116480470Y-108668303D01*
X116492773Y-108684758D01*
X116506549Y-108699620D01*
X116521730Y-108712832D01*
X116538244Y-108724334D01*
X116556019Y-108734067D01*
X116574986Y-108741971D01*
X116595073Y-108747987D01*
X116616209Y-108752057D01*
X116638325Y-108754120D01*
X116649727Y-108754381D01*
X116661485Y-108754258D01*
X116682908Y-108753269D01*
X116701687Y-108751283D01*
X116717995Y-108748287D01*
X116732005Y-108744272D01*
X116743892Y-108739225D01*
X116758122Y-108729700D01*
X116768553Y-108717796D01*
X116775771Y-108703476D01*
X116780363Y-108686704D01*
X116782256Y-108674143D01*
X116783417Y-108660466D01*
X116784019Y-108645661D01*
X116784237Y-108629718D01*
X116784256Y-108621317D01*
X116784256Y-108045685D01*
X117091709Y-108059168D01*
X117091709Y-108138302D01*
X117073211Y-108138318D01*
X117056765Y-108138431D01*
X117042252Y-108138737D01*
X117029555Y-108139333D01*
X117013654Y-108140981D01*
X117001170Y-108143825D01*
X116989151Y-108150039D01*
X116981548Y-108159731D01*
X116977414Y-108173674D01*
X116976021Y-108187385D01*
X116975645Y-108204248D01*
X116975645Y-108597577D01*
X116975250Y-108614059D01*
X116974077Y-108629720D01*
X116972146Y-108644581D01*
X116969476Y-108658660D01*
X116966087Y-108671978D01*
X116961997Y-108684553D01*
X116957227Y-108696406D01*
X116951794Y-108707555D01*
X116945720Y-108718020D01*
X116939023Y-108727820D01*
X116923836Y-108745506D01*
X116906390Y-108760768D01*
X116886838Y-108773761D01*
X116876321Y-108779456D01*
X116865335Y-108784642D01*
X116853901Y-108789340D01*
X116842036Y-108793567D01*
X116829761Y-108797345D01*
X116817095Y-108800691D01*
X116804058Y-108803627D01*
X116790667Y-108806171D01*
X116776944Y-108808342D01*
X116762907Y-108810161D01*
X116748575Y-108811647D01*
X116733968Y-108812818D01*
X116719105Y-108813696D01*
X116704006Y-108814299D01*
X116688689Y-108814646D01*
X116673174Y-108814757D01*
X116658952Y-108814649D01*
X116641249Y-108813894D01*
X116627809Y-108812710D01*
X116613267Y-108810759D01*
X116597801Y-108807849D01*
X116581587Y-108803786D01*
X116564804Y-108798381D01*
X116547629Y-108791440D01*
X116530241Y-108782772D01*
X116512816Y-108772185D01*
X116495534Y-108759487D01*
X116478570Y-108744486D01*
X116470264Y-108736061D01*
X116462104Y-108726990D01*
X116454113Y-108717246D01*
X116446313Y-108706807D01*
X116438726Y-108695648D01*
X116431374Y-108683745D01*
X116431374Y-108814757D01*
X116133886Y-108804792D01*
G37*
G36*
X116728569Y-107778093D02*
G01*
X116729171Y-107766002D01*
X116730939Y-107754278D01*
X116735653Y-107737502D01*
X116742672Y-107721872D01*
X116751805Y-107707580D01*
X116762860Y-107694818D01*
X116775647Y-107683780D01*
X116789973Y-107674658D01*
X116805647Y-107667645D01*
X116822479Y-107662933D01*
X116834249Y-107661165D01*
X116846391Y-107660563D01*
X116858482Y-107661165D01*
X116870207Y-107662933D01*
X116886982Y-107667645D01*
X116902612Y-107674658D01*
X116916904Y-107683780D01*
X116929666Y-107694818D01*
X116940704Y-107707580D01*
X116949826Y-107721872D01*
X116956840Y-107737502D01*
X116961552Y-107754278D01*
X116963319Y-107766002D01*
X116963921Y-107778093D01*
X116963319Y-107789942D01*
X116960249Y-107807126D01*
X116954748Y-107823412D01*
X116947011Y-107838585D01*
X116937228Y-107852431D01*
X116925594Y-107864735D01*
X116912301Y-107875283D01*
X116897541Y-107883860D01*
X116881508Y-107890252D01*
X116864394Y-107894244D01*
X116852479Y-107895467D01*
X116846391Y-107895623D01*
X116834249Y-107895005D01*
X116822479Y-107893193D01*
X116805647Y-107888377D01*
X116789973Y-107881233D01*
X116775647Y-107871975D01*
X116762860Y-107860818D01*
X116751805Y-107847976D01*
X116742672Y-107833664D01*
X116735653Y-107818097D01*
X116730939Y-107801488D01*
X116728720Y-107784052D01*
X116728569Y-107778093D01*
G37*
G36*
X116296845Y-107778093D02*
G01*
X116297447Y-107766002D01*
X116299214Y-107754278D01*
X116303926Y-107737502D01*
X116310940Y-107721872D01*
X116320062Y-107707580D01*
X116331100Y-107694818D01*
X116343862Y-107683780D01*
X116358154Y-107674658D01*
X116373784Y-107667645D01*
X116390559Y-107662933D01*
X116402284Y-107661165D01*
X116414375Y-107660563D01*
X116426517Y-107661165D01*
X116438287Y-107662933D01*
X116455119Y-107667645D01*
X116470793Y-107674658D01*
X116485119Y-107683780D01*
X116497906Y-107694818D01*
X116508961Y-107707580D01*
X116518094Y-107721872D01*
X116525113Y-107737502D01*
X116529828Y-107754278D01*
X116531596Y-107766002D01*
X116532197Y-107778093D01*
X116531596Y-107789942D01*
X116528524Y-107807126D01*
X116523020Y-107823412D01*
X116515275Y-107838585D01*
X116505480Y-107852431D01*
X116493827Y-107864735D01*
X116480506Y-107875283D01*
X116465709Y-107883860D01*
X116449627Y-107890252D01*
X116432452Y-107894244D01*
X116420489Y-107895467D01*
X116414375Y-107895623D01*
X116402284Y-107895005D01*
X116390559Y-107893193D01*
X116373784Y-107888377D01*
X116358154Y-107881233D01*
X116343862Y-107871975D01*
X116331100Y-107860818D01*
X116320062Y-107847976D01*
X116310940Y-107833664D01*
X116303926Y-107818097D01*
X116299214Y-107801488D01*
X116296997Y-107784052D01*
X116296845Y-107778093D01*
G37*
G36*
X115351918Y-108183732D02*
G01*
X115352957Y-108167498D01*
X115355980Y-108152218D01*
X115360852Y-108137906D01*
X115367434Y-108124573D01*
X115375589Y-108112233D01*
X115385180Y-108100898D01*
X115396069Y-108090581D01*
X115408119Y-108081296D01*
X115421192Y-108073055D01*
X115435152Y-108065871D01*
X115449860Y-108059757D01*
X115465180Y-108054726D01*
X115480974Y-108050790D01*
X115497104Y-108047963D01*
X115513433Y-108046257D01*
X115529825Y-108045685D01*
X115551328Y-108046656D01*
X115571675Y-108049507D01*
X115590899Y-108054146D01*
X115609033Y-108060482D01*
X115626108Y-108068424D01*
X115642159Y-108077880D01*
X115657217Y-108088759D01*
X115671315Y-108100970D01*
X115684485Y-108114420D01*
X115696761Y-108129019D01*
X115708175Y-108144675D01*
X115718759Y-108161296D01*
X115728546Y-108178792D01*
X115737569Y-108197070D01*
X115745861Y-108216039D01*
X115753454Y-108235609D01*
X115753454Y-108045685D01*
X116032184Y-108060633D01*
X116032184Y-108139475D01*
X116013737Y-108139491D01*
X115997336Y-108139601D01*
X115982863Y-108139902D01*
X115970199Y-108140487D01*
X115954339Y-108142106D01*
X115941886Y-108144899D01*
X115929894Y-108151003D01*
X115922307Y-108160523D01*
X115918180Y-108174218D01*
X115916788Y-108187685D01*
X115916412Y-108204248D01*
X115916412Y-108717158D01*
X116032184Y-108717158D01*
X116032184Y-108796000D01*
X115820572Y-108791017D01*
X115808102Y-108791018D01*
X115794742Y-108791027D01*
X115780624Y-108791050D01*
X115765882Y-108791095D01*
X115750650Y-108791169D01*
X115735059Y-108791280D01*
X115719243Y-108791434D01*
X115703335Y-108791640D01*
X115687468Y-108791904D01*
X115671776Y-108792233D01*
X115656391Y-108792636D01*
X115641447Y-108793119D01*
X115627076Y-108793689D01*
X115613412Y-108794355D01*
X115600588Y-108795122D01*
X115588736Y-108796000D01*
X115588736Y-108717158D01*
X115734989Y-108717158D01*
X115734989Y-108426704D01*
X115734474Y-108403996D01*
X115733807Y-108392012D01*
X115732847Y-108379679D01*
X115731579Y-108367050D01*
X115729987Y-108354177D01*
X115728056Y-108341114D01*
X115725770Y-108327914D01*
X115723115Y-108314630D01*
X115720075Y-108301315D01*
X115716634Y-108288021D01*
X115712779Y-108274803D01*
X115708492Y-108261712D01*
X115703759Y-108248803D01*
X115698565Y-108236127D01*
X115692894Y-108223739D01*
X115686731Y-108211690D01*
X115680060Y-108200034D01*
X115672867Y-108188825D01*
X115665136Y-108178115D01*
X115656852Y-108167957D01*
X115648000Y-108158403D01*
X115638563Y-108149509D01*
X115628528Y-108141325D01*
X115617878Y-108133905D01*
X115606599Y-108127303D01*
X115594674Y-108121571D01*
X115582090Y-108116762D01*
X115568829Y-108112930D01*
X115554878Y-108110127D01*
X115540221Y-108108406D01*
X115524842Y-108107821D01*
X115533572Y-108117554D01*
X115540816Y-108128081D01*
X115546681Y-108139062D01*
X115551798Y-108152210D01*
X115555417Y-108167427D01*
X115556698Y-108180136D01*
X115556789Y-108184611D01*
X115556175Y-108196952D01*
X115553083Y-108213937D01*
X115547644Y-108229097D01*
X115540145Y-108242440D01*
X115530875Y-108253977D01*
X115520122Y-108263715D01*
X115508174Y-108271662D01*
X115495321Y-108277829D01*
X115481850Y-108282223D01*
X115468049Y-108284853D01*
X115454207Y-108285727D01*
X115440440Y-108284811D01*
X115426701Y-108282072D01*
X115413278Y-108277529D01*
X115400462Y-108271199D01*
X115388542Y-108263099D01*
X115377808Y-108253247D01*
X115368551Y-108241659D01*
X115361059Y-108228355D01*
X115355623Y-108213350D01*
X115352533Y-108196662D01*
X115351918Y-108184611D01*
X115351918Y-108183732D01*
G37*
G36*
X114817906Y-108796000D02*
G01*
X114817906Y-108717158D01*
X114921953Y-108717158D01*
X114921953Y-108045685D01*
X115214458Y-108060633D01*
X115214458Y-108139475D01*
X115196889Y-108139491D01*
X115181256Y-108139601D01*
X115167448Y-108139902D01*
X115155355Y-108140487D01*
X115140188Y-108142106D01*
X115128257Y-108144899D01*
X115116734Y-108151003D01*
X115109412Y-108160523D01*
X115105405Y-108174218D01*
X115104041Y-108187685D01*
X115103670Y-108204248D01*
X115103670Y-108717158D01*
X115219441Y-108717158D01*
X115219441Y-108796000D01*
X115014570Y-108791017D01*
X114817906Y-108796000D01*
G37*
G36*
X114898506Y-107783076D02*
G01*
X114899185Y-107769671D01*
X114901178Y-107756649D01*
X114904418Y-107744076D01*
X114908837Y-107732018D01*
X114914370Y-107720543D01*
X114920948Y-107709716D01*
X114928505Y-107699605D01*
X114936974Y-107690275D01*
X114946288Y-107681794D01*
X114956380Y-107674228D01*
X114967183Y-107667643D01*
X114978630Y-107662107D01*
X114990654Y-107657684D01*
X115003188Y-107654443D01*
X115016165Y-107652450D01*
X115029518Y-107651771D01*
X115042919Y-107652450D01*
X115055932Y-107654443D01*
X115068491Y-107657684D01*
X115080529Y-107662107D01*
X115091983Y-107667643D01*
X115102784Y-107674228D01*
X115112869Y-107681794D01*
X115122171Y-107690275D01*
X115130625Y-107699605D01*
X115138165Y-107709716D01*
X115144725Y-107720543D01*
X115150239Y-107732018D01*
X115154643Y-107744076D01*
X115157869Y-107756649D01*
X115159854Y-107769671D01*
X115160530Y-107783076D01*
X115159854Y-107796429D01*
X115157869Y-107809406D01*
X115154643Y-107821940D01*
X115150239Y-107833964D01*
X115144725Y-107845410D01*
X115138165Y-107856213D01*
X115130625Y-107866305D01*
X115122171Y-107875619D01*
X115112869Y-107884088D01*
X115102784Y-107891645D01*
X115091983Y-107898224D01*
X115080529Y-107903756D01*
X115068491Y-107908176D01*
X115055932Y-107911415D01*
X115042919Y-107913408D01*
X115029518Y-107914087D01*
X115016165Y-107913408D01*
X115003188Y-107911415D01*
X114990654Y-107908176D01*
X114978630Y-107903756D01*
X114967183Y-107898224D01*
X114956380Y-107891645D01*
X114946288Y-107884088D01*
X114936974Y-107875619D01*
X114928505Y-107866305D01*
X114920948Y-107856213D01*
X114914370Y-107845410D01*
X114908837Y-107833964D01*
X114904418Y-107821940D01*
X114901178Y-107809406D01*
X114899185Y-107796429D01*
X114898506Y-107783076D01*
G37*
G36*
X113959441Y-108604611D02*
G01*
X113962527Y-108592037D01*
X113971921Y-108584181D01*
X113984807Y-108581112D01*
X113996680Y-108580583D01*
X113999888Y-108580577D01*
X114012090Y-108580875D01*
X114023710Y-108582788D01*
X114033267Y-108590387D01*
X114038811Y-108602361D01*
X114040334Y-108606369D01*
X114048947Y-108625827D01*
X114058379Y-108643575D01*
X114068583Y-108659676D01*
X114079512Y-108674193D01*
X114091120Y-108687188D01*
X114103359Y-108698724D01*
X114116182Y-108708864D01*
X114129544Y-108717671D01*
X114143397Y-108725207D01*
X114157694Y-108731534D01*
X114172389Y-108736716D01*
X114187434Y-108740816D01*
X114202784Y-108743895D01*
X114218390Y-108746017D01*
X114234207Y-108747244D01*
X114250188Y-108747639D01*
X114271410Y-108746910D01*
X114291306Y-108744773D01*
X114309919Y-108741307D01*
X114327292Y-108736591D01*
X114343467Y-108730703D01*
X114358487Y-108723721D01*
X114372395Y-108715724D01*
X114385234Y-108706790D01*
X114397046Y-108696997D01*
X114407875Y-108686424D01*
X114417762Y-108675148D01*
X114426752Y-108663250D01*
X114434886Y-108650806D01*
X114442207Y-108637895D01*
X114448758Y-108624595D01*
X114454582Y-108610986D01*
X114459722Y-108597144D01*
X114464220Y-108583149D01*
X114468120Y-108569079D01*
X114471463Y-108555012D01*
X114474293Y-108541027D01*
X114476653Y-108527201D01*
X114478585Y-108513614D01*
X114480132Y-108500344D01*
X114481336Y-108487468D01*
X114482242Y-108475066D01*
X114482890Y-108463215D01*
X114483589Y-108441483D01*
X114483774Y-108422897D01*
X114483782Y-108414981D01*
X114483729Y-108395441D01*
X114483358Y-108373434D01*
X114482954Y-108361666D01*
X114482352Y-108349474D01*
X114481511Y-108336923D01*
X114480393Y-108324077D01*
X114478956Y-108310999D01*
X114477163Y-108297755D01*
X114474972Y-108284408D01*
X114472344Y-108271024D01*
X114469240Y-108257665D01*
X114465619Y-108244397D01*
X114461443Y-108231284D01*
X114456671Y-108218390D01*
X114451263Y-108205779D01*
X114445180Y-108193516D01*
X114438383Y-108181664D01*
X114430830Y-108170289D01*
X114422484Y-108159455D01*
X114413304Y-108149225D01*
X114403250Y-108139665D01*
X114392282Y-108130838D01*
X114380361Y-108122808D01*
X114367448Y-108115641D01*
X114353502Y-108109400D01*
X114338484Y-108104149D01*
X114322354Y-108099954D01*
X114305072Y-108096877D01*
X114286598Y-108094984D01*
X114266894Y-108094339D01*
X114251177Y-108094466D01*
X114236923Y-108094833D01*
X114224020Y-108095417D01*
X114208722Y-108096491D01*
X114195355Y-108097854D01*
X114183653Y-108099451D01*
X114170956Y-108101691D01*
X114157864Y-108104597D01*
X114167967Y-108114941D01*
X114175820Y-108125750D01*
X114181702Y-108136689D01*
X114186706Y-108150038D01*
X114189607Y-108162420D01*
X114191079Y-108175086D01*
X114191276Y-108181680D01*
X114190607Y-108195040D01*
X114188669Y-108207432D01*
X114185567Y-108218871D01*
X114178963Y-108234274D01*
X114170333Y-108247615D01*
X114160032Y-108258943D01*
X114148415Y-108268307D01*
X114135836Y-108275756D01*
X114122652Y-108281340D01*
X114109216Y-108285108D01*
X114095884Y-108287109D01*
X114087229Y-108287486D01*
X114072563Y-108286558D01*
X114058092Y-108283775D01*
X114044088Y-108279133D01*
X114030825Y-108272633D01*
X114018574Y-108264272D01*
X114007607Y-108254049D01*
X113998198Y-108241962D01*
X113990619Y-108228011D01*
X113985141Y-108212194D01*
X113982792Y-108200611D01*
X113981578Y-108188198D01*
X113981423Y-108181680D01*
X113981985Y-108168523D01*
X113983636Y-108156130D01*
X113986321Y-108144478D01*
X113994582Y-108123307D01*
X114006341Y-108104828D01*
X114021167Y-108088860D01*
X114038634Y-108075220D01*
X114058312Y-108063728D01*
X114079774Y-108054201D01*
X114091039Y-108050118D01*
X114102589Y-108046459D01*
X114114371Y-108043200D01*
X114126331Y-108040319D01*
X114138416Y-108037793D01*
X114150571Y-108035600D01*
X114162743Y-108033716D01*
X114174879Y-108032120D01*
X114186926Y-108030788D01*
X114198829Y-108029698D01*
X114210535Y-108028827D01*
X114233141Y-108027651D01*
X114254318Y-108027078D01*
X114273635Y-108026928D01*
X114301312Y-108029006D01*
X114327967Y-108032088D01*
X114353608Y-108036142D01*
X114378246Y-108041135D01*
X114401889Y-108047034D01*
X114424547Y-108053809D01*
X114446230Y-108061427D01*
X114466947Y-108069856D01*
X114486707Y-108079064D01*
X114505521Y-108089018D01*
X114523396Y-108099688D01*
X114540344Y-108111039D01*
X114556372Y-108123041D01*
X114571491Y-108135662D01*
X114585711Y-108148868D01*
X114599040Y-108162629D01*
X114611488Y-108176912D01*
X114623064Y-108191685D01*
X114633778Y-108206915D01*
X114643640Y-108222572D01*
X114652658Y-108238622D01*
X114660843Y-108255034D01*
X114668203Y-108271775D01*
X114674749Y-108288814D01*
X114680489Y-108306118D01*
X114685433Y-108323655D01*
X114689591Y-108341394D01*
X114692971Y-108359301D01*
X114695584Y-108377346D01*
X114697438Y-108395495D01*
X114698544Y-108413717D01*
X114698911Y-108431980D01*
X114698450Y-108452728D01*
X114697073Y-108473083D01*
X114694792Y-108493030D01*
X114691617Y-108512549D01*
X114687558Y-108531624D01*
X114682626Y-108550238D01*
X114676831Y-108568372D01*
X114670183Y-108586009D01*
X114662694Y-108603131D01*
X114654373Y-108619722D01*
X114645231Y-108635764D01*
X114635278Y-108651239D01*
X114624526Y-108666129D01*
X114612984Y-108680418D01*
X114600662Y-108694087D01*
X114587573Y-108707120D01*
X114573724Y-108719498D01*
X114559129Y-108731204D01*
X114543795Y-108742221D01*
X114527736Y-108752532D01*
X114510959Y-108762118D01*
X114493477Y-108770962D01*
X114475300Y-108779047D01*
X114456437Y-108786355D01*
X114436900Y-108792869D01*
X114416699Y-108798571D01*
X114395844Y-108803444D01*
X114374347Y-108807470D01*
X114352217Y-108810632D01*
X114329464Y-108812912D01*
X114306100Y-108814293D01*
X114282135Y-108814757D01*
X114257253Y-108814199D01*
X114233640Y-108812569D01*
X114211264Y-108809937D01*
X114190094Y-108806372D01*
X114170099Y-108801942D01*
X114151246Y-108796718D01*
X114133505Y-108790768D01*
X114116845Y-108784161D01*
X114101233Y-108776967D01*
X114086639Y-108769253D01*
X114073031Y-108761090D01*
X114060377Y-108752547D01*
X114048647Y-108743692D01*
X114037809Y-108734595D01*
X114027831Y-108725324D01*
X114018682Y-108715949D01*
X114010331Y-108706539D01*
X114002746Y-108697162D01*
X113989750Y-108678788D01*
X113979443Y-108661377D01*
X113971572Y-108645483D01*
X113965888Y-108631659D01*
X113962139Y-108620457D01*
X113959441Y-108608128D01*
X113959441Y-108604611D01*
G37*
G36*
X112925121Y-108796000D02*
G01*
X112925121Y-108717158D01*
X113041186Y-108717158D01*
X113041186Y-108286020D01*
X113041451Y-108269962D01*
X113042244Y-108254535D01*
X113043563Y-108239730D01*
X113045405Y-108225541D01*
X113047768Y-108211958D01*
X113050650Y-108198975D01*
X113054049Y-108186583D01*
X113057961Y-108174774D01*
X113062384Y-108163540D01*
X113067316Y-108152874D01*
X113078697Y-108133212D01*
X113092085Y-108115724D01*
X113107461Y-108100347D01*
X113124804Y-108087017D01*
X113144097Y-108075670D01*
X113165318Y-108066243D01*
X113176647Y-108062230D01*
X113188450Y-108058673D01*
X113200726Y-108055564D01*
X113213473Y-108052896D01*
X113226687Y-108050659D01*
X113240367Y-108048848D01*
X113254510Y-108047452D01*
X113269113Y-108046465D01*
X113284175Y-108045879D01*
X113299692Y-108045685D01*
X113314611Y-108045967D01*
X113329089Y-108046794D01*
X113343133Y-108048143D01*
X113356747Y-108049990D01*
X113369936Y-108052312D01*
X113382706Y-108055083D01*
X113395060Y-108058280D01*
X113407005Y-108061879D01*
X113418545Y-108065856D01*
X113429685Y-108070186D01*
X113450785Y-108079812D01*
X113470345Y-108090565D01*
X113488406Y-108102252D01*
X113505008Y-108114681D01*
X113520189Y-108127659D01*
X113533991Y-108140995D01*
X113546452Y-108154496D01*
X113557614Y-108167969D01*
X113567515Y-108181222D01*
X113576197Y-108194063D01*
X113583698Y-108206300D01*
X113585456Y-108206300D01*
X113585456Y-107633013D01*
X113882944Y-107651771D01*
X113882944Y-107730905D01*
X113864446Y-107730921D01*
X113848000Y-107731032D01*
X113833488Y-107731334D01*
X113820790Y-107731922D01*
X113804889Y-107733548D01*
X113792406Y-107736354D01*
X113780386Y-107742486D01*
X113772783Y-107752049D01*
X113768650Y-107765805D01*
X113767256Y-107779334D01*
X113766880Y-107795972D01*
X113766880Y-108717158D01*
X113882944Y-108717158D01*
X113882944Y-108796000D01*
X113671039Y-108791017D01*
X113459427Y-108796000D01*
X113459427Y-108717158D01*
X113575491Y-108717158D01*
X113575491Y-108369258D01*
X113575074Y-108352542D01*
X113573843Y-108336408D01*
X113571832Y-108320853D01*
X113569075Y-108305873D01*
X113565606Y-108291466D01*
X113561457Y-108277627D01*
X113556663Y-108264353D01*
X113551256Y-108251642D01*
X113545271Y-108239489D01*
X113538740Y-108227891D01*
X113531698Y-108216845D01*
X113524177Y-108206347D01*
X113516212Y-108196394D01*
X113507835Y-108186984D01*
X113499081Y-108178111D01*
X113489982Y-108169773D01*
X113480572Y-108161967D01*
X113470885Y-108154689D01*
X113460954Y-108147935D01*
X113450813Y-108141703D01*
X113440495Y-108135989D01*
X113419462Y-108126102D01*
X113398123Y-108118245D01*
X113376747Y-108112394D01*
X113355600Y-108108519D01*
X113334952Y-108106595D01*
X113324898Y-108106355D01*
X113309414Y-108107322D01*
X113295155Y-108110409D01*
X113282185Y-108115897D01*
X113270570Y-108124068D01*
X113260375Y-108135203D01*
X113251666Y-108149582D01*
X113246717Y-108161110D01*
X113242476Y-108174288D01*
X113238963Y-108189200D01*
X113236197Y-108205928D01*
X113234197Y-108224557D01*
X113232983Y-108245170D01*
X113232574Y-108267849D01*
X113232574Y-108717158D01*
X113348638Y-108717158D01*
X113348638Y-108796000D01*
X113136733Y-108791017D01*
X112925121Y-108796000D01*
G37*
D13*
%TO.C,G\u002A\u002A\u002A*%
G36*
X138996999Y-105823838D02*
G01*
X138999947Y-105778625D01*
X139008732Y-105734674D01*
X139023269Y-105692681D01*
X139043470Y-105653341D01*
X139069248Y-105617350D01*
X139100515Y-105585403D01*
X139137186Y-105558196D01*
X139179173Y-105536425D01*
X139226390Y-105520784D01*
X139278749Y-105511970D01*
X139316468Y-105510230D01*
X139361176Y-105512521D01*
X139407052Y-105519038D01*
X139453615Y-105529241D01*
X139500383Y-105542592D01*
X139546877Y-105558554D01*
X139592616Y-105576588D01*
X139637117Y-105596156D01*
X139679902Y-105616720D01*
X139728659Y-105639982D01*
X139771043Y-105659492D01*
X139807840Y-105675669D01*
X139849572Y-105692780D01*
X139892583Y-105708406D01*
X139935578Y-105721271D01*
X139975122Y-105730890D01*
X139988625Y-105733956D01*
X139983347Y-105690673D01*
X139976900Y-105648585D01*
X139969351Y-105607448D01*
X139960770Y-105567014D01*
X139951222Y-105527038D01*
X139940776Y-105487272D01*
X139929499Y-105447471D01*
X139917459Y-105407388D01*
X139904723Y-105366777D01*
X139891359Y-105325392D01*
X139882135Y-105297250D01*
X139864875Y-105241290D01*
X139853518Y-105203828D01*
X139842387Y-105166294D01*
X139831572Y-105128732D01*
X139816138Y-105072434D01*
X139801921Y-105016323D01*
X139789225Y-104960548D01*
X139778355Y-104905259D01*
X139769615Y-104850606D01*
X139763310Y-104796739D01*
X139759743Y-104743807D01*
X139759036Y-104709113D01*
X139761387Y-104660508D01*
X139768133Y-104616749D01*
X139778814Y-104577602D01*
X139801210Y-104527010D01*
X139829876Y-104485465D01*
X139863264Y-104452169D01*
X139899821Y-104426327D01*
X139937998Y-104407139D01*
X139976245Y-104393811D01*
X140024668Y-104383776D01*
X140066782Y-104380851D01*
X140115601Y-104384457D01*
X140154543Y-104392395D01*
X140194065Y-104405430D01*
X140232892Y-104424113D01*
X140269748Y-104448995D01*
X140303359Y-104480625D01*
X140332448Y-104519556D01*
X140355742Y-104566336D01*
X140371964Y-104621518D01*
X140378221Y-104663245D01*
X140380390Y-104709113D01*
X140378823Y-104761176D01*
X140374343Y-104813922D01*
X140367284Y-104867157D01*
X140357979Y-104920689D01*
X140346761Y-104974323D01*
X140333964Y-105027867D01*
X140319921Y-105081128D01*
X140304965Y-105133913D01*
X140289429Y-105186027D01*
X140273647Y-105237279D01*
X140263154Y-105270872D01*
X140247685Y-105321149D01*
X140233167Y-105368919D01*
X140219625Y-105414556D01*
X140207083Y-105458439D01*
X140195565Y-105500943D01*
X140185095Y-105542446D01*
X140175697Y-105583325D01*
X140167395Y-105623955D01*
X140160214Y-105664715D01*
X140154178Y-105705979D01*
X140150802Y-105733956D01*
X140194277Y-105724354D01*
X140237001Y-105712062D01*
X140279055Y-105697218D01*
X140319110Y-105680955D01*
X140355079Y-105664930D01*
X140374528Y-105655799D01*
X140413137Y-105636629D01*
X140453000Y-105617332D01*
X140493928Y-105598348D01*
X140535734Y-105580116D01*
X140578230Y-105563075D01*
X140621225Y-105547665D01*
X140664534Y-105534325D01*
X140707966Y-105523495D01*
X140751333Y-105515615D01*
X140794448Y-105511124D01*
X140822958Y-105510230D01*
X140864381Y-105512151D01*
X140920535Y-105521788D01*
X140969733Y-105538669D01*
X141012220Y-105561822D01*
X141048243Y-105590277D01*
X141078048Y-105623063D01*
X141101882Y-105659208D01*
X141119990Y-105697743D01*
X141132620Y-105737697D01*
X141140017Y-105778098D01*
X141142428Y-105817976D01*
X141139480Y-105863415D01*
X141130694Y-105907502D01*
X141116158Y-105949559D01*
X141095957Y-105988902D01*
X141070179Y-106024851D01*
X141038911Y-106056726D01*
X141002241Y-106083844D01*
X140960253Y-106105526D01*
X140913037Y-106121090D01*
X140860678Y-106129854D01*
X140822958Y-106131584D01*
X140777968Y-106129334D01*
X140731947Y-106122928D01*
X140685331Y-106112882D01*
X140638555Y-106099710D01*
X140592053Y-106083928D01*
X140546262Y-106066050D01*
X140501615Y-106046593D01*
X140458548Y-106026071D01*
X140410040Y-106002784D01*
X140367860Y-105983208D01*
X140331224Y-105966933D01*
X140289650Y-105949657D01*
X140246762Y-105933805D01*
X140203833Y-105920695D01*
X140164305Y-105910934D01*
X140150802Y-105907857D01*
X140156482Y-105950536D01*
X140163989Y-105993230D01*
X140173039Y-106035699D01*
X140183345Y-106077701D01*
X140194625Y-106118995D01*
X140206592Y-106159339D01*
X140218961Y-106198492D01*
X140231448Y-106236211D01*
X140247787Y-106283858D01*
X140263154Y-106327955D01*
X140283790Y-106392071D01*
X140301851Y-106450383D01*
X140317507Y-106503524D01*
X140330931Y-106552124D01*
X140342294Y-106596814D01*
X140351768Y-106638225D01*
X140359525Y-106676989D01*
X140368315Y-106731551D01*
X140374208Y-106783706D01*
X140377782Y-106835584D01*
X140379617Y-106889316D01*
X140380294Y-106947030D01*
X140380387Y-106988771D01*
X140380390Y-107010858D01*
X140380228Y-107078649D01*
X140379743Y-107146466D01*
X140378940Y-107214306D01*
X140377822Y-107282166D01*
X140376394Y-107350043D01*
X140374659Y-107417934D01*
X140372621Y-107485837D01*
X140370285Y-107553749D01*
X140367654Y-107621666D01*
X140364732Y-107689586D01*
X140361523Y-107757506D01*
X140358031Y-107825423D01*
X140354260Y-107893334D01*
X140350213Y-107961237D01*
X140345896Y-108029129D01*
X140341311Y-108097006D01*
X140336463Y-108164866D01*
X140331356Y-108232706D01*
X140325993Y-108300523D01*
X140320379Y-108368314D01*
X140314517Y-108436076D01*
X140308412Y-108503808D01*
X140302066Y-108571504D01*
X140295485Y-108639164D01*
X140288673Y-108706783D01*
X140281632Y-108774360D01*
X140274367Y-108841891D01*
X140266882Y-108909373D01*
X140259181Y-108976803D01*
X140251268Y-109044180D01*
X140243147Y-109111498D01*
X140234822Y-109178757D01*
X140228989Y-109224991D01*
X140223341Y-109265904D01*
X140217033Y-109307765D01*
X140210258Y-109348226D01*
X140201430Y-109393258D01*
X140190810Y-109433115D01*
X140184019Y-109447424D01*
X140154618Y-109476963D01*
X140113004Y-109485634D01*
X140072644Y-109486503D01*
X140033322Y-109494037D01*
X139992933Y-109493452D01*
X139957240Y-109475925D01*
X139937822Y-109440586D01*
X139930920Y-109393587D01*
X139922505Y-109332748D01*
X139911595Y-109250148D01*
X139905353Y-109201182D01*
X139898666Y-109147369D01*
X139891594Y-109088906D01*
X139884195Y-109025991D01*
X139876531Y-108958822D01*
X139868659Y-108887597D01*
X139860640Y-108812513D01*
X139852534Y-108733768D01*
X139844399Y-108651559D01*
X139836296Y-108566085D01*
X139828284Y-108477542D01*
X139820423Y-108386129D01*
X139812772Y-108292043D01*
X139805390Y-108195482D01*
X139798338Y-108096644D01*
X139791675Y-107995726D01*
X139785461Y-107892926D01*
X139779754Y-107788441D01*
X139774615Y-107682470D01*
X139770103Y-107575209D01*
X139766278Y-107466857D01*
X139763199Y-107357612D01*
X139760926Y-107247670D01*
X139759519Y-107137230D01*
X139759036Y-107026489D01*
X139759068Y-106980408D01*
X139759288Y-106938016D01*
X139759887Y-106898561D01*
X139761906Y-106843238D01*
X139765837Y-106790287D01*
X139772319Y-106737170D01*
X139781989Y-106681344D01*
X139790521Y-106641368D01*
X139800942Y-106598306D01*
X139813442Y-106551407D01*
X139828208Y-106499916D01*
X139845430Y-106443081D01*
X139865296Y-106380150D01*
X139887997Y-106310369D01*
X139902859Y-106265095D01*
X139917871Y-106218183D01*
X139932630Y-106170012D01*
X139946737Y-106120959D01*
X139959791Y-106071403D01*
X139971390Y-106021720D01*
X139981135Y-105972290D01*
X139988625Y-105923489D01*
X139950318Y-105931789D01*
X139908094Y-105943648D01*
X139866875Y-105957854D01*
X139827773Y-105973311D01*
X139783371Y-105992676D01*
X139763921Y-106001646D01*
X139725563Y-106016819D01*
X139685903Y-106032865D01*
X139645136Y-106049269D01*
X139603454Y-106065514D01*
X139561051Y-106081082D01*
X139518120Y-106095458D01*
X139474853Y-106108123D01*
X139431446Y-106118562D01*
X139388090Y-106126258D01*
X139344978Y-106130693D01*
X139316468Y-106131584D01*
X139275046Y-106129673D01*
X139218891Y-106120086D01*
X139169694Y-106103282D01*
X139127207Y-106080219D01*
X139091184Y-106051852D01*
X139061379Y-106019139D01*
X139037545Y-105983034D01*
X139019437Y-105944496D01*
X139006807Y-105904479D01*
X138999410Y-105863941D01*
X138996999Y-105823838D01*
G37*
G36*
X143667966Y-110635088D02*
G01*
X143737401Y-110699143D01*
X143784442Y-110805635D01*
X143809000Y-110954347D01*
X143810989Y-111145062D01*
X143808273Y-111194424D01*
X143777011Y-111441418D01*
X143718665Y-111666637D01*
X143635942Y-111866329D01*
X143531547Y-112036742D01*
X143408186Y-112174122D01*
X143268566Y-112274719D01*
X143115392Y-112334780D01*
X142974043Y-112351146D01*
X142880120Y-112343786D01*
X142791383Y-112326091D01*
X142754735Y-112313629D01*
X142626831Y-112236012D01*
X142539232Y-112131856D01*
X142492327Y-112001757D01*
X142483869Y-111899407D01*
X142504323Y-111767052D01*
X142560398Y-111615627D01*
X142647406Y-111452650D01*
X142760658Y-111285640D01*
X142895465Y-111122116D01*
X143047141Y-110969595D01*
X143084216Y-110936605D01*
X143221116Y-110823134D01*
X143345521Y-110730524D01*
X143451780Y-110662485D01*
X143534241Y-110622725D01*
X143576222Y-110613688D01*
X143667966Y-110635088D01*
G37*
G36*
X145138566Y-109843615D02*
G01*
X145222567Y-109894098D01*
X145260746Y-109948728D01*
X145297172Y-110057523D01*
X145307552Y-110172277D01*
X145290416Y-110297889D01*
X145244294Y-110439260D01*
X145167714Y-110601288D01*
X145059207Y-110788874D01*
X144964095Y-110937067D01*
X144814124Y-111151294D01*
X144677346Y-111320379D01*
X144552510Y-111445259D01*
X144438363Y-111526871D01*
X144333654Y-111566150D01*
X144237130Y-111564032D01*
X144166055Y-111533838D01*
X144077185Y-111465356D01*
X144008262Y-111378303D01*
X143956183Y-111265658D01*
X143917843Y-111120402D01*
X143890136Y-110935515D01*
X143886479Y-110901758D01*
X143871268Y-110685806D01*
X143875105Y-110511475D01*
X143898228Y-110375910D01*
X143937978Y-110280918D01*
X144009746Y-110198908D01*
X144125515Y-110113839D01*
X144281312Y-110028170D01*
X144473166Y-109944362D01*
X144494966Y-109935876D01*
X144696397Y-109868588D01*
X144872676Y-109830813D01*
X145021001Y-109822504D01*
X145138566Y-109843615D01*
G37*
G36*
X144014739Y-108327555D02*
G01*
X144098570Y-108405670D01*
X144109101Y-108419844D01*
X144150872Y-108500587D01*
X144169173Y-108596981D01*
X144163467Y-108714590D01*
X144133217Y-108858976D01*
X144077886Y-109035702D01*
X144039536Y-109140874D01*
X143957363Y-109351824D01*
X143880493Y-109536671D01*
X143810912Y-109691149D01*
X143750604Y-109810993D01*
X143701554Y-109891939D01*
X143675863Y-109922389D01*
X143607568Y-109957587D01*
X143510021Y-109975238D01*
X143399626Y-109973520D01*
X143328094Y-109960992D01*
X143229666Y-109928179D01*
X143122253Y-109879473D01*
X143020614Y-109822886D01*
X142939513Y-109766424D01*
X142901451Y-109729500D01*
X142836276Y-109613079D01*
X142798861Y-109474380D01*
X142793680Y-109333430D01*
X142801450Y-109281759D01*
X142865661Y-109090203D01*
X142973041Y-108901631D01*
X143118579Y-108722274D01*
X143297266Y-108558366D01*
X143491256Y-108423779D01*
X143654908Y-108338391D01*
X143795186Y-108293901D01*
X143914371Y-108290293D01*
X144014739Y-108327555D01*
G37*
G36*
X145164109Y-108278985D02*
G01*
X145274926Y-108369573D01*
X145286437Y-108382308D01*
X145373374Y-108511644D01*
X145416568Y-108653818D01*
X145416085Y-108810992D01*
X145371989Y-108985330D01*
X145309170Y-109130997D01*
X145178406Y-109340581D01*
X145010275Y-109522984D01*
X144810158Y-109673488D01*
X144583434Y-109787373D01*
X144543820Y-109802324D01*
X144435225Y-109836511D01*
X144323952Y-109863259D01*
X144221151Y-109880815D01*
X144137972Y-109887425D01*
X144085564Y-109881337D01*
X144076473Y-109875798D01*
X144065603Y-109839644D01*
X144060175Y-109766754D01*
X144060032Y-109668356D01*
X144065014Y-109555678D01*
X144074962Y-109439947D01*
X144083628Y-109371070D01*
X144142612Y-109091945D01*
X144233907Y-108848372D01*
X144357843Y-108639722D01*
X144514750Y-108465368D01*
X144592307Y-108400883D01*
X144685497Y-108332168D01*
X144755800Y-108287640D01*
X144817076Y-108260157D01*
X144883183Y-108242576D01*
X144909100Y-108237607D01*
X145042693Y-108235198D01*
X145164109Y-108278985D01*
G37*
G36*
X142928829Y-109919055D02*
G01*
X143077157Y-109973869D01*
X143206756Y-110060847D01*
X143236557Y-110089107D01*
X143301037Y-110171870D01*
X143347850Y-110264413D01*
X143371637Y-110352596D01*
X143367036Y-110422281D01*
X143364862Y-110427569D01*
X143338298Y-110468583D01*
X143284670Y-110538446D01*
X143209726Y-110630580D01*
X143119215Y-110738406D01*
X143018886Y-110855346D01*
X142914488Y-110974820D01*
X142811770Y-111090251D01*
X142716480Y-111195059D01*
X142634367Y-111282667D01*
X142571180Y-111346495D01*
X142532668Y-111379966D01*
X142532503Y-111380075D01*
X142424590Y-111430918D01*
X142311549Y-111450295D01*
X142208489Y-111436748D01*
X142163023Y-111415685D01*
X142104693Y-111374061D01*
X142062212Y-111335562D01*
X142060732Y-111333815D01*
X142018442Y-111258713D01*
X141983415Y-111152195D01*
X141960228Y-111031058D01*
X141953348Y-110939813D01*
X141971059Y-110753543D01*
X142026353Y-110561756D01*
X142113276Y-110375313D01*
X142225875Y-110205074D01*
X142358194Y-110061900D01*
X142486954Y-109966487D01*
X142622180Y-109913475D01*
X142773321Y-109898294D01*
X142928829Y-109919055D01*
G37*
G36*
X141495196Y-111394107D02*
G01*
X141658433Y-111394107D01*
X141663658Y-111657917D01*
X141690601Y-111905475D01*
X141725260Y-112072328D01*
X141803388Y-112309484D01*
X141903721Y-112505353D01*
X142028635Y-112662677D01*
X142180503Y-112784199D01*
X142361697Y-112872659D01*
X142440684Y-112898748D01*
X142535548Y-112915574D01*
X142664667Y-112923460D01*
X142814950Y-112922963D01*
X142973309Y-112914645D01*
X143126652Y-112899064D01*
X143261890Y-112876780D01*
X143327456Y-112860838D01*
X143659568Y-112743895D01*
X143972648Y-112587371D01*
X144271589Y-112388425D01*
X144559901Y-112145511D01*
X144854732Y-111839104D01*
X145127331Y-111491504D01*
X145376098Y-111105179D01*
X145599432Y-110682596D01*
X145781186Y-110263593D01*
X145867066Y-110029554D01*
X145928818Y-109822337D01*
X145969268Y-109628699D01*
X145991240Y-109435397D01*
X145997557Y-109249525D01*
X145996411Y-109103914D01*
X145990666Y-108989926D01*
X145978403Y-108890967D01*
X145957702Y-108790444D01*
X145933647Y-108697282D01*
X145837574Y-108413766D01*
X145714394Y-108168966D01*
X145564536Y-107963475D01*
X145388429Y-107797888D01*
X145196596Y-107677776D01*
X145129130Y-107646770D01*
X145065854Y-107626018D01*
X144993103Y-107612916D01*
X144897212Y-107604861D01*
X144788754Y-107600091D01*
X144600663Y-107599701D01*
X144436901Y-107615530D01*
X144282167Y-107651136D01*
X144121161Y-107710076D01*
X143938580Y-107795906D01*
X143931962Y-107799263D01*
X143723184Y-107911484D01*
X143544771Y-108022384D01*
X143380410Y-108143010D01*
X143213787Y-108284411D01*
X143208242Y-108289397D01*
X142866607Y-108628884D01*
X142562464Y-108997424D01*
X142297445Y-109392190D01*
X142073180Y-109810354D01*
X141891302Y-110249089D01*
X141753440Y-110705570D01*
X141713731Y-110879277D01*
X141675074Y-111129432D01*
X141658433Y-111394107D01*
X141495196Y-111394107D01*
X141492410Y-111268754D01*
X141529102Y-110896207D01*
X141609119Y-110516912D01*
X141731051Y-110134601D01*
X141893485Y-109753006D01*
X142095008Y-109375859D01*
X142334209Y-109006892D01*
X142609676Y-108649836D01*
X142643626Y-108609696D01*
X142721730Y-108523652D01*
X142824158Y-108418482D01*
X142940166Y-108304486D01*
X143059013Y-108191967D01*
X143169956Y-108091226D01*
X143262252Y-108012566D01*
X143285190Y-107994436D01*
X143513588Y-107831041D01*
X143750530Y-107684237D01*
X143986743Y-107558839D01*
X144212957Y-107459662D01*
X144419901Y-107391523D01*
X144468821Y-107379615D01*
X144657471Y-107356704D01*
X144875779Y-107363451D01*
X145116577Y-107398277D01*
X145372699Y-107459605D01*
X145636975Y-107545856D01*
X145902240Y-107655452D01*
X146051942Y-107728177D01*
X146432199Y-107949936D01*
X146793675Y-108212993D01*
X147131486Y-108512398D01*
X147440748Y-108843203D01*
X147716578Y-109200461D01*
X147954093Y-109579222D01*
X148041732Y-109744486D01*
X148118108Y-109910502D01*
X148194274Y-110100795D01*
X148265061Y-110300384D01*
X148325300Y-110494288D01*
X148369822Y-110667527D01*
X148383292Y-110734410D01*
X148403457Y-110894133D01*
X148413703Y-111080754D01*
X148414332Y-111279356D01*
X148405644Y-111475024D01*
X148387942Y-111652839D01*
X148361804Y-111796768D01*
X148273746Y-112080523D01*
X148153006Y-112360253D01*
X148008340Y-112615980D01*
X147991591Y-112641415D01*
X147874509Y-112796799D01*
X147726949Y-112962606D01*
X147561161Y-113126767D01*
X147389399Y-113277214D01*
X147223914Y-113401878D01*
X147210133Y-113411163D01*
X146947665Y-113567640D01*
X146653882Y-113710692D01*
X146345329Y-113833322D01*
X146038552Y-113928531D01*
X145917491Y-113957936D01*
X145805926Y-113975928D01*
X145656987Y-113990264D01*
X145481463Y-114000763D01*
X145290145Y-114007242D01*
X145093821Y-114009521D01*
X144903283Y-114007417D01*
X144729319Y-114000749D01*
X144582718Y-113989334D01*
X144520945Y-113981471D01*
X144132363Y-113902569D01*
X143727483Y-113782461D01*
X143311389Y-113623240D01*
X142889166Y-113426998D01*
X142465899Y-113195825D01*
X142175095Y-113016527D01*
X141994775Y-112888198D01*
X141857124Y-112762435D01*
X141757168Y-112633933D01*
X141691091Y-112500509D01*
X141637343Y-112335122D01*
X141586860Y-112140152D01*
X141543741Y-111934299D01*
X141512084Y-111736261D01*
X141500457Y-111630822D01*
X141495196Y-111394107D01*
G37*
%TD*%
%LPC*%
D14*
%TO.C,H2*%
X153400000Y-102000000D03*
%TD*%
D15*
%TO.C,VCC/GND*%
X117400000Y-104600000D03*
D16*
X115400000Y-104600000D03*
%TD*%
D17*
%TO.C,Ref in*%
X106962500Y-108575000D03*
X106962500Y-114225000D03*
%TD*%
%TO.C,Laser out*%
X155412500Y-114175000D03*
X155412500Y-108525000D03*
%TD*%
D14*
%TO.C,H1*%
X109000000Y-102000000D03*
%TD*%
M02*
