%TF.GenerationSoftware,KiCad,Pcbnew,7.0.1*%
%TF.CreationDate,2023-04-01T22:12:37+02:00*%
%TF.ProjectId,OpenSPS_PCB,4f70656e-5350-4535-9f50-43422e6b6963,rev?*%
%TF.SameCoordinates,Original*%
%TF.FileFunction,Soldermask,Top*%
%TF.FilePolarity,Negative*%
%FSLAX46Y46*%
G04 Gerber Fmt 4.6, Leading zero omitted, Abs format (unit mm)*
G04 Created by KiCad (PCBNEW 7.0.1) date 2023-04-01 22:12:37*
%MOMM*%
%LPD*%
G01*
G04 APERTURE LIST*
G04 Aperture macros list*
%AMRoundRect*
0 Rectangle with rounded corners*
0 $1 Rounding radius*
0 $2 $3 $4 $5 $6 $7 $8 $9 X,Y pos of 4 corners*
0 Add a 4 corners polygon primitive as box body*
4,1,4,$2,$3,$4,$5,$6,$7,$8,$9,$2,$3,0*
0 Add four circle primitives for the rounded corners*
1,1,$1+$1,$2,$3*
1,1,$1+$1,$4,$5*
1,1,$1+$1,$6,$7*
1,1,$1+$1,$8,$9*
0 Add four rect primitives between the rounded corners*
20,1,$1+$1,$2,$3,$4,$5,0*
20,1,$1+$1,$4,$5,$6,$7,0*
20,1,$1+$1,$6,$7,$8,$9,0*
20,1,$1+$1,$8,$9,$2,$3,0*%
G04 Aperture macros list end*
%ADD10RoundRect,0.200000X0.275000X-0.200000X0.275000X0.200000X-0.275000X0.200000X-0.275000X-0.200000X0*%
%ADD11RoundRect,0.200000X-0.200000X-0.275000X0.200000X-0.275000X0.200000X0.275000X-0.200000X0.275000X0*%
%ADD12C,6.400000*%
%ADD13RoundRect,0.225000X0.250000X-0.225000X0.250000X0.225000X-0.250000X0.225000X-0.250000X-0.225000X0*%
%ADD14RoundRect,0.250000X0.350000X0.625000X-0.350000X0.625000X-0.350000X-0.625000X0.350000X-0.625000X0*%
%ADD15O,1.200000X1.750000*%
%ADD16RoundRect,0.218750X0.218750X0.256250X-0.218750X0.256250X-0.218750X-0.256250X0.218750X-0.256250X0*%
%ADD17R,1.200000X0.399999*%
%ADD18R,2.000000X1.500000*%
%ADD19R,2.000000X3.800000*%
%ADD20RoundRect,0.225000X0.225000X0.250000X-0.225000X0.250000X-0.225000X-0.250000X0.225000X-0.250000X0*%
%ADD21RoundRect,0.225000X-0.225000X-0.250000X0.225000X-0.250000X0.225000X0.250000X-0.225000X0.250000X0*%
%ADD22R,4.200000X1.350000*%
%ADD23R,3.600000X1.270000*%
%ADD24RoundRect,0.150000X-0.512500X-0.150000X0.512500X-0.150000X0.512500X0.150000X-0.512500X0.150000X0*%
%ADD25RoundRect,0.225000X-0.250000X0.225000X-0.250000X-0.225000X0.250000X-0.225000X0.250000X0.225000X0*%
%ADD26RoundRect,0.200000X0.200000X0.275000X-0.200000X0.275000X-0.200000X-0.275000X0.200000X-0.275000X0*%
G04 APERTURE END LIST*
D10*
%TO.C,R6*%
X143000000Y-100600000D03*
X143000000Y-98950000D03*
%TD*%
D11*
%TO.C,R2*%
X126600000Y-110750000D03*
X128250000Y-110750000D03*
%TD*%
D12*
%TO.C,H2*%
X153400000Y-102000000D03*
%TD*%
D13*
%TO.C,C10*%
X137400000Y-104150000D03*
X137400000Y-102600000D03*
%TD*%
D14*
%TO.C,VCC/GND*%
X117400000Y-104600000D03*
D15*
X115400000Y-104600000D03*
%TD*%
D16*
%TO.C,D1*%
X146775000Y-102600000D03*
X145200000Y-102600000D03*
%TD*%
D17*
%TO.C,U4*%
X132600000Y-113200000D03*
X132600000Y-113850000D03*
X132600000Y-114500000D03*
X134199999Y-114500000D03*
X134199999Y-113850000D03*
X134199999Y-113200000D03*
%TD*%
D13*
%TO.C,C6*%
X121800000Y-101950000D03*
X121800000Y-100400000D03*
%TD*%
%TO.C,C4*%
X124000000Y-101975000D03*
X124000000Y-100425000D03*
%TD*%
D18*
%TO.C,U2*%
X127650000Y-100075000D03*
X127650000Y-102375000D03*
D19*
X133950000Y-102375000D03*
D18*
X127650000Y-104675000D03*
%TD*%
D20*
%TO.C,C11*%
X143775000Y-107800000D03*
X142225000Y-107800000D03*
%TD*%
D13*
%TO.C,C15*%
X145200000Y-100575000D03*
X145200000Y-99025000D03*
%TD*%
%TO.C,C7*%
X138600000Y-114775000D03*
X138600000Y-113225000D03*
%TD*%
D20*
%TO.C,C14*%
X128175000Y-115600000D03*
X126625000Y-115600000D03*
%TD*%
D11*
%TO.C,R3*%
X126575000Y-113600000D03*
X128225000Y-113600000D03*
%TD*%
D21*
%TO.C,C2*%
X122800000Y-114200000D03*
X124350000Y-114200000D03*
%TD*%
D22*
%TO.C,Ref in*%
X106962500Y-114225000D03*
X106962500Y-108575000D03*
D23*
X106762500Y-111400000D03*
%TD*%
%TO.C,Laser out*%
X155612500Y-111350000D03*
D22*
X155412500Y-114175000D03*
X155412500Y-108525000D03*
%TD*%
D13*
%TO.C,C12*%
X139600000Y-104150000D03*
X139600000Y-102600000D03*
%TD*%
D24*
%TO.C,U5*%
X141862500Y-110250000D03*
X141862500Y-111200000D03*
X141862500Y-112150000D03*
X144137500Y-112150000D03*
X144137500Y-110250000D03*
%TD*%
D25*
%TO.C,C3*%
X138600000Y-109000000D03*
X138600000Y-110550000D03*
%TD*%
D17*
%TO.C,U3*%
X132600000Y-108300000D03*
X132600000Y-108950000D03*
X132600000Y-109600000D03*
X134199999Y-109600000D03*
X134199999Y-108950000D03*
X134199999Y-108300000D03*
%TD*%
D13*
%TO.C,C13*%
X130200000Y-110775000D03*
X130200000Y-109225000D03*
%TD*%
D10*
%TO.C,R1*%
X119100000Y-111325000D03*
X119100000Y-109675000D03*
%TD*%
D11*
%TO.C,R7*%
X146575000Y-111400000D03*
X148225000Y-111400000D03*
%TD*%
D13*
%TO.C,C8*%
X136600000Y-114775000D03*
X136600000Y-113225000D03*
%TD*%
D25*
%TO.C,C5*%
X136600000Y-109000000D03*
X136600000Y-110550000D03*
%TD*%
D26*
%TO.C,R4*%
X146800000Y-104600000D03*
X145150000Y-104600000D03*
%TD*%
D17*
%TO.C,U1*%
X124400001Y-112250001D03*
X124400001Y-111600001D03*
X124400001Y-110950001D03*
X122800002Y-110950001D03*
X122800002Y-111600001D03*
X122800002Y-112250001D03*
%TD*%
D21*
%TO.C,C9*%
X146625000Y-109100000D03*
X148175000Y-109100000D03*
%TD*%
D10*
%TO.C,R5*%
X143000000Y-104225000D03*
X143000000Y-102575000D03*
%TD*%
D20*
%TO.C,C1*%
X120775000Y-114175000D03*
X119225000Y-114175000D03*
%TD*%
D12*
%TO.C,H1*%
X109000000Y-102000000D03*
%TD*%
G36*
X118988000Y-110916613D02*
G01*
X119033387Y-110962000D01*
X119050000Y-111024000D01*
X119050000Y-111776000D01*
X119033387Y-111838000D01*
X118988000Y-111883387D01*
X118926000Y-111900000D01*
X108574000Y-111900000D01*
X108512000Y-111883387D01*
X108466613Y-111838000D01*
X108450000Y-111776000D01*
X108450000Y-111024000D01*
X108466613Y-110962000D01*
X108512000Y-110916613D01*
X108574000Y-110900000D01*
X118926000Y-110900000D01*
X118988000Y-110916613D01*
G37*
G36*
X153938000Y-110916613D02*
G01*
X153983387Y-110962000D01*
X154000000Y-111024000D01*
X154000000Y-111776000D01*
X153983387Y-111838000D01*
X153938000Y-111883387D01*
X153876000Y-111900000D01*
X148524000Y-111900000D01*
X148462000Y-111883387D01*
X148416613Y-111838000D01*
X148400000Y-111776000D01*
X148400000Y-111024000D01*
X148416613Y-110962000D01*
X148462000Y-110916613D01*
X148524000Y-110900000D01*
X153876000Y-110900000D01*
X153938000Y-110916613D01*
G37*
M02*
