%TF.GenerationSoftware,KiCad,Pcbnew,7.0.1*%
%TF.CreationDate,2023-04-02T02:08:02+02:00*%
%TF.ProjectId,OpenSPS_PCB,4f70656e-5350-4535-9f50-43422e6b6963,rev?*%
%TF.SameCoordinates,Original*%
%TF.FileFunction,Soldermask,Bot*%
%TF.FilePolarity,Negative*%
%FSLAX46Y46*%
G04 Gerber Fmt 4.6, Leading zero omitted, Abs format (unit mm)*
G04 Created by KiCad (PCBNEW 7.0.1) date 2023-04-02 02:08:02*
%MOMM*%
%LPD*%
G01*
G04 APERTURE LIST*
G04 Aperture macros list*
%AMRoundRect*
0 Rectangle with rounded corners*
0 $1 Rounding radius*
0 $2 $3 $4 $5 $6 $7 $8 $9 X,Y pos of 4 corners*
0 Add a 4 corners polygon primitive as box body*
4,1,4,$2,$3,$4,$5,$6,$7,$8,$9,$2,$3,0*
0 Add four circle primitives for the rounded corners*
1,1,$1+$1,$2,$3*
1,1,$1+$1,$4,$5*
1,1,$1+$1,$6,$7*
1,1,$1+$1,$8,$9*
0 Add four rect primitives between the rounded corners*
20,1,$1+$1,$2,$3,$4,$5,0*
20,1,$1+$1,$4,$5,$6,$7,0*
20,1,$1+$1,$6,$7,$8,$9,0*
20,1,$1+$1,$8,$9,$2,$3,0*%
G04 Aperture macros list end*
%ADD10C,0.250000*%
%ADD11C,0.200000*%
%ADD12C,0.300000*%
%ADD13C,6.400000*%
%ADD14RoundRect,0.250000X0.350000X0.625000X-0.350000X0.625000X-0.350000X-0.625000X0.350000X-0.625000X0*%
%ADD15O,1.200000X1.750000*%
%ADD16R,4.200000X1.350000*%
G04 APERTURE END LIST*
D10*
G36*
X133866671Y-100433733D02*
G01*
X133901402Y-100435876D01*
X133935217Y-100439416D01*
X133968100Y-100444326D01*
X134000037Y-100450579D01*
X134031012Y-100458150D01*
X134061011Y-100467011D01*
X134090017Y-100477137D01*
X134118018Y-100488500D01*
X134144996Y-100501075D01*
X134170937Y-100514834D01*
X134195826Y-100529752D01*
X134219648Y-100545802D01*
X134242388Y-100562957D01*
X134264031Y-100581191D01*
X134284561Y-100600478D01*
X134303964Y-100620791D01*
X134322225Y-100642103D01*
X134339328Y-100664389D01*
X134355258Y-100687622D01*
X134370000Y-100711774D01*
X134383540Y-100736821D01*
X134395861Y-100762735D01*
X134406950Y-100789490D01*
X134416791Y-100817059D01*
X134425368Y-100845416D01*
X134432667Y-100874535D01*
X134438673Y-100904389D01*
X134443371Y-100934952D01*
X134446745Y-100966196D01*
X134448780Y-100998097D01*
X134449462Y-101030626D01*
X134448794Y-101062240D01*
X134446799Y-101093262D01*
X134443490Y-101123666D01*
X134438878Y-101153423D01*
X134432975Y-101182507D01*
X134425795Y-101210891D01*
X134417349Y-101238549D01*
X134407651Y-101265452D01*
X134396711Y-101291574D01*
X134384543Y-101316889D01*
X134371159Y-101341368D01*
X134356572Y-101364986D01*
X134340792Y-101387714D01*
X134323834Y-101409527D01*
X134305709Y-101430397D01*
X134286430Y-101450296D01*
X134266009Y-101469199D01*
X134244458Y-101487078D01*
X134221789Y-101503906D01*
X134198016Y-101519657D01*
X134173150Y-101534302D01*
X134147204Y-101547815D01*
X134120189Y-101560170D01*
X134092119Y-101571339D01*
X134063006Y-101581294D01*
X134032862Y-101590010D01*
X134001700Y-101597459D01*
X133969531Y-101603615D01*
X133936368Y-101608449D01*
X133902223Y-101611936D01*
X133867110Y-101614047D01*
X133831039Y-101614757D01*
X133816338Y-101614668D01*
X133804224Y-101614437D01*
X133791214Y-101614006D01*
X133777341Y-101613324D01*
X133762639Y-101612339D01*
X133747141Y-101610999D01*
X133730880Y-101609251D01*
X133713890Y-101607043D01*
X133702175Y-101605290D01*
X133690160Y-101603293D01*
X133677855Y-101601039D01*
X133671597Y-101599810D01*
X133667209Y-101617978D01*
X133662875Y-101635764D01*
X133658569Y-101653155D01*
X133654268Y-101670139D01*
X133649947Y-101686703D01*
X133645580Y-101702833D01*
X133641142Y-101718517D01*
X133636610Y-101733743D01*
X133631957Y-101748498D01*
X133627159Y-101762768D01*
X133622190Y-101776541D01*
X133617027Y-101789805D01*
X133611645Y-101802546D01*
X133606017Y-101814752D01*
X133600120Y-101826410D01*
X133593928Y-101837507D01*
X133587417Y-101848030D01*
X133580562Y-101857967D01*
X133573337Y-101867305D01*
X133557680Y-101884132D01*
X133540248Y-101898410D01*
X133520841Y-101910036D01*
X133499259Y-101918907D01*
X133487591Y-101922278D01*
X133475304Y-101924922D01*
X133462375Y-101926826D01*
X133448777Y-101927978D01*
X133434486Y-101928365D01*
X133418767Y-101927527D01*
X133403695Y-101925596D01*
X133389262Y-101922624D01*
X133375457Y-101918661D01*
X133362271Y-101913759D01*
X133349694Y-101907968D01*
X133337715Y-101901341D01*
X133326327Y-101893927D01*
X133315517Y-101885778D01*
X133305278Y-101876945D01*
X133295599Y-101867480D01*
X133286470Y-101857432D01*
X133277881Y-101846854D01*
X133269823Y-101835797D01*
X133262287Y-101824311D01*
X133255261Y-101812448D01*
X133248737Y-101800258D01*
X133242705Y-101787793D01*
X133237154Y-101775104D01*
X133232076Y-101762242D01*
X133227460Y-101749258D01*
X133223297Y-101736203D01*
X133219576Y-101723129D01*
X133216289Y-101710085D01*
X133213425Y-101697125D01*
X133210975Y-101684297D01*
X133208928Y-101671655D01*
X133207275Y-101659248D01*
X133206007Y-101647128D01*
X133205113Y-101635345D01*
X133204455Y-101614436D01*
X133204881Y-101603125D01*
X133207519Y-101590495D01*
X133214219Y-101579379D01*
X133224634Y-101573289D01*
X133234598Y-101571966D01*
X133246618Y-101574072D01*
X133256871Y-101581889D01*
X133262212Y-101592659D01*
X133264643Y-101604543D01*
X133264787Y-101605672D01*
X133270005Y-101622046D01*
X133279334Y-101635429D01*
X133291936Y-101646124D01*
X133306976Y-101654430D01*
X133317944Y-101658790D01*
X133329377Y-101662311D01*
X133341025Y-101665084D01*
X133352642Y-101667198D01*
X133369468Y-101669327D01*
X133384829Y-101670474D01*
X133397890Y-101670942D01*
X133407815Y-101671031D01*
X133422783Y-101670837D01*
X133434771Y-101669994D01*
X133447429Y-101668008D01*
X133460775Y-101664389D01*
X133474823Y-101658648D01*
X133489590Y-101650295D01*
X133499842Y-101643033D01*
X133510425Y-101634247D01*
X133521344Y-101623793D01*
X133532604Y-101611525D01*
X133544209Y-101597298D01*
X133556164Y-101580966D01*
X133562274Y-101571966D01*
X133537037Y-101561027D01*
X133512965Y-101549336D01*
X133490036Y-101536930D01*
X133468315Y-101523899D01*
X133693286Y-101523899D01*
X133705287Y-101528831D01*
X133717669Y-101533244D01*
X133730367Y-101537146D01*
X133743312Y-101540545D01*
X133756439Y-101543447D01*
X133769681Y-101545860D01*
X133782972Y-101547791D01*
X133796244Y-101549247D01*
X133809431Y-101550235D01*
X133822466Y-101550763D01*
X133831039Y-101550863D01*
X133847425Y-101550253D01*
X133862030Y-101548506D01*
X133874952Y-101545751D01*
X133886291Y-101542116D01*
X133900554Y-101535294D01*
X133911819Y-101527210D01*
X133920425Y-101518298D01*
X133928346Y-101505872D01*
X133932940Y-101493764D01*
X133935222Y-101480635D01*
X133935380Y-101476418D01*
X133934124Y-101463212D01*
X133930498Y-101450860D01*
X133924710Y-101439459D01*
X133916972Y-101429107D01*
X133907492Y-101419901D01*
X133896483Y-101411938D01*
X133884152Y-101405314D01*
X133870712Y-101400127D01*
X133856371Y-101396475D01*
X133841340Y-101394453D01*
X133831039Y-101394060D01*
X133817607Y-101394636D01*
X133803801Y-101396598D01*
X133789787Y-101400297D01*
X133775732Y-101406084D01*
X133761803Y-101414309D01*
X133748166Y-101425323D01*
X133739319Y-101434388D01*
X133730726Y-101444953D01*
X133722435Y-101457120D01*
X133714496Y-101470994D01*
X133706959Y-101486680D01*
X133699873Y-101504280D01*
X133693286Y-101523899D01*
X133468315Y-101523899D01*
X133468225Y-101523845D01*
X133447509Y-101510119D01*
X133427863Y-101495787D01*
X133409263Y-101480887D01*
X133391686Y-101465455D01*
X133375108Y-101449527D01*
X133359504Y-101433140D01*
X133344851Y-101416332D01*
X133331125Y-101399137D01*
X133318302Y-101381594D01*
X133306357Y-101363738D01*
X133295268Y-101345606D01*
X133285010Y-101327235D01*
X133275559Y-101308661D01*
X133266891Y-101289921D01*
X133258982Y-101271052D01*
X133251809Y-101252090D01*
X133245347Y-101233072D01*
X133239573Y-101214034D01*
X133234462Y-101195013D01*
X133229991Y-101176045D01*
X133226136Y-101157168D01*
X133222872Y-101138418D01*
X133220176Y-101119830D01*
X133218024Y-101101443D01*
X133216391Y-101083293D01*
X133215255Y-101065415D01*
X133214591Y-101047847D01*
X133214375Y-101030626D01*
X133214462Y-101026523D01*
X133461451Y-101026523D01*
X133461490Y-101045687D01*
X133461766Y-101068059D01*
X133462066Y-101080318D01*
X133462513Y-101093221D01*
X133463138Y-101106716D01*
X133463970Y-101120752D01*
X133465037Y-101135275D01*
X133466370Y-101150234D01*
X133467999Y-101165575D01*
X133469952Y-101181248D01*
X133472259Y-101197198D01*
X133474950Y-101213374D01*
X133478054Y-101229724D01*
X133481601Y-101246195D01*
X133485620Y-101262734D01*
X133490141Y-101279290D01*
X133495193Y-101295810D01*
X133500806Y-101312241D01*
X133507010Y-101328532D01*
X133513833Y-101344629D01*
X133521306Y-101360481D01*
X133529457Y-101376034D01*
X133538317Y-101391238D01*
X133547915Y-101406038D01*
X133558280Y-101420384D01*
X133569442Y-101434222D01*
X133581431Y-101447500D01*
X133594276Y-101460167D01*
X133608006Y-101472168D01*
X133622651Y-101483452D01*
X133629861Y-101472059D01*
X133637668Y-101460090D01*
X133646113Y-101447728D01*
X133655239Y-101435152D01*
X133665086Y-101422543D01*
X133675696Y-101410083D01*
X133687110Y-101397951D01*
X133699368Y-101386329D01*
X133712512Y-101375398D01*
X133726584Y-101365337D01*
X133741625Y-101356329D01*
X133757675Y-101348552D01*
X133774776Y-101342190D01*
X133792969Y-101337421D01*
X133812296Y-101334428D01*
X133832798Y-101333390D01*
X133848731Y-101334052D01*
X133864371Y-101336013D01*
X133879616Y-101339230D01*
X133894365Y-101343662D01*
X133908516Y-101349266D01*
X133921968Y-101356002D01*
X133934620Y-101363827D01*
X133946371Y-101372700D01*
X133957118Y-101382580D01*
X133966761Y-101393425D01*
X133975199Y-101405192D01*
X133982329Y-101417841D01*
X133988052Y-101431330D01*
X133992265Y-101445617D01*
X133994867Y-101460660D01*
X133995757Y-101476418D01*
X133995145Y-101489378D01*
X133993767Y-101501111D01*
X133991072Y-101513108D01*
X133990774Y-101513934D01*
X134009561Y-101503775D01*
X134027202Y-101492785D01*
X134043734Y-101481015D01*
X134059192Y-101468515D01*
X134073613Y-101455335D01*
X134087032Y-101441526D01*
X134099486Y-101427139D01*
X134111010Y-101412222D01*
X134121641Y-101396827D01*
X134131415Y-101381004D01*
X134140367Y-101364804D01*
X134148533Y-101348277D01*
X134155951Y-101331472D01*
X134162654Y-101314441D01*
X134168681Y-101297234D01*
X134174066Y-101279900D01*
X134178846Y-101262492D01*
X134183056Y-101245058D01*
X134186733Y-101227649D01*
X134189913Y-101210315D01*
X134192631Y-101193108D01*
X134194925Y-101176076D01*
X134196828Y-101159271D01*
X134198379Y-101142743D01*
X134199612Y-101126542D01*
X134200564Y-101110718D01*
X134201271Y-101095322D01*
X134201768Y-101080405D01*
X134202093Y-101066016D01*
X134202280Y-101052205D01*
X134202365Y-101039024D01*
X134202386Y-101026523D01*
X134202371Y-101013012D01*
X134202265Y-100997557D01*
X134201976Y-100980349D01*
X134201415Y-100961580D01*
X134200490Y-100941443D01*
X134199109Y-100920129D01*
X134197183Y-100897830D01*
X134194619Y-100874738D01*
X134193070Y-100862955D01*
X134191327Y-100851045D01*
X134189380Y-100839033D01*
X134187216Y-100826943D01*
X134184825Y-100814799D01*
X134182195Y-100802624D01*
X134179315Y-100790443D01*
X134176173Y-100778279D01*
X134172758Y-100766157D01*
X134169058Y-100754101D01*
X134165063Y-100742134D01*
X134160760Y-100730281D01*
X134156139Y-100718566D01*
X134151188Y-100707012D01*
X134145896Y-100695644D01*
X134140251Y-100684485D01*
X134131899Y-100669955D01*
X134123235Y-100656191D01*
X134114283Y-100643174D01*
X134105065Y-100630883D01*
X134095604Y-100619299D01*
X134085924Y-100608401D01*
X134076048Y-100598170D01*
X134065998Y-100588585D01*
X134055798Y-100579626D01*
X134045470Y-100571274D01*
X134035039Y-100563508D01*
X134024526Y-100556309D01*
X134013956Y-100549655D01*
X134003351Y-100543529D01*
X133992734Y-100537908D01*
X133982128Y-100532774D01*
X133961042Y-100523884D01*
X133940279Y-100516699D01*
X133920022Y-100511059D01*
X133900456Y-100506803D01*
X133881766Y-100503772D01*
X133864137Y-100501805D01*
X133847752Y-100500742D01*
X133832798Y-100500424D01*
X133815313Y-100500830D01*
X133797021Y-100502122D01*
X133778052Y-100504409D01*
X133758540Y-100507801D01*
X133738618Y-100512408D01*
X133718418Y-100518337D01*
X133698073Y-100525700D01*
X133677716Y-100534606D01*
X133657478Y-100545163D01*
X133637494Y-100557482D01*
X133627638Y-100564336D01*
X133617895Y-100571672D01*
X133608282Y-100579503D01*
X133598815Y-100587843D01*
X133589510Y-100596705D01*
X133580385Y-100606103D01*
X133571455Y-100616052D01*
X133562739Y-100626564D01*
X133554251Y-100637653D01*
X133546009Y-100649333D01*
X133538029Y-100661617D01*
X133530327Y-100674520D01*
X133519024Y-100694585D01*
X133509023Y-100715460D01*
X133500245Y-100737018D01*
X133492610Y-100759136D01*
X133489197Y-100770366D01*
X133486040Y-100781689D01*
X133483130Y-100793089D01*
X133480456Y-100804551D01*
X133478009Y-100816059D01*
X133475779Y-100827598D01*
X133473755Y-100839152D01*
X133470290Y-100862241D01*
X133467534Y-100885203D01*
X133465408Y-100907912D01*
X133463833Y-100930244D01*
X133462731Y-100952073D01*
X133462022Y-100973274D01*
X133461627Y-100993723D01*
X133461467Y-101013295D01*
X133461451Y-101022713D01*
X133461451Y-101026523D01*
X133214462Y-101026523D01*
X133215085Y-100997220D01*
X133217201Y-100964554D01*
X133220703Y-100932650D01*
X133225569Y-100901528D01*
X133231779Y-100871210D01*
X133239311Y-100841716D01*
X133248145Y-100813068D01*
X133258261Y-100785286D01*
X133269636Y-100758391D01*
X133282251Y-100732405D01*
X133296083Y-100707349D01*
X133311114Y-100683242D01*
X133327321Y-100660108D01*
X133344683Y-100637965D01*
X133363181Y-100616836D01*
X133382792Y-100596741D01*
X133403497Y-100577701D01*
X133425274Y-100559738D01*
X133448102Y-100542872D01*
X133471960Y-100527124D01*
X133496828Y-100512516D01*
X133522685Y-100499067D01*
X133549510Y-100486800D01*
X133577282Y-100475735D01*
X133605979Y-100465894D01*
X133635582Y-100457296D01*
X133666069Y-100449964D01*
X133697420Y-100443917D01*
X133729613Y-100439178D01*
X133762628Y-100435767D01*
X133796444Y-100433705D01*
X133831039Y-100433013D01*
X133866671Y-100433733D01*
G37*
G36*
X133204455Y-101614436D02*
G01*
X133204410Y-101615637D01*
X133204410Y-101612999D01*
X133204455Y-101614436D01*
G37*
G36*
X132072198Y-101604792D02*
G01*
X132072198Y-101525951D01*
X132090648Y-101525935D01*
X132107058Y-101525822D01*
X132121545Y-101525516D01*
X132134228Y-101524920D01*
X132150122Y-101523272D01*
X132162614Y-101520428D01*
X132174661Y-101514214D01*
X132182299Y-101504522D01*
X132186467Y-101490579D01*
X132187879Y-101476868D01*
X132188262Y-101460005D01*
X132188262Y-100845685D01*
X132495715Y-100859168D01*
X132495715Y-100938302D01*
X132477216Y-100938318D01*
X132460770Y-100938431D01*
X132446258Y-100938737D01*
X132433561Y-100939333D01*
X132417660Y-100940981D01*
X132405176Y-100943825D01*
X132393156Y-100950039D01*
X132385554Y-100959731D01*
X132381420Y-100973674D01*
X132380026Y-100987385D01*
X132379650Y-101004248D01*
X132379650Y-101326648D01*
X132379900Y-101339473D01*
X132380642Y-101352004D01*
X132381867Y-101364232D01*
X132383568Y-101376152D01*
X132385734Y-101387756D01*
X132391430Y-101409984D01*
X132398884Y-101430857D01*
X132408025Y-101450317D01*
X132418782Y-101468303D01*
X132431084Y-101484758D01*
X132444861Y-101499620D01*
X132460041Y-101512832D01*
X132476555Y-101524334D01*
X132494330Y-101534067D01*
X132513297Y-101541971D01*
X132533384Y-101547987D01*
X132554521Y-101552057D01*
X132576636Y-101554120D01*
X132588038Y-101554381D01*
X132599796Y-101554258D01*
X132621220Y-101553269D01*
X132639998Y-101551283D01*
X132656306Y-101548287D01*
X132670316Y-101544272D01*
X132682203Y-101539225D01*
X132696433Y-101529700D01*
X132706864Y-101517796D01*
X132714082Y-101503476D01*
X132718675Y-101486704D01*
X132720568Y-101474143D01*
X132721728Y-101460466D01*
X132722331Y-101445661D01*
X132722548Y-101429718D01*
X132722567Y-101421317D01*
X132722567Y-100845685D01*
X133030020Y-100859168D01*
X133030020Y-100938302D01*
X133011522Y-100938318D01*
X132995076Y-100938431D01*
X132980564Y-100938737D01*
X132967867Y-100939333D01*
X132951965Y-100940981D01*
X132939482Y-100943825D01*
X132927462Y-100950039D01*
X132919859Y-100959731D01*
X132915726Y-100973674D01*
X132914332Y-100987385D01*
X132913956Y-101004248D01*
X132913956Y-101397577D01*
X132913561Y-101414059D01*
X132912388Y-101429720D01*
X132910457Y-101444581D01*
X132907787Y-101458660D01*
X132904398Y-101471978D01*
X132900308Y-101484553D01*
X132895538Y-101496406D01*
X132890106Y-101507555D01*
X132884031Y-101518020D01*
X132877334Y-101527820D01*
X132862148Y-101545506D01*
X132844701Y-101560768D01*
X132825149Y-101573761D01*
X132814632Y-101579456D01*
X132803647Y-101584642D01*
X132792212Y-101589340D01*
X132780348Y-101593567D01*
X132768073Y-101597345D01*
X132755407Y-101600691D01*
X132742369Y-101603627D01*
X132728979Y-101606171D01*
X132715255Y-101608342D01*
X132701218Y-101610161D01*
X132686886Y-101611647D01*
X132672279Y-101612818D01*
X132657416Y-101613696D01*
X132642317Y-101614299D01*
X132627000Y-101614646D01*
X132611486Y-101614757D01*
X132597263Y-101614649D01*
X132579560Y-101613894D01*
X132566121Y-101612710D01*
X132551579Y-101610759D01*
X132536112Y-101607849D01*
X132519898Y-101603786D01*
X132503115Y-101598381D01*
X132485941Y-101591440D01*
X132468552Y-101582772D01*
X132451128Y-101572185D01*
X132433845Y-101559487D01*
X132416882Y-101544486D01*
X132408575Y-101536061D01*
X132400415Y-101526990D01*
X132392424Y-101517246D01*
X132384624Y-101506807D01*
X132377037Y-101495648D01*
X132369685Y-101483745D01*
X132369685Y-101614757D01*
X132072198Y-101604792D01*
G37*
G36*
X130461953Y-101596000D02*
G01*
X130461953Y-101517158D01*
X130577724Y-101517158D01*
X130577724Y-101086314D01*
X130577976Y-101070538D01*
X130578731Y-101055356D01*
X130579990Y-101040761D01*
X130581752Y-101026747D01*
X130584019Y-101013308D01*
X130586789Y-101000438D01*
X130590065Y-100988131D01*
X130593844Y-100976381D01*
X130598129Y-100965182D01*
X130608214Y-100944412D01*
X130620322Y-100925773D01*
X130634453Y-100909216D01*
X130650609Y-100894692D01*
X130668794Y-100882153D01*
X130689007Y-100871551D01*
X130699875Y-100866961D01*
X130711250Y-100862837D01*
X130723134Y-100859172D01*
X130735527Y-100855962D01*
X130748428Y-100853199D01*
X130761837Y-100850878D01*
X130775756Y-100848992D01*
X130790184Y-100847537D01*
X130805121Y-100846504D01*
X130820568Y-100845889D01*
X130836524Y-100845685D01*
X130850676Y-100845929D01*
X130864446Y-100846649D01*
X130877841Y-100847828D01*
X130890862Y-100849450D01*
X130903515Y-100851498D01*
X130915804Y-100853954D01*
X130927732Y-100856804D01*
X130939303Y-100860029D01*
X130950522Y-100863612D01*
X130971919Y-100871790D01*
X130991953Y-100881202D01*
X131010659Y-100891715D01*
X131028067Y-100903195D01*
X131044210Y-100915508D01*
X131059121Y-100928520D01*
X131072830Y-100942097D01*
X131085372Y-100956105D01*
X131096777Y-100970410D01*
X131107078Y-100984878D01*
X131116307Y-100999375D01*
X131120530Y-101006593D01*
X131124011Y-100992438D01*
X131128165Y-100979138D01*
X131132952Y-100966666D01*
X131138333Y-100954995D01*
X131144270Y-100944099D01*
X131150723Y-100933951D01*
X131165025Y-100915794D01*
X131180927Y-100900310D01*
X131198119Y-100887288D01*
X131216290Y-100876514D01*
X131235128Y-100867777D01*
X131254325Y-100860864D01*
X131273567Y-100855562D01*
X131292545Y-100851659D01*
X131310948Y-100848942D01*
X131328464Y-100847198D01*
X131344784Y-100846216D01*
X131359595Y-100845783D01*
X131372588Y-100845685D01*
X131386125Y-100845906D01*
X131399370Y-100846560D01*
X131412325Y-100847641D01*
X131424990Y-100849140D01*
X131437367Y-100851048D01*
X131449459Y-100853357D01*
X131461265Y-100856059D01*
X131472789Y-100859145D01*
X131484031Y-100862606D01*
X131505676Y-100870622D01*
X131526212Y-100880040D01*
X131545652Y-100890792D01*
X131564007Y-100902810D01*
X131581290Y-100916028D01*
X131597513Y-100930378D01*
X131612687Y-100945792D01*
X131626824Y-100962204D01*
X131639937Y-100979545D01*
X131652038Y-100997748D01*
X131663139Y-101016747D01*
X131668318Y-101026523D01*
X131668318Y-100845685D01*
X131957306Y-100860633D01*
X131957306Y-100939475D01*
X131938807Y-100939491D01*
X131922361Y-100939601D01*
X131907849Y-100939902D01*
X131895152Y-100940487D01*
X131879251Y-100942106D01*
X131866767Y-100944899D01*
X131854747Y-100951003D01*
X131847145Y-100960523D01*
X131843011Y-100974218D01*
X131841617Y-100987685D01*
X131841242Y-101004248D01*
X131841242Y-101517158D01*
X131957306Y-101517158D01*
X131957306Y-101596000D01*
X131745401Y-101591017D01*
X131533789Y-101596000D01*
X131533789Y-101517158D01*
X131649853Y-101517158D01*
X131649853Y-101170431D01*
X131649430Y-101153767D01*
X131648185Y-101137680D01*
X131646152Y-101122168D01*
X131643365Y-101107227D01*
X131639859Y-101092853D01*
X131635668Y-101079044D01*
X131630827Y-101065796D01*
X131625371Y-101053107D01*
X131619333Y-101040973D01*
X131612748Y-101029391D01*
X131605650Y-101018358D01*
X131598075Y-101007870D01*
X131590057Y-100997925D01*
X131581629Y-100988519D01*
X131572826Y-100979649D01*
X131563684Y-100971312D01*
X131554236Y-100963505D01*
X131544516Y-100956224D01*
X131534560Y-100949467D01*
X131524402Y-100943231D01*
X131514075Y-100937511D01*
X131493057Y-100927611D01*
X131471780Y-100919741D01*
X131450521Y-100913876D01*
X131429556Y-100909991D01*
X131409159Y-100908061D01*
X131399260Y-100907821D01*
X131383732Y-100908752D01*
X131369354Y-100911747D01*
X131356208Y-100917106D01*
X131344375Y-100925132D01*
X131333940Y-100936125D01*
X131324984Y-100950387D01*
X131319876Y-100961860D01*
X131315487Y-100975009D01*
X131311841Y-100989923D01*
X131308962Y-101006692D01*
X131306876Y-101025405D01*
X131305606Y-101046152D01*
X131305177Y-101069021D01*
X131305177Y-101517158D01*
X131421242Y-101517158D01*
X131421242Y-101596000D01*
X131209630Y-101591017D01*
X130997724Y-101596000D01*
X130997724Y-101517158D01*
X131113789Y-101517158D01*
X131113789Y-101170431D01*
X131113366Y-101153767D01*
X131112121Y-101137680D01*
X131110088Y-101122168D01*
X131107301Y-101107227D01*
X131103796Y-101092853D01*
X131099606Y-101079044D01*
X131094766Y-101065796D01*
X131089311Y-101053107D01*
X131083275Y-101040973D01*
X131076692Y-101029391D01*
X131069598Y-101018358D01*
X131062027Y-101007870D01*
X131054012Y-100997925D01*
X131045589Y-100988519D01*
X131036792Y-100979649D01*
X131027656Y-100971312D01*
X131018216Y-100963505D01*
X131008504Y-100956224D01*
X130998557Y-100949467D01*
X130988409Y-100943231D01*
X130978094Y-100937511D01*
X130957101Y-100927611D01*
X130935856Y-100919741D01*
X130914633Y-100913876D01*
X130893709Y-100909991D01*
X130873361Y-100908061D01*
X130863489Y-100907821D01*
X130847961Y-100908752D01*
X130833583Y-100911747D01*
X130820437Y-100917106D01*
X130808604Y-100925132D01*
X130798169Y-100936125D01*
X130789213Y-100950387D01*
X130784105Y-100961860D01*
X130779716Y-100975009D01*
X130776069Y-100989923D01*
X130773191Y-101006692D01*
X130771105Y-101025405D01*
X130769835Y-101046152D01*
X130769406Y-101069021D01*
X130769406Y-101517158D01*
X130885177Y-101517158D01*
X130885177Y-101596000D01*
X130673565Y-101591017D01*
X130461953Y-101596000D01*
G37*
G36*
X129438185Y-101596000D02*
G01*
X129438185Y-101517158D01*
X129466615Y-101517158D01*
X129479419Y-101517076D01*
X129495933Y-101516613D01*
X129509585Y-101515683D01*
X129524054Y-101513603D01*
X129537529Y-101509429D01*
X129547674Y-101503218D01*
X129556416Y-101494662D01*
X129565680Y-101483452D01*
X129849685Y-101126174D01*
X129631332Y-100955302D01*
X129620540Y-100947042D01*
X129608535Y-100939920D01*
X129596434Y-100935114D01*
X129585092Y-100932065D01*
X129571226Y-100929519D01*
X129554315Y-100927498D01*
X129541092Y-100926454D01*
X129526129Y-100925661D01*
X129509272Y-100925125D01*
X129490367Y-100924854D01*
X129480097Y-100924820D01*
X129480097Y-100845685D01*
X129492786Y-100846060D01*
X129505315Y-100846365D01*
X129517711Y-100846607D01*
X129529999Y-100846793D01*
X129542207Y-100846931D01*
X129554359Y-100847028D01*
X129566483Y-100847091D01*
X129578603Y-100847128D01*
X129590747Y-100847145D01*
X129602940Y-100847151D01*
X129611109Y-100847151D01*
X129804256Y-100845685D01*
X129804256Y-100924820D01*
X129791246Y-100923815D01*
X129778673Y-100923735D01*
X129766228Y-100925773D01*
X129755173Y-100931968D01*
X129747103Y-100939475D01*
X130064814Y-101190068D01*
X130064814Y-100433013D01*
X130362009Y-100451771D01*
X130362009Y-100530905D01*
X130343562Y-100530921D01*
X130327162Y-100531032D01*
X130312688Y-100531334D01*
X130300025Y-100531922D01*
X130284164Y-100533548D01*
X130271711Y-100536354D01*
X130259719Y-100542486D01*
X130252132Y-100552049D01*
X130248006Y-100565805D01*
X130246614Y-100579334D01*
X130246238Y-100595972D01*
X130246238Y-101517158D01*
X130362009Y-101517158D01*
X130362009Y-101596000D01*
X130160655Y-101591017D01*
X129957250Y-101596000D01*
X129957250Y-101517158D01*
X130073021Y-101517158D01*
X130073021Y-101305546D01*
X130060219Y-101295463D01*
X130049000Y-101286673D01*
X130039090Y-101278971D01*
X130027444Y-101270038D01*
X130016997Y-101262185D01*
X130007103Y-101254924D01*
X129997116Y-101247769D01*
X129986390Y-101240230D01*
X129977473Y-101234032D01*
X129807773Y-101443885D01*
X129799918Y-101454055D01*
X129791231Y-101465240D01*
X129782598Y-101476482D01*
X129774904Y-101486821D01*
X129768157Y-101496685D01*
X129765568Y-101502210D01*
X129773300Y-101512301D01*
X129785488Y-101515618D01*
X129798226Y-101516825D01*
X129811439Y-101517146D01*
X129817738Y-101517158D01*
X129817738Y-101596000D01*
X129801226Y-101595132D01*
X129787981Y-101594597D01*
X129773346Y-101594097D01*
X129757663Y-101593634D01*
X129741277Y-101593206D01*
X129724528Y-101592815D01*
X129707760Y-101592462D01*
X129691316Y-101592146D01*
X129675537Y-101591868D01*
X129660767Y-101591628D01*
X129647347Y-101591428D01*
X129635622Y-101591266D01*
X129621959Y-101591099D01*
X129612867Y-101591017D01*
X129595894Y-101591063D01*
X129579090Y-101591200D01*
X129562440Y-101591428D01*
X129545928Y-101591743D01*
X129529537Y-101592146D01*
X129513252Y-101592634D01*
X129497056Y-101593206D01*
X129480935Y-101593861D01*
X129464872Y-101594597D01*
X129448850Y-101595412D01*
X129438185Y-101596000D01*
G37*
G36*
X128372212Y-101604792D02*
G01*
X128372212Y-101525951D01*
X128390661Y-101525935D01*
X128407072Y-101525822D01*
X128421559Y-101525516D01*
X128434242Y-101524920D01*
X128450136Y-101523272D01*
X128462628Y-101520428D01*
X128474675Y-101514214D01*
X128482313Y-101504522D01*
X128486481Y-101490579D01*
X128487893Y-101476868D01*
X128488276Y-101460005D01*
X128488276Y-100845685D01*
X128795729Y-100859168D01*
X128795729Y-100938302D01*
X128777230Y-100938318D01*
X128760784Y-100938431D01*
X128746272Y-100938737D01*
X128733575Y-100939333D01*
X128717674Y-100940981D01*
X128705190Y-100943825D01*
X128693170Y-100950039D01*
X128685568Y-100959731D01*
X128681434Y-100973674D01*
X128680040Y-100987385D01*
X128679664Y-101004248D01*
X128679664Y-101326648D01*
X128679914Y-101339473D01*
X128680656Y-101352004D01*
X128681881Y-101364232D01*
X128683582Y-101376152D01*
X128685748Y-101387756D01*
X128691444Y-101409984D01*
X128698898Y-101430857D01*
X128708038Y-101450317D01*
X128718795Y-101468303D01*
X128731098Y-101484758D01*
X128744875Y-101499620D01*
X128760055Y-101512832D01*
X128776569Y-101524334D01*
X128794344Y-101534067D01*
X128813311Y-101541971D01*
X128833398Y-101547987D01*
X128854535Y-101552057D01*
X128876650Y-101554120D01*
X128888052Y-101554381D01*
X128899810Y-101554258D01*
X128921234Y-101553269D01*
X128940012Y-101551283D01*
X128956320Y-101548287D01*
X128970330Y-101544272D01*
X128982217Y-101539225D01*
X128996447Y-101529700D01*
X129006878Y-101517796D01*
X129014096Y-101503476D01*
X129018689Y-101486704D01*
X129020582Y-101474143D01*
X129021742Y-101460466D01*
X129022344Y-101445661D01*
X129022562Y-101429718D01*
X129022581Y-101421317D01*
X129022581Y-100845685D01*
X129330034Y-100859168D01*
X129330034Y-100938302D01*
X129311536Y-100938318D01*
X129295090Y-100938431D01*
X129280578Y-100938737D01*
X129267881Y-100939333D01*
X129251979Y-100940981D01*
X129239496Y-100943825D01*
X129227476Y-100950039D01*
X129219873Y-100959731D01*
X129215740Y-100973674D01*
X129214346Y-100987385D01*
X129213970Y-101004248D01*
X129213970Y-101397577D01*
X129213575Y-101414059D01*
X129212402Y-101429720D01*
X129210471Y-101444581D01*
X129207801Y-101458660D01*
X129204412Y-101471978D01*
X129200322Y-101484553D01*
X129195552Y-101496406D01*
X129190120Y-101507555D01*
X129184045Y-101518020D01*
X129177348Y-101527820D01*
X129162162Y-101545506D01*
X129144715Y-101560768D01*
X129125163Y-101573761D01*
X129114646Y-101579456D01*
X129103661Y-101584642D01*
X129092226Y-101589340D01*
X129080362Y-101593567D01*
X129068087Y-101597345D01*
X129055421Y-101600691D01*
X129042383Y-101603627D01*
X129028993Y-101606171D01*
X129015269Y-101608342D01*
X129001232Y-101610161D01*
X128986900Y-101611647D01*
X128972293Y-101612818D01*
X128957430Y-101613696D01*
X128942331Y-101614299D01*
X128927014Y-101614646D01*
X128911500Y-101614757D01*
X128897277Y-101614649D01*
X128879574Y-101613894D01*
X128866135Y-101612710D01*
X128851593Y-101610759D01*
X128836126Y-101607849D01*
X128819912Y-101603786D01*
X128803129Y-101598381D01*
X128785955Y-101591440D01*
X128768566Y-101582772D01*
X128751142Y-101572185D01*
X128733859Y-101559487D01*
X128716895Y-101544486D01*
X128708589Y-101536061D01*
X128700429Y-101526990D01*
X128692438Y-101517246D01*
X128684638Y-101506807D01*
X128677051Y-101495648D01*
X128669699Y-101483745D01*
X128669699Y-101614757D01*
X128372212Y-101604792D01*
G37*
G36*
X127930302Y-100827040D02*
G01*
X127951533Y-100827509D01*
X127974410Y-100828533D01*
X127986323Y-100829316D01*
X127998474Y-100830312D01*
X128010807Y-100831546D01*
X128023263Y-100833044D01*
X128035784Y-100834829D01*
X128048315Y-100836928D01*
X128060795Y-100839364D01*
X128073169Y-100842162D01*
X128085378Y-100845348D01*
X128097365Y-100848946D01*
X128109072Y-100852981D01*
X128120441Y-100857478D01*
X128131415Y-100862462D01*
X128141937Y-100867958D01*
X128161390Y-100880583D01*
X128178341Y-100895552D01*
X128192327Y-100913065D01*
X128202888Y-100933320D01*
X128206740Y-100944538D01*
X128209563Y-100956516D01*
X128211299Y-100969279D01*
X128211891Y-100982852D01*
X128211218Y-100996422D01*
X128209270Y-101009004D01*
X128206154Y-101020614D01*
X128199521Y-101036240D01*
X128190855Y-101049766D01*
X128180514Y-101061245D01*
X128168855Y-101070727D01*
X128156238Y-101078266D01*
X128143019Y-101083914D01*
X128129556Y-101087722D01*
X128116208Y-101089743D01*
X128107550Y-101090124D01*
X128092952Y-101089181D01*
X128078522Y-101086352D01*
X128064537Y-101081638D01*
X128051275Y-101075039D01*
X128039011Y-101066553D01*
X128028023Y-101056182D01*
X128018587Y-101043926D01*
X128010981Y-101029784D01*
X128005480Y-101013756D01*
X128003120Y-101002023D01*
X128001900Y-100989452D01*
X128001744Y-100982852D01*
X128002538Y-100969092D01*
X128004725Y-100956509D01*
X128008015Y-100945124D01*
X128013612Y-100931838D01*
X128019960Y-100920757D01*
X128027900Y-100910077D01*
X128036610Y-100901198D01*
X128038673Y-100899614D01*
X128025333Y-100896948D01*
X128011824Y-100894696D01*
X127998350Y-100892826D01*
X127985113Y-100891304D01*
X127972317Y-100890097D01*
X127960165Y-100889172D01*
X127945313Y-100888318D01*
X127932446Y-100887827D01*
X127919887Y-100887603D01*
X127917920Y-100887598D01*
X127895074Y-100888432D01*
X127873789Y-100890923D01*
X127854053Y-100895049D01*
X127835854Y-100900791D01*
X127819180Y-100908129D01*
X127804019Y-100917041D01*
X127790360Y-100927509D01*
X127778188Y-100939511D01*
X127767494Y-100953029D01*
X127758265Y-100968040D01*
X127750489Y-100984526D01*
X127744153Y-101002466D01*
X127739247Y-101021841D01*
X127735757Y-101042629D01*
X127733672Y-101064810D01*
X127732979Y-101088365D01*
X127732979Y-101146104D01*
X127745041Y-101147833D01*
X127758769Y-101149585D01*
X127774031Y-101151403D01*
X127790690Y-101153330D01*
X127808613Y-101155407D01*
X127827666Y-101157677D01*
X127847713Y-101160183D01*
X127868621Y-101162966D01*
X127890255Y-101166070D01*
X127912480Y-101169536D01*
X127935163Y-101173408D01*
X127958168Y-101177727D01*
X127981361Y-101182536D01*
X128004609Y-101187877D01*
X128027775Y-101193793D01*
X128050727Y-101200326D01*
X128073329Y-101207518D01*
X128095447Y-101215413D01*
X128116947Y-101224051D01*
X128137694Y-101233476D01*
X128157554Y-101243731D01*
X128176392Y-101254856D01*
X128194075Y-101266896D01*
X128210466Y-101279891D01*
X128225433Y-101293886D01*
X128238840Y-101308921D01*
X128250554Y-101325040D01*
X128260439Y-101342284D01*
X128268361Y-101360697D01*
X128274187Y-101380320D01*
X128277781Y-101401197D01*
X128279008Y-101423369D01*
X128278407Y-101438100D01*
X128276640Y-101452083D01*
X128273762Y-101465335D01*
X128269828Y-101477875D01*
X128264894Y-101489720D01*
X128259014Y-101500891D01*
X128252244Y-101511404D01*
X128244639Y-101521280D01*
X128236254Y-101530535D01*
X128227143Y-101539188D01*
X128217363Y-101547259D01*
X128206968Y-101554765D01*
X128196013Y-101561725D01*
X128184554Y-101568158D01*
X128172646Y-101574081D01*
X128160343Y-101579513D01*
X128147701Y-101584473D01*
X128134775Y-101588980D01*
X128121620Y-101593051D01*
X128108291Y-101596705D01*
X128094844Y-101599960D01*
X128081333Y-101602836D01*
X128067813Y-101605350D01*
X128054340Y-101607522D01*
X128040969Y-101609368D01*
X128027755Y-101610909D01*
X128014752Y-101612162D01*
X128002017Y-101613145D01*
X127989604Y-101613878D01*
X127977568Y-101614379D01*
X127954849Y-101614757D01*
X127942400Y-101614957D01*
X127930274Y-101614740D01*
X127918470Y-101614121D01*
X127895815Y-101611724D01*
X127874415Y-101607872D01*
X127854249Y-101602670D01*
X127835298Y-101596221D01*
X127817540Y-101588632D01*
X127800957Y-101580006D01*
X127785528Y-101570448D01*
X127771232Y-101560063D01*
X127758050Y-101548956D01*
X127745961Y-101537232D01*
X127734945Y-101524995D01*
X127724982Y-101512351D01*
X127716052Y-101499403D01*
X127708135Y-101486257D01*
X127704549Y-101479642D01*
X127704405Y-101491590D01*
X127703396Y-101504964D01*
X127700657Y-101519196D01*
X127695322Y-101533718D01*
X127686527Y-101547961D01*
X127678315Y-101557021D01*
X127667923Y-101565538D01*
X127655097Y-101573341D01*
X127639580Y-101580263D01*
X127621114Y-101586137D01*
X127599445Y-101590792D01*
X127587329Y-101592611D01*
X127574316Y-101594062D01*
X127560374Y-101595124D01*
X127545470Y-101595777D01*
X127529574Y-101596000D01*
X127448974Y-101596000D01*
X127437076Y-101595921D01*
X127424068Y-101595106D01*
X127411406Y-101591864D01*
X127401048Y-101582952D01*
X127396792Y-101571880D01*
X127395397Y-101559494D01*
X127395338Y-101555846D01*
X127396313Y-101543076D01*
X127400009Y-101531523D01*
X127408930Y-101521994D01*
X127421007Y-101518019D01*
X127432851Y-101517190D01*
X127439008Y-101517158D01*
X127457065Y-101516592D01*
X127472869Y-101515556D01*
X127486568Y-101514055D01*
X127498314Y-101512093D01*
X127512598Y-101508294D01*
X127523333Y-101503483D01*
X127533000Y-101495516D01*
X127539308Y-101483112D01*
X127541199Y-101471275D01*
X127541587Y-101457774D01*
X127541590Y-101454143D01*
X127541590Y-101202085D01*
X127732979Y-101202085D01*
X127732979Y-101362699D01*
X127733424Y-101378153D01*
X127734724Y-101392769D01*
X127736832Y-101406568D01*
X127739698Y-101419573D01*
X127743275Y-101431808D01*
X127747512Y-101443295D01*
X127752361Y-101454057D01*
X127763699Y-101473498D01*
X127776900Y-101490314D01*
X127791572Y-101504687D01*
X127807325Y-101516801D01*
X127823768Y-101526837D01*
X127840509Y-101534981D01*
X127857160Y-101541413D01*
X127873328Y-101546317D01*
X127888624Y-101549876D01*
X127902656Y-101552273D01*
X127915033Y-101553690D01*
X127929643Y-101554381D01*
X127945462Y-101553684D01*
X127960776Y-101551638D01*
X127975516Y-101548308D01*
X127989608Y-101543761D01*
X128002983Y-101538060D01*
X128015568Y-101531274D01*
X128027294Y-101523466D01*
X128038087Y-101514703D01*
X128047878Y-101505051D01*
X128056594Y-101494574D01*
X128064165Y-101483340D01*
X128070520Y-101471413D01*
X128075586Y-101458859D01*
X128079293Y-101445744D01*
X128081569Y-101432133D01*
X128082344Y-101418093D01*
X128081581Y-101401088D01*
X128079345Y-101385006D01*
X128075718Y-101369822D01*
X128070782Y-101355509D01*
X128064620Y-101342041D01*
X128057311Y-101329391D01*
X128048939Y-101317534D01*
X128039585Y-101306443D01*
X128029330Y-101296093D01*
X128018257Y-101286457D01*
X128006447Y-101277508D01*
X127993982Y-101269221D01*
X127980944Y-101261569D01*
X127967414Y-101254527D01*
X127953474Y-101248067D01*
X127939206Y-101242165D01*
X127924691Y-101236793D01*
X127910012Y-101231926D01*
X127895249Y-101227536D01*
X127880486Y-101223599D01*
X127865803Y-101220088D01*
X127851282Y-101216977D01*
X127837005Y-101214239D01*
X127823054Y-101211848D01*
X127809511Y-101209779D01*
X127796456Y-101208004D01*
X127783973Y-101206499D01*
X127772142Y-101205235D01*
X127750765Y-101203332D01*
X127732979Y-101202085D01*
X127541590Y-101202085D01*
X127541590Y-101088365D01*
X127541940Y-101074283D01*
X127542991Y-101060458D01*
X127544745Y-101046901D01*
X127547205Y-101033626D01*
X127550372Y-101020645D01*
X127554249Y-101007970D01*
X127558838Y-100995614D01*
X127564140Y-100983590D01*
X127570159Y-100971909D01*
X127576896Y-100960585D01*
X127584353Y-100949629D01*
X127592533Y-100939055D01*
X127601438Y-100928875D01*
X127611070Y-100919101D01*
X127621430Y-100909747D01*
X127632522Y-100900823D01*
X127644347Y-100892344D01*
X127656908Y-100884321D01*
X127670206Y-100876767D01*
X127684244Y-100869694D01*
X127699023Y-100863116D01*
X127714547Y-100857044D01*
X127730817Y-100851490D01*
X127747835Y-100846469D01*
X127765604Y-100841991D01*
X127784125Y-100838069D01*
X127803401Y-100834717D01*
X127823434Y-100831946D01*
X127844227Y-100829769D01*
X127865780Y-100828199D01*
X127888097Y-100827248D01*
X127911179Y-100826928D01*
X127930302Y-100827040D01*
G37*
G36*
X126752002Y-101393180D02*
G01*
X126752002Y-101302322D01*
X126830844Y-101302322D01*
X126830844Y-101389956D01*
X126831461Y-101410950D01*
X126833253Y-101430223D01*
X126836130Y-101447825D01*
X126840003Y-101463806D01*
X126844783Y-101478218D01*
X126850380Y-101491111D01*
X126856706Y-101502535D01*
X126863670Y-101512542D01*
X126875119Y-101525005D01*
X126887503Y-101534563D01*
X126900521Y-101541387D01*
X126913871Y-101545648D01*
X126927252Y-101547518D01*
X126931667Y-101547639D01*
X126948847Y-101546399D01*
X126963883Y-101542852D01*
X126976917Y-101537263D01*
X126988092Y-101529894D01*
X126997552Y-101521008D01*
X127005439Y-101510870D01*
X127011896Y-101499741D01*
X127017067Y-101487885D01*
X127021094Y-101475566D01*
X127024120Y-101463046D01*
X127026288Y-101450589D01*
X127027742Y-101438458D01*
X127028894Y-101421448D01*
X127029243Y-101406652D01*
X127029267Y-101398456D01*
X127029267Y-100924820D01*
X126783949Y-100924820D01*
X126783949Y-100845685D01*
X127029267Y-100845685D01*
X127029267Y-100526802D01*
X127108108Y-100526802D01*
X127108509Y-100542454D01*
X127109383Y-100558067D01*
X127110731Y-100573611D01*
X127112552Y-100589059D01*
X127114848Y-100604380D01*
X127117619Y-100619546D01*
X127120867Y-100634527D01*
X127124590Y-100649296D01*
X127128791Y-100663822D01*
X127133469Y-100678078D01*
X127138625Y-100692033D01*
X127144260Y-100705659D01*
X127150374Y-100718927D01*
X127156968Y-100731808D01*
X127164043Y-100744273D01*
X127171599Y-100756293D01*
X127179637Y-100767839D01*
X127188157Y-100778882D01*
X127197160Y-100789393D01*
X127206646Y-100799343D01*
X127216616Y-100808703D01*
X127227071Y-100817444D01*
X127238012Y-100825538D01*
X127249438Y-100832954D01*
X127261350Y-100839665D01*
X127273750Y-100845641D01*
X127286637Y-100850853D01*
X127300013Y-100855273D01*
X127313877Y-100858870D01*
X127328231Y-100861617D01*
X127343074Y-100863485D01*
X127358408Y-100864443D01*
X127358408Y-100924820D01*
X127220655Y-100924820D01*
X127220655Y-101394939D01*
X127220232Y-101411660D01*
X127218984Y-101427547D01*
X127216942Y-101442618D01*
X127214138Y-101456893D01*
X127210604Y-101470394D01*
X127206372Y-101483138D01*
X127201473Y-101495148D01*
X127195939Y-101506442D01*
X127189803Y-101517040D01*
X127183094Y-101526963D01*
X127175846Y-101536230D01*
X127159857Y-101552878D01*
X127142089Y-101567143D01*
X127122797Y-101579184D01*
X127102234Y-101589163D01*
X127080653Y-101597237D01*
X127058309Y-101603568D01*
X127035455Y-101608315D01*
X127012345Y-101611637D01*
X126989233Y-101613694D01*
X126966371Y-101614646D01*
X126955115Y-101614757D01*
X126943315Y-101614478D01*
X126920644Y-101612278D01*
X126899242Y-101607971D01*
X126879142Y-101601656D01*
X126860380Y-101593431D01*
X126842990Y-101583393D01*
X126827007Y-101571640D01*
X126812467Y-101558271D01*
X126799403Y-101543382D01*
X126787850Y-101527072D01*
X126777844Y-101509439D01*
X126769418Y-101490581D01*
X126762609Y-101470595D01*
X126757450Y-101449580D01*
X126753976Y-101427633D01*
X126752223Y-101404853D01*
X126752002Y-101393180D01*
G37*
D11*
G36*
X123499874Y-101130863D02*
G01*
X123578715Y-101130863D01*
X123582215Y-101152627D01*
X123585822Y-101173890D01*
X123589581Y-101194640D01*
X123593540Y-101214866D01*
X123597744Y-101234553D01*
X123602241Y-101253690D01*
X123607077Y-101272265D01*
X123612297Y-101290264D01*
X123617949Y-101307675D01*
X123624079Y-101324487D01*
X123630733Y-101340685D01*
X123637958Y-101356258D01*
X123645800Y-101371194D01*
X123654306Y-101385479D01*
X123663522Y-101399101D01*
X123673494Y-101412048D01*
X123684269Y-101424307D01*
X123695893Y-101435866D01*
X123708413Y-101446712D01*
X123721875Y-101456833D01*
X123736326Y-101466216D01*
X123751811Y-101474849D01*
X123768378Y-101482719D01*
X123786073Y-101489813D01*
X123804942Y-101496120D01*
X123825031Y-101501627D01*
X123846388Y-101506320D01*
X123869058Y-101510188D01*
X123893088Y-101513219D01*
X123918525Y-101515399D01*
X123945414Y-101516716D01*
X123973802Y-101517158D01*
X124229085Y-101517158D01*
X124229085Y-101037367D01*
X124136761Y-101037367D01*
X124122042Y-101037581D01*
X124108147Y-101038221D01*
X124095053Y-101039282D01*
X124082738Y-101040761D01*
X124060348Y-101044958D01*
X124040788Y-101050781D01*
X124023871Y-101058199D01*
X124009409Y-101067182D01*
X123997215Y-101077699D01*
X123987102Y-101089721D01*
X123978880Y-101103216D01*
X123972364Y-101118153D01*
X123967365Y-101134504D01*
X123963695Y-101152236D01*
X123961168Y-101171320D01*
X123959595Y-101191725D01*
X123958789Y-101213421D01*
X123958562Y-101236376D01*
X123879427Y-101236376D01*
X123879427Y-100763620D01*
X123958562Y-100763620D01*
X123958773Y-100786091D01*
X123959535Y-100807325D01*
X123961042Y-100827291D01*
X123963489Y-100845960D01*
X123967070Y-100863304D01*
X123971978Y-100879293D01*
X123978407Y-100893897D01*
X123986552Y-100907088D01*
X123996607Y-100918837D01*
X124008765Y-100929113D01*
X124023221Y-100937889D01*
X124040169Y-100945135D01*
X124059803Y-100950821D01*
X124082317Y-100954919D01*
X124094715Y-100956363D01*
X124107905Y-100957399D01*
X124121913Y-100958024D01*
X124136761Y-100958233D01*
X124229085Y-100958233D01*
X124229085Y-100530905D01*
X123973802Y-100530905D01*
X123949099Y-100531264D01*
X123925686Y-100532334D01*
X123903526Y-100534109D01*
X123882580Y-100536580D01*
X123862808Y-100539740D01*
X123844174Y-100543581D01*
X123826638Y-100548096D01*
X123810161Y-100553276D01*
X123794706Y-100559115D01*
X123780234Y-100565604D01*
X123766707Y-100572736D01*
X123754085Y-100580504D01*
X123742331Y-100588898D01*
X123731406Y-100597913D01*
X123721271Y-100607539D01*
X123711889Y-100617770D01*
X123703220Y-100628598D01*
X123695226Y-100640015D01*
X123687868Y-100652013D01*
X123681109Y-100664585D01*
X123674909Y-100677723D01*
X123669231Y-100691420D01*
X123664035Y-100705667D01*
X123659283Y-100720458D01*
X123654937Y-100735783D01*
X123650959Y-100751637D01*
X123647309Y-100768010D01*
X123643949Y-100784896D01*
X123640841Y-100802286D01*
X123637947Y-100820174D01*
X123635227Y-100838551D01*
X123632644Y-100857409D01*
X123553509Y-100857409D01*
X123605680Y-100451771D01*
X124649085Y-100451771D01*
X124649085Y-100530905D01*
X124467662Y-100530905D01*
X124467662Y-101517158D01*
X124649085Y-101517158D01*
X124649085Y-101596000D01*
X123577250Y-101596000D01*
X123499874Y-101130863D01*
G37*
G36*
X122173049Y-100872650D02*
G01*
X122208220Y-100470528D01*
X123338966Y-100470528D01*
X123374431Y-100872650D01*
X123295296Y-100872650D01*
X123293882Y-100855168D01*
X123292415Y-100838014D01*
X123290854Y-100821202D01*
X123289159Y-100804748D01*
X123287289Y-100788665D01*
X123285203Y-100772970D01*
X123282860Y-100757677D01*
X123280220Y-100742801D01*
X123277241Y-100728357D01*
X123273884Y-100714360D01*
X123270106Y-100700824D01*
X123265868Y-100687765D01*
X123261128Y-100675198D01*
X123255846Y-100663137D01*
X123249981Y-100651598D01*
X123243492Y-100640595D01*
X123236338Y-100630143D01*
X123228480Y-100620257D01*
X123219875Y-100610953D01*
X123210483Y-100602244D01*
X123200263Y-100594147D01*
X123189174Y-100586675D01*
X123177177Y-100579844D01*
X123164229Y-100573669D01*
X123150290Y-100568165D01*
X123135320Y-100563346D01*
X123119277Y-100559227D01*
X123102121Y-100555824D01*
X123083811Y-100553151D01*
X123064306Y-100551223D01*
X123043565Y-100550056D01*
X123021548Y-100549663D01*
X122892295Y-100549663D01*
X122892295Y-101517158D01*
X123149336Y-101517158D01*
X123149336Y-101596000D01*
X123131225Y-101595122D01*
X123111143Y-101594355D01*
X123089357Y-101593689D01*
X123066135Y-101593119D01*
X123054069Y-101592867D01*
X123041745Y-101592636D01*
X123029196Y-101592425D01*
X123016456Y-101592233D01*
X123003558Y-101592060D01*
X122990535Y-101591904D01*
X122977421Y-101591764D01*
X122964249Y-101591640D01*
X122951054Y-101591530D01*
X122937867Y-101591434D01*
X122924724Y-101591351D01*
X122911658Y-101591280D01*
X122898701Y-101591219D01*
X122885887Y-101591169D01*
X122873251Y-101591128D01*
X122860824Y-101591095D01*
X122848642Y-101591069D01*
X122836737Y-101591050D01*
X122813893Y-101591027D01*
X122792561Y-101591018D01*
X122773007Y-101591017D01*
X122753402Y-101591018D01*
X122732024Y-101591027D01*
X122709141Y-101591050D01*
X122697218Y-101591069D01*
X122685020Y-101591095D01*
X122672579Y-101591128D01*
X122659929Y-101591169D01*
X122647103Y-101591219D01*
X122634135Y-101591280D01*
X122621058Y-101591351D01*
X122607906Y-101591434D01*
X122594711Y-101591530D01*
X122581508Y-101591640D01*
X122568330Y-101591764D01*
X122555211Y-101591904D01*
X122542183Y-101592060D01*
X122529280Y-101592233D01*
X122516536Y-101592425D01*
X122503984Y-101592636D01*
X122491658Y-101592867D01*
X122479590Y-101593119D01*
X122467815Y-101593393D01*
X122445276Y-101594010D01*
X122424307Y-101594725D01*
X122405177Y-101595547D01*
X122396384Y-101596000D01*
X122396384Y-101517158D01*
X122653719Y-101517158D01*
X122653719Y-100549663D01*
X122525931Y-100549663D01*
X122504048Y-100550051D01*
X122483434Y-100551207D01*
X122464049Y-100553116D01*
X122445851Y-100555764D01*
X122428799Y-100559136D01*
X122412852Y-100563220D01*
X122397970Y-100568000D01*
X122384111Y-100573463D01*
X122371235Y-100579594D01*
X122359300Y-100586380D01*
X122348265Y-100593806D01*
X122338089Y-100601858D01*
X122328732Y-100610522D01*
X122320152Y-100619784D01*
X122312308Y-100629630D01*
X122305160Y-100640045D01*
X122298666Y-100651016D01*
X122292785Y-100662529D01*
X122287477Y-100674568D01*
X122282699Y-100687121D01*
X122278413Y-100700173D01*
X122274575Y-100713710D01*
X122271146Y-100727718D01*
X122268084Y-100742183D01*
X122265348Y-100757090D01*
X122262898Y-100772426D01*
X122260692Y-100788176D01*
X122258689Y-100804327D01*
X122256848Y-100820864D01*
X122255129Y-100837773D01*
X122253490Y-100855039D01*
X122251890Y-100872650D01*
X122173049Y-100872650D01*
G37*
G36*
X120656594Y-101596000D02*
G01*
X120656594Y-101517158D01*
X120838017Y-101517158D01*
X120838017Y-100530905D01*
X120656594Y-100530905D01*
X120656594Y-100451771D01*
X120669657Y-100452699D01*
X120684806Y-100453512D01*
X120701759Y-100454217D01*
X120720231Y-100454821D01*
X120739940Y-100455332D01*
X120760602Y-100455758D01*
X120781934Y-100456107D01*
X120803652Y-100456387D01*
X120825474Y-100456604D01*
X120847115Y-100456768D01*
X120868292Y-100456885D01*
X120888722Y-100456964D01*
X120908122Y-100457011D01*
X120926208Y-100457036D01*
X120942697Y-100457045D01*
X120957306Y-100457046D01*
X120971863Y-100457045D01*
X120988307Y-100457036D01*
X121006355Y-100457011D01*
X121025724Y-100456964D01*
X121046130Y-100456885D01*
X121067290Y-100456768D01*
X121088921Y-100456604D01*
X121110739Y-100456387D01*
X121132461Y-100456107D01*
X121153803Y-100455758D01*
X121174482Y-100455332D01*
X121194215Y-100454821D01*
X121212718Y-100454217D01*
X121229709Y-100453512D01*
X121244903Y-100452699D01*
X121258017Y-100451771D01*
X121258017Y-100530905D01*
X121076594Y-100530905D01*
X121076594Y-100958233D01*
X121615882Y-100958233D01*
X121615882Y-100530905D01*
X121434458Y-100530905D01*
X121434458Y-100451771D01*
X121447570Y-100452699D01*
X121462755Y-100453512D01*
X121479732Y-100454217D01*
X121498220Y-100454821D01*
X121517935Y-100455332D01*
X121538596Y-100455758D01*
X121559921Y-100456107D01*
X121581627Y-100456387D01*
X121603433Y-100456604D01*
X121625057Y-100456768D01*
X121646216Y-100456885D01*
X121666628Y-100456964D01*
X121686012Y-100457011D01*
X121704085Y-100457036D01*
X121720565Y-100457045D01*
X121735170Y-100457046D01*
X121749727Y-100457045D01*
X121766172Y-100457036D01*
X121784220Y-100457011D01*
X121803589Y-100456964D01*
X121823995Y-100456885D01*
X121845155Y-100456768D01*
X121866786Y-100456604D01*
X121888604Y-100456387D01*
X121910325Y-100456107D01*
X121931667Y-100455758D01*
X121952347Y-100455332D01*
X121972080Y-100454821D01*
X121990583Y-100454217D01*
X122007574Y-100453512D01*
X122022768Y-100452699D01*
X122035882Y-100451771D01*
X122035882Y-100530905D01*
X121854458Y-100530905D01*
X121854458Y-101517158D01*
X122035882Y-101517158D01*
X122035882Y-101596000D01*
X122022768Y-101595122D01*
X122007574Y-101594355D01*
X121990583Y-101593689D01*
X121972080Y-101593119D01*
X121952347Y-101592636D01*
X121931667Y-101592233D01*
X121910325Y-101591904D01*
X121888604Y-101591640D01*
X121866786Y-101591434D01*
X121845155Y-101591280D01*
X121823995Y-101591169D01*
X121803589Y-101591095D01*
X121784220Y-101591050D01*
X121766172Y-101591027D01*
X121749727Y-101591018D01*
X121735170Y-101591017D01*
X121720565Y-101591018D01*
X121704085Y-101591027D01*
X121686012Y-101591050D01*
X121666628Y-101591095D01*
X121646216Y-101591169D01*
X121625057Y-101591280D01*
X121603433Y-101591434D01*
X121581627Y-101591640D01*
X121559921Y-101591904D01*
X121538596Y-101592233D01*
X121517935Y-101592636D01*
X121498220Y-101593119D01*
X121479732Y-101593689D01*
X121462755Y-101594355D01*
X121447570Y-101595122D01*
X121434458Y-101596000D01*
X121434458Y-101517158D01*
X121615882Y-101517158D01*
X121615882Y-101037367D01*
X121076594Y-101037367D01*
X121076594Y-101517158D01*
X121258017Y-101517158D01*
X121258017Y-101596000D01*
X121244903Y-101595122D01*
X121229709Y-101594355D01*
X121212718Y-101593689D01*
X121194215Y-101593119D01*
X121174482Y-101592636D01*
X121153803Y-101592233D01*
X121132461Y-101591904D01*
X121110739Y-101591640D01*
X121088921Y-101591434D01*
X121067290Y-101591280D01*
X121046130Y-101591169D01*
X121025724Y-101591095D01*
X121006355Y-101591050D01*
X120988307Y-101591027D01*
X120971863Y-101591018D01*
X120957306Y-101591017D01*
X120942697Y-101591018D01*
X120926208Y-101591027D01*
X120908122Y-101591050D01*
X120888722Y-101591095D01*
X120868292Y-101591169D01*
X120847115Y-101591280D01*
X120825474Y-101591434D01*
X120803652Y-101591640D01*
X120781934Y-101591904D01*
X120760602Y-101592233D01*
X120739940Y-101592636D01*
X120720231Y-101593119D01*
X120701759Y-101593689D01*
X120684806Y-101594355D01*
X120669657Y-101595122D01*
X120656594Y-101596000D01*
G37*
G36*
X118864047Y-101122364D02*
G01*
X118943181Y-101122364D01*
X118944458Y-101139748D01*
X118945854Y-101157199D01*
X118947425Y-101174675D01*
X118949228Y-101192136D01*
X118951320Y-101209542D01*
X118953757Y-101226851D01*
X118956597Y-101244023D01*
X118959897Y-101261019D01*
X118963712Y-101277797D01*
X118968101Y-101294316D01*
X118973119Y-101310537D01*
X118978823Y-101326419D01*
X118985270Y-101341921D01*
X118992518Y-101357003D01*
X119000622Y-101371623D01*
X119009640Y-101385743D01*
X119019628Y-101399321D01*
X119030643Y-101412316D01*
X119042742Y-101424689D01*
X119055982Y-101436398D01*
X119070419Y-101447403D01*
X119086110Y-101457664D01*
X119103112Y-101467140D01*
X119121482Y-101475791D01*
X119141276Y-101483575D01*
X119162552Y-101490453D01*
X119185366Y-101496385D01*
X119209774Y-101501328D01*
X119235835Y-101505244D01*
X119263603Y-101508091D01*
X119293137Y-101509829D01*
X119324493Y-101510417D01*
X119559553Y-101510417D01*
X118889253Y-100534422D01*
X118882199Y-100523433D01*
X118877159Y-100512552D01*
X118875797Y-100500186D01*
X118875770Y-100493976D01*
X118876633Y-100480045D01*
X118880120Y-100467442D01*
X118887791Y-100458099D01*
X118899213Y-100453485D01*
X118911553Y-100452049D01*
X118926424Y-100451772D01*
X118929699Y-100451771D01*
X119793147Y-100451771D01*
X119813370Y-100854185D01*
X119734235Y-100854185D01*
X119732707Y-100833763D01*
X119730592Y-100814040D01*
X119727887Y-100795012D01*
X119724586Y-100776677D01*
X119720686Y-100759031D01*
X119716183Y-100742071D01*
X119711071Y-100725793D01*
X119705347Y-100710195D01*
X119699007Y-100695272D01*
X119692046Y-100681021D01*
X119684460Y-100667440D01*
X119676244Y-100654525D01*
X119667395Y-100642272D01*
X119657908Y-100630678D01*
X119647778Y-100619739D01*
X119637002Y-100609454D01*
X119625575Y-100599817D01*
X119613493Y-100590827D01*
X119600751Y-100582478D01*
X119587346Y-100574769D01*
X119573273Y-100567696D01*
X119558527Y-100561256D01*
X119543104Y-100555444D01*
X119527001Y-100550258D01*
X119510213Y-100545695D01*
X119492735Y-100541752D01*
X119474563Y-100538424D01*
X119455693Y-100535708D01*
X119436121Y-100533602D01*
X119415842Y-100532102D01*
X119394852Y-100531204D01*
X119373147Y-100530905D01*
X119154793Y-100530905D01*
X119826852Y-101508658D01*
X119833103Y-101518616D01*
X119838313Y-101530009D01*
X119840193Y-101541846D01*
X119840334Y-101552329D01*
X119839532Y-101566744D01*
X119836235Y-101579784D01*
X119828827Y-101589452D01*
X119817543Y-101594226D01*
X119805096Y-101595712D01*
X119793097Y-101595989D01*
X119786405Y-101596000D01*
X118894235Y-101596000D01*
X118864047Y-101122364D01*
G37*
G36*
X117733886Y-101604792D02*
G01*
X117733886Y-101525951D01*
X117752336Y-101525935D01*
X117768746Y-101525822D01*
X117783234Y-101525516D01*
X117795916Y-101524920D01*
X117811811Y-101523272D01*
X117824303Y-101520428D01*
X117836350Y-101514214D01*
X117843988Y-101504522D01*
X117848156Y-101490579D01*
X117849568Y-101476868D01*
X117849950Y-101460005D01*
X117849950Y-100845685D01*
X118157403Y-100859168D01*
X118157403Y-100938302D01*
X118138905Y-100938318D01*
X118122459Y-100938431D01*
X118107947Y-100938737D01*
X118095250Y-100939333D01*
X118079348Y-100940981D01*
X118066865Y-100943825D01*
X118054845Y-100950039D01*
X118047242Y-100959731D01*
X118043109Y-100973674D01*
X118041715Y-100987385D01*
X118041339Y-101004248D01*
X118041339Y-101326648D01*
X118041588Y-101339473D01*
X118042330Y-101352004D01*
X118043556Y-101364232D01*
X118045256Y-101376152D01*
X118047423Y-101387756D01*
X118053119Y-101409984D01*
X118060572Y-101430857D01*
X118069713Y-101450317D01*
X118080470Y-101468303D01*
X118092773Y-101484758D01*
X118106549Y-101499620D01*
X118121730Y-101512832D01*
X118138244Y-101524334D01*
X118156019Y-101534067D01*
X118174986Y-101541971D01*
X118195073Y-101547987D01*
X118216209Y-101552057D01*
X118238325Y-101554120D01*
X118249727Y-101554381D01*
X118261485Y-101554258D01*
X118282908Y-101553269D01*
X118301687Y-101551283D01*
X118317995Y-101548287D01*
X118332005Y-101544272D01*
X118343892Y-101539225D01*
X118358122Y-101529700D01*
X118368553Y-101517796D01*
X118375771Y-101503476D01*
X118380363Y-101486704D01*
X118382256Y-101474143D01*
X118383417Y-101460466D01*
X118384019Y-101445661D01*
X118384237Y-101429718D01*
X118384256Y-101421317D01*
X118384256Y-100845685D01*
X118691709Y-100859168D01*
X118691709Y-100938302D01*
X118673211Y-100938318D01*
X118656765Y-100938431D01*
X118642252Y-100938737D01*
X118629555Y-100939333D01*
X118613654Y-100940981D01*
X118601170Y-100943825D01*
X118589151Y-100950039D01*
X118581548Y-100959731D01*
X118577414Y-100973674D01*
X118576021Y-100987385D01*
X118575645Y-101004248D01*
X118575645Y-101397577D01*
X118575250Y-101414059D01*
X118574077Y-101429720D01*
X118572146Y-101444581D01*
X118569476Y-101458660D01*
X118566087Y-101471978D01*
X118561997Y-101484553D01*
X118557227Y-101496406D01*
X118551794Y-101507555D01*
X118545720Y-101518020D01*
X118539023Y-101527820D01*
X118523836Y-101545506D01*
X118506390Y-101560768D01*
X118486838Y-101573761D01*
X118476321Y-101579456D01*
X118465335Y-101584642D01*
X118453901Y-101589340D01*
X118442036Y-101593567D01*
X118429761Y-101597345D01*
X118417095Y-101600691D01*
X118404058Y-101603627D01*
X118390667Y-101606171D01*
X118376944Y-101608342D01*
X118362907Y-101610161D01*
X118348575Y-101611647D01*
X118333968Y-101612818D01*
X118319105Y-101613696D01*
X118304006Y-101614299D01*
X118288689Y-101614646D01*
X118273174Y-101614757D01*
X118258952Y-101614649D01*
X118241249Y-101613894D01*
X118227809Y-101612710D01*
X118213267Y-101610759D01*
X118197801Y-101607849D01*
X118181587Y-101603786D01*
X118164804Y-101598381D01*
X118147629Y-101591440D01*
X118130241Y-101582772D01*
X118112816Y-101572185D01*
X118095534Y-101559487D01*
X118078570Y-101544486D01*
X118070264Y-101536061D01*
X118062104Y-101526990D01*
X118054113Y-101517246D01*
X118046313Y-101506807D01*
X118038726Y-101495648D01*
X118031374Y-101483745D01*
X118031374Y-101614757D01*
X117733886Y-101604792D01*
G37*
G36*
X118328569Y-100578093D02*
G01*
X118329171Y-100566002D01*
X118330939Y-100554278D01*
X118335653Y-100537502D01*
X118342672Y-100521872D01*
X118351805Y-100507580D01*
X118362860Y-100494818D01*
X118375647Y-100483780D01*
X118389973Y-100474658D01*
X118405647Y-100467645D01*
X118422479Y-100462933D01*
X118434249Y-100461165D01*
X118446391Y-100460563D01*
X118458482Y-100461165D01*
X118470207Y-100462933D01*
X118486982Y-100467645D01*
X118502612Y-100474658D01*
X118516904Y-100483780D01*
X118529666Y-100494818D01*
X118540704Y-100507580D01*
X118549826Y-100521872D01*
X118556840Y-100537502D01*
X118561552Y-100554278D01*
X118563319Y-100566002D01*
X118563921Y-100578093D01*
X118563319Y-100589942D01*
X118560249Y-100607126D01*
X118554748Y-100623412D01*
X118547011Y-100638585D01*
X118537228Y-100652431D01*
X118525594Y-100664735D01*
X118512301Y-100675283D01*
X118497541Y-100683860D01*
X118481508Y-100690252D01*
X118464394Y-100694244D01*
X118452479Y-100695467D01*
X118446391Y-100695623D01*
X118434249Y-100695005D01*
X118422479Y-100693193D01*
X118405647Y-100688377D01*
X118389973Y-100681233D01*
X118375647Y-100671975D01*
X118362860Y-100660818D01*
X118351805Y-100647976D01*
X118342672Y-100633664D01*
X118335653Y-100618097D01*
X118330939Y-100601488D01*
X118328720Y-100584052D01*
X118328569Y-100578093D01*
G37*
G36*
X117896845Y-100578093D02*
G01*
X117897447Y-100566002D01*
X117899214Y-100554278D01*
X117903926Y-100537502D01*
X117910940Y-100521872D01*
X117920062Y-100507580D01*
X117931100Y-100494818D01*
X117943862Y-100483780D01*
X117958154Y-100474658D01*
X117973784Y-100467645D01*
X117990559Y-100462933D01*
X118002284Y-100461165D01*
X118014375Y-100460563D01*
X118026517Y-100461165D01*
X118038287Y-100462933D01*
X118055119Y-100467645D01*
X118070793Y-100474658D01*
X118085119Y-100483780D01*
X118097906Y-100494818D01*
X118108961Y-100507580D01*
X118118094Y-100521872D01*
X118125113Y-100537502D01*
X118129828Y-100554278D01*
X118131596Y-100566002D01*
X118132197Y-100578093D01*
X118131596Y-100589942D01*
X118128524Y-100607126D01*
X118123020Y-100623412D01*
X118115275Y-100638585D01*
X118105480Y-100652431D01*
X118093827Y-100664735D01*
X118080506Y-100675283D01*
X118065709Y-100683860D01*
X118049627Y-100690252D01*
X118032452Y-100694244D01*
X118020489Y-100695467D01*
X118014375Y-100695623D01*
X118002284Y-100695005D01*
X117990559Y-100693193D01*
X117973784Y-100688377D01*
X117958154Y-100681233D01*
X117943862Y-100671975D01*
X117931100Y-100660818D01*
X117920062Y-100647976D01*
X117910940Y-100633664D01*
X117903926Y-100618097D01*
X117899214Y-100601488D01*
X117896997Y-100584052D01*
X117896845Y-100578093D01*
G37*
G36*
X116951918Y-100983732D02*
G01*
X116952957Y-100967498D01*
X116955980Y-100952218D01*
X116960852Y-100937906D01*
X116967434Y-100924573D01*
X116975589Y-100912233D01*
X116985180Y-100900898D01*
X116996069Y-100890581D01*
X117008119Y-100881296D01*
X117021192Y-100873055D01*
X117035152Y-100865871D01*
X117049860Y-100859757D01*
X117065180Y-100854726D01*
X117080974Y-100850790D01*
X117097104Y-100847963D01*
X117113433Y-100846257D01*
X117129825Y-100845685D01*
X117151328Y-100846656D01*
X117171675Y-100849507D01*
X117190899Y-100854146D01*
X117209033Y-100860482D01*
X117226108Y-100868424D01*
X117242159Y-100877880D01*
X117257217Y-100888759D01*
X117271315Y-100900970D01*
X117284485Y-100914420D01*
X117296761Y-100929019D01*
X117308175Y-100944675D01*
X117318759Y-100961296D01*
X117328546Y-100978792D01*
X117337569Y-100997070D01*
X117345861Y-101016039D01*
X117353454Y-101035609D01*
X117353454Y-100845685D01*
X117632184Y-100860633D01*
X117632184Y-100939475D01*
X117613737Y-100939491D01*
X117597336Y-100939601D01*
X117582863Y-100939902D01*
X117570199Y-100940487D01*
X117554339Y-100942106D01*
X117541886Y-100944899D01*
X117529894Y-100951003D01*
X117522307Y-100960523D01*
X117518180Y-100974218D01*
X117516788Y-100987685D01*
X117516412Y-101004248D01*
X117516412Y-101517158D01*
X117632184Y-101517158D01*
X117632184Y-101596000D01*
X117420572Y-101591017D01*
X117408102Y-101591018D01*
X117394742Y-101591027D01*
X117380624Y-101591050D01*
X117365882Y-101591095D01*
X117350650Y-101591169D01*
X117335059Y-101591280D01*
X117319243Y-101591434D01*
X117303335Y-101591640D01*
X117287468Y-101591904D01*
X117271776Y-101592233D01*
X117256391Y-101592636D01*
X117241447Y-101593119D01*
X117227076Y-101593689D01*
X117213412Y-101594355D01*
X117200588Y-101595122D01*
X117188736Y-101596000D01*
X117188736Y-101517158D01*
X117334989Y-101517158D01*
X117334989Y-101226704D01*
X117334474Y-101203996D01*
X117333807Y-101192012D01*
X117332847Y-101179679D01*
X117331579Y-101167050D01*
X117329987Y-101154177D01*
X117328056Y-101141114D01*
X117325770Y-101127914D01*
X117323115Y-101114630D01*
X117320075Y-101101315D01*
X117316634Y-101088021D01*
X117312779Y-101074803D01*
X117308492Y-101061712D01*
X117303759Y-101048803D01*
X117298565Y-101036127D01*
X117292894Y-101023739D01*
X117286731Y-101011690D01*
X117280060Y-101000034D01*
X117272867Y-100988825D01*
X117265136Y-100978115D01*
X117256852Y-100967957D01*
X117248000Y-100958403D01*
X117238563Y-100949509D01*
X117228528Y-100941325D01*
X117217878Y-100933905D01*
X117206599Y-100927303D01*
X117194674Y-100921571D01*
X117182090Y-100916762D01*
X117168829Y-100912930D01*
X117154878Y-100910127D01*
X117140221Y-100908406D01*
X117124842Y-100907821D01*
X117133572Y-100917554D01*
X117140816Y-100928081D01*
X117146681Y-100939062D01*
X117151798Y-100952210D01*
X117155417Y-100967427D01*
X117156698Y-100980136D01*
X117156789Y-100984611D01*
X117156175Y-100996952D01*
X117153083Y-101013937D01*
X117147644Y-101029097D01*
X117140145Y-101042440D01*
X117130875Y-101053977D01*
X117120122Y-101063715D01*
X117108174Y-101071662D01*
X117095321Y-101077829D01*
X117081850Y-101082223D01*
X117068049Y-101084853D01*
X117054207Y-101085727D01*
X117040440Y-101084811D01*
X117026701Y-101082072D01*
X117013278Y-101077529D01*
X117000462Y-101071199D01*
X116988542Y-101063099D01*
X116977808Y-101053247D01*
X116968551Y-101041659D01*
X116961059Y-101028355D01*
X116955623Y-101013350D01*
X116952533Y-100996662D01*
X116951918Y-100984611D01*
X116951918Y-100983732D01*
G37*
G36*
X116417906Y-101596000D02*
G01*
X116417906Y-101517158D01*
X116521953Y-101517158D01*
X116521953Y-100845685D01*
X116814458Y-100860633D01*
X116814458Y-100939475D01*
X116796889Y-100939491D01*
X116781256Y-100939601D01*
X116767448Y-100939902D01*
X116755355Y-100940487D01*
X116740188Y-100942106D01*
X116728257Y-100944899D01*
X116716734Y-100951003D01*
X116709412Y-100960523D01*
X116705405Y-100974218D01*
X116704041Y-100987685D01*
X116703670Y-101004248D01*
X116703670Y-101517158D01*
X116819441Y-101517158D01*
X116819441Y-101596000D01*
X116614570Y-101591017D01*
X116417906Y-101596000D01*
G37*
G36*
X116498506Y-100583076D02*
G01*
X116499185Y-100569671D01*
X116501178Y-100556649D01*
X116504418Y-100544076D01*
X116508837Y-100532018D01*
X116514370Y-100520543D01*
X116520948Y-100509716D01*
X116528505Y-100499605D01*
X116536974Y-100490275D01*
X116546288Y-100481794D01*
X116556380Y-100474228D01*
X116567183Y-100467643D01*
X116578630Y-100462107D01*
X116590654Y-100457684D01*
X116603188Y-100454443D01*
X116616165Y-100452450D01*
X116629518Y-100451771D01*
X116642919Y-100452450D01*
X116655932Y-100454443D01*
X116668491Y-100457684D01*
X116680529Y-100462107D01*
X116691983Y-100467643D01*
X116702784Y-100474228D01*
X116712869Y-100481794D01*
X116722171Y-100490275D01*
X116730625Y-100499605D01*
X116738165Y-100509716D01*
X116744725Y-100520543D01*
X116750239Y-100532018D01*
X116754643Y-100544076D01*
X116757869Y-100556649D01*
X116759854Y-100569671D01*
X116760530Y-100583076D01*
X116759854Y-100596429D01*
X116757869Y-100609406D01*
X116754643Y-100621940D01*
X116750239Y-100633964D01*
X116744725Y-100645410D01*
X116738165Y-100656213D01*
X116730625Y-100666305D01*
X116722171Y-100675619D01*
X116712869Y-100684088D01*
X116702784Y-100691645D01*
X116691983Y-100698224D01*
X116680529Y-100703756D01*
X116668491Y-100708176D01*
X116655932Y-100711415D01*
X116642919Y-100713408D01*
X116629518Y-100714087D01*
X116616165Y-100713408D01*
X116603188Y-100711415D01*
X116590654Y-100708176D01*
X116578630Y-100703756D01*
X116567183Y-100698224D01*
X116556380Y-100691645D01*
X116546288Y-100684088D01*
X116536974Y-100675619D01*
X116528505Y-100666305D01*
X116520948Y-100656213D01*
X116514370Y-100645410D01*
X116508837Y-100633964D01*
X116504418Y-100621940D01*
X116501178Y-100609406D01*
X116499185Y-100596429D01*
X116498506Y-100583076D01*
G37*
G36*
X115559441Y-101404611D02*
G01*
X115562527Y-101392037D01*
X115571921Y-101384181D01*
X115584807Y-101381112D01*
X115596680Y-101380583D01*
X115599888Y-101380577D01*
X115612090Y-101380875D01*
X115623710Y-101382788D01*
X115633267Y-101390387D01*
X115638811Y-101402361D01*
X115640334Y-101406369D01*
X115648947Y-101425827D01*
X115658379Y-101443575D01*
X115668583Y-101459676D01*
X115679512Y-101474193D01*
X115691120Y-101487188D01*
X115703359Y-101498724D01*
X115716182Y-101508864D01*
X115729544Y-101517671D01*
X115743397Y-101525207D01*
X115757694Y-101531534D01*
X115772389Y-101536716D01*
X115787434Y-101540816D01*
X115802784Y-101543895D01*
X115818390Y-101546017D01*
X115834207Y-101547244D01*
X115850188Y-101547639D01*
X115871410Y-101546910D01*
X115891306Y-101544773D01*
X115909919Y-101541307D01*
X115927292Y-101536591D01*
X115943467Y-101530703D01*
X115958487Y-101523721D01*
X115972395Y-101515724D01*
X115985234Y-101506790D01*
X115997046Y-101496997D01*
X116007875Y-101486424D01*
X116017762Y-101475148D01*
X116026752Y-101463250D01*
X116034886Y-101450806D01*
X116042207Y-101437895D01*
X116048758Y-101424595D01*
X116054582Y-101410986D01*
X116059722Y-101397144D01*
X116064220Y-101383149D01*
X116068120Y-101369079D01*
X116071463Y-101355012D01*
X116074293Y-101341027D01*
X116076653Y-101327201D01*
X116078585Y-101313614D01*
X116080132Y-101300344D01*
X116081336Y-101287468D01*
X116082242Y-101275066D01*
X116082890Y-101263215D01*
X116083589Y-101241483D01*
X116083774Y-101222897D01*
X116083782Y-101214981D01*
X116083729Y-101195441D01*
X116083358Y-101173434D01*
X116082954Y-101161666D01*
X116082352Y-101149474D01*
X116081511Y-101136923D01*
X116080393Y-101124077D01*
X116078956Y-101110999D01*
X116077163Y-101097755D01*
X116074972Y-101084408D01*
X116072344Y-101071024D01*
X116069240Y-101057665D01*
X116065619Y-101044397D01*
X116061443Y-101031284D01*
X116056671Y-101018390D01*
X116051263Y-101005779D01*
X116045180Y-100993516D01*
X116038383Y-100981664D01*
X116030830Y-100970289D01*
X116022484Y-100959455D01*
X116013304Y-100949225D01*
X116003250Y-100939665D01*
X115992282Y-100930838D01*
X115980361Y-100922808D01*
X115967448Y-100915641D01*
X115953502Y-100909400D01*
X115938484Y-100904149D01*
X115922354Y-100899954D01*
X115905072Y-100896877D01*
X115886598Y-100894984D01*
X115866894Y-100894339D01*
X115851177Y-100894466D01*
X115836923Y-100894833D01*
X115824020Y-100895417D01*
X115808722Y-100896491D01*
X115795355Y-100897854D01*
X115783653Y-100899451D01*
X115770956Y-100901691D01*
X115757864Y-100904597D01*
X115767967Y-100914941D01*
X115775820Y-100925750D01*
X115781702Y-100936689D01*
X115786706Y-100950038D01*
X115789607Y-100962420D01*
X115791079Y-100975086D01*
X115791276Y-100981680D01*
X115790607Y-100995040D01*
X115788669Y-101007432D01*
X115785567Y-101018871D01*
X115778963Y-101034274D01*
X115770333Y-101047615D01*
X115760032Y-101058943D01*
X115748415Y-101068307D01*
X115735836Y-101075756D01*
X115722652Y-101081340D01*
X115709216Y-101085108D01*
X115695884Y-101087109D01*
X115687229Y-101087486D01*
X115672563Y-101086558D01*
X115658092Y-101083775D01*
X115644088Y-101079133D01*
X115630825Y-101072633D01*
X115618574Y-101064272D01*
X115607607Y-101054049D01*
X115598198Y-101041962D01*
X115590619Y-101028011D01*
X115585141Y-101012194D01*
X115582792Y-101000611D01*
X115581578Y-100988198D01*
X115581423Y-100981680D01*
X115581985Y-100968523D01*
X115583636Y-100956130D01*
X115586321Y-100944478D01*
X115594582Y-100923307D01*
X115606341Y-100904828D01*
X115621167Y-100888860D01*
X115638634Y-100875220D01*
X115658312Y-100863728D01*
X115679774Y-100854201D01*
X115691039Y-100850118D01*
X115702589Y-100846459D01*
X115714371Y-100843200D01*
X115726331Y-100840319D01*
X115738416Y-100837793D01*
X115750571Y-100835600D01*
X115762743Y-100833716D01*
X115774879Y-100832120D01*
X115786926Y-100830788D01*
X115798829Y-100829698D01*
X115810535Y-100828827D01*
X115833141Y-100827651D01*
X115854318Y-100827078D01*
X115873635Y-100826928D01*
X115901312Y-100829006D01*
X115927967Y-100832088D01*
X115953608Y-100836142D01*
X115978246Y-100841135D01*
X116001889Y-100847034D01*
X116024547Y-100853809D01*
X116046230Y-100861427D01*
X116066947Y-100869856D01*
X116086707Y-100879064D01*
X116105521Y-100889018D01*
X116123396Y-100899688D01*
X116140344Y-100911039D01*
X116156372Y-100923041D01*
X116171491Y-100935662D01*
X116185711Y-100948868D01*
X116199040Y-100962629D01*
X116211488Y-100976912D01*
X116223064Y-100991685D01*
X116233778Y-101006915D01*
X116243640Y-101022572D01*
X116252658Y-101038622D01*
X116260843Y-101055034D01*
X116268203Y-101071775D01*
X116274749Y-101088814D01*
X116280489Y-101106118D01*
X116285433Y-101123655D01*
X116289591Y-101141394D01*
X116292971Y-101159301D01*
X116295584Y-101177346D01*
X116297438Y-101195495D01*
X116298544Y-101213717D01*
X116298911Y-101231980D01*
X116298450Y-101252728D01*
X116297073Y-101273083D01*
X116294792Y-101293030D01*
X116291617Y-101312549D01*
X116287558Y-101331624D01*
X116282626Y-101350238D01*
X116276831Y-101368372D01*
X116270183Y-101386009D01*
X116262694Y-101403131D01*
X116254373Y-101419722D01*
X116245231Y-101435764D01*
X116235278Y-101451239D01*
X116224526Y-101466129D01*
X116212984Y-101480418D01*
X116200662Y-101494087D01*
X116187573Y-101507120D01*
X116173724Y-101519498D01*
X116159129Y-101531204D01*
X116143795Y-101542221D01*
X116127736Y-101552532D01*
X116110959Y-101562118D01*
X116093477Y-101570962D01*
X116075300Y-101579047D01*
X116056437Y-101586355D01*
X116036900Y-101592869D01*
X116016699Y-101598571D01*
X115995844Y-101603444D01*
X115974347Y-101607470D01*
X115952217Y-101610632D01*
X115929464Y-101612912D01*
X115906100Y-101614293D01*
X115882135Y-101614757D01*
X115857253Y-101614199D01*
X115833640Y-101612569D01*
X115811264Y-101609937D01*
X115790094Y-101606372D01*
X115770099Y-101601942D01*
X115751246Y-101596718D01*
X115733505Y-101590768D01*
X115716845Y-101584161D01*
X115701233Y-101576967D01*
X115686639Y-101569253D01*
X115673031Y-101561090D01*
X115660377Y-101552547D01*
X115648647Y-101543692D01*
X115637809Y-101534595D01*
X115627831Y-101525324D01*
X115618682Y-101515949D01*
X115610331Y-101506539D01*
X115602746Y-101497162D01*
X115589750Y-101478788D01*
X115579443Y-101461377D01*
X115571572Y-101445483D01*
X115565888Y-101431659D01*
X115562139Y-101420457D01*
X115559441Y-101408128D01*
X115559441Y-101404611D01*
G37*
G36*
X114525121Y-101596000D02*
G01*
X114525121Y-101517158D01*
X114641186Y-101517158D01*
X114641186Y-101086020D01*
X114641451Y-101069962D01*
X114642244Y-101054535D01*
X114643563Y-101039730D01*
X114645405Y-101025541D01*
X114647768Y-101011958D01*
X114650650Y-100998975D01*
X114654049Y-100986583D01*
X114657961Y-100974774D01*
X114662384Y-100963540D01*
X114667316Y-100952874D01*
X114678697Y-100933212D01*
X114692085Y-100915724D01*
X114707461Y-100900347D01*
X114724804Y-100887017D01*
X114744097Y-100875670D01*
X114765318Y-100866243D01*
X114776647Y-100862230D01*
X114788450Y-100858673D01*
X114800726Y-100855564D01*
X114813473Y-100852896D01*
X114826687Y-100850659D01*
X114840367Y-100848848D01*
X114854510Y-100847452D01*
X114869113Y-100846465D01*
X114884175Y-100845879D01*
X114899692Y-100845685D01*
X114914611Y-100845967D01*
X114929089Y-100846794D01*
X114943133Y-100848143D01*
X114956747Y-100849990D01*
X114969936Y-100852312D01*
X114982706Y-100855083D01*
X114995060Y-100858280D01*
X115007005Y-100861879D01*
X115018545Y-100865856D01*
X115029685Y-100870186D01*
X115050785Y-100879812D01*
X115070345Y-100890565D01*
X115088406Y-100902252D01*
X115105008Y-100914681D01*
X115120189Y-100927659D01*
X115133991Y-100940995D01*
X115146452Y-100954496D01*
X115157614Y-100967969D01*
X115167515Y-100981222D01*
X115176197Y-100994063D01*
X115183698Y-101006300D01*
X115185456Y-101006300D01*
X115185456Y-100433013D01*
X115482944Y-100451771D01*
X115482944Y-100530905D01*
X115464446Y-100530921D01*
X115448000Y-100531032D01*
X115433488Y-100531334D01*
X115420790Y-100531922D01*
X115404889Y-100533548D01*
X115392406Y-100536354D01*
X115380386Y-100542486D01*
X115372783Y-100552049D01*
X115368650Y-100565805D01*
X115367256Y-100579334D01*
X115366880Y-100595972D01*
X115366880Y-101517158D01*
X115482944Y-101517158D01*
X115482944Y-101596000D01*
X115271039Y-101591017D01*
X115059427Y-101596000D01*
X115059427Y-101517158D01*
X115175491Y-101517158D01*
X115175491Y-101169258D01*
X115175074Y-101152542D01*
X115173843Y-101136408D01*
X115171832Y-101120853D01*
X115169075Y-101105873D01*
X115165606Y-101091466D01*
X115161457Y-101077627D01*
X115156663Y-101064353D01*
X115151256Y-101051642D01*
X115145271Y-101039489D01*
X115138740Y-101027891D01*
X115131698Y-101016845D01*
X115124177Y-101006347D01*
X115116212Y-100996394D01*
X115107835Y-100986984D01*
X115099081Y-100978111D01*
X115089982Y-100969773D01*
X115080572Y-100961967D01*
X115070885Y-100954689D01*
X115060954Y-100947935D01*
X115050813Y-100941703D01*
X115040495Y-100935989D01*
X115019462Y-100926102D01*
X114998123Y-100918245D01*
X114976747Y-100912394D01*
X114955600Y-100908519D01*
X114934952Y-100906595D01*
X114924898Y-100906355D01*
X114909414Y-100907322D01*
X114895155Y-100910409D01*
X114882185Y-100915897D01*
X114870570Y-100924068D01*
X114860375Y-100935203D01*
X114851666Y-100949582D01*
X114846717Y-100961110D01*
X114842476Y-100974288D01*
X114838963Y-100989200D01*
X114836197Y-101005928D01*
X114834197Y-101024557D01*
X114832983Y-101045170D01*
X114832574Y-101067849D01*
X114832574Y-101517158D01*
X114948638Y-101517158D01*
X114948638Y-101596000D01*
X114736733Y-101591017D01*
X114525121Y-101596000D01*
G37*
D12*
%TO.C,G\u002A\u002A\u002A*%
G36*
X138643628Y-107740726D02*
G01*
X138646576Y-107695513D01*
X138655361Y-107651562D01*
X138669898Y-107609569D01*
X138690099Y-107570229D01*
X138715877Y-107534238D01*
X138747144Y-107502291D01*
X138783815Y-107475084D01*
X138825802Y-107453313D01*
X138873019Y-107437672D01*
X138925378Y-107428858D01*
X138963097Y-107427118D01*
X139007805Y-107429409D01*
X139053681Y-107435926D01*
X139100244Y-107446129D01*
X139147012Y-107459480D01*
X139193506Y-107475442D01*
X139239245Y-107493476D01*
X139283746Y-107513044D01*
X139326531Y-107533608D01*
X139375288Y-107556870D01*
X139417672Y-107576380D01*
X139454469Y-107592557D01*
X139496201Y-107609668D01*
X139539212Y-107625294D01*
X139582207Y-107638159D01*
X139621751Y-107647778D01*
X139635254Y-107650844D01*
X139629976Y-107607561D01*
X139623529Y-107565473D01*
X139615980Y-107524336D01*
X139607399Y-107483902D01*
X139597851Y-107443926D01*
X139587405Y-107404160D01*
X139576128Y-107364359D01*
X139564088Y-107324276D01*
X139551352Y-107283665D01*
X139537988Y-107242280D01*
X139528764Y-107214138D01*
X139511504Y-107158178D01*
X139500147Y-107120716D01*
X139489016Y-107083182D01*
X139478201Y-107045620D01*
X139462767Y-106989322D01*
X139448550Y-106933211D01*
X139435854Y-106877436D01*
X139424984Y-106822147D01*
X139416244Y-106767494D01*
X139409939Y-106713627D01*
X139406372Y-106660695D01*
X139405665Y-106626001D01*
X139408016Y-106577396D01*
X139414762Y-106533637D01*
X139425443Y-106494490D01*
X139447839Y-106443898D01*
X139476505Y-106402353D01*
X139509893Y-106369057D01*
X139546450Y-106343215D01*
X139584627Y-106324027D01*
X139622874Y-106310699D01*
X139671297Y-106300664D01*
X139713411Y-106297739D01*
X139762230Y-106301345D01*
X139801172Y-106309283D01*
X139840694Y-106322318D01*
X139879521Y-106341001D01*
X139916377Y-106365883D01*
X139949988Y-106397513D01*
X139979077Y-106436444D01*
X140002371Y-106483224D01*
X140018593Y-106538406D01*
X140024850Y-106580133D01*
X140027019Y-106626001D01*
X140025452Y-106678064D01*
X140020972Y-106730810D01*
X140013913Y-106784045D01*
X140004608Y-106837577D01*
X139993390Y-106891211D01*
X139980593Y-106944755D01*
X139966550Y-106998016D01*
X139951594Y-107050801D01*
X139936058Y-107102915D01*
X139920276Y-107154167D01*
X139909783Y-107187760D01*
X139894314Y-107238037D01*
X139879796Y-107285807D01*
X139866254Y-107331444D01*
X139853712Y-107375327D01*
X139842194Y-107417831D01*
X139831724Y-107459334D01*
X139822326Y-107500213D01*
X139814024Y-107540843D01*
X139806843Y-107581603D01*
X139800807Y-107622867D01*
X139797431Y-107650844D01*
X139840906Y-107641242D01*
X139883630Y-107628950D01*
X139925684Y-107614106D01*
X139965739Y-107597843D01*
X140001708Y-107581818D01*
X140021157Y-107572687D01*
X140059766Y-107553517D01*
X140099629Y-107534220D01*
X140140557Y-107515236D01*
X140182363Y-107497004D01*
X140224859Y-107479963D01*
X140267854Y-107464553D01*
X140311163Y-107451213D01*
X140354595Y-107440383D01*
X140397962Y-107432503D01*
X140441077Y-107428012D01*
X140469587Y-107427118D01*
X140511010Y-107429039D01*
X140567164Y-107438676D01*
X140616362Y-107455557D01*
X140658849Y-107478710D01*
X140694872Y-107507165D01*
X140724677Y-107539951D01*
X140748511Y-107576096D01*
X140766619Y-107614631D01*
X140779249Y-107654585D01*
X140786646Y-107694986D01*
X140789057Y-107734864D01*
X140786109Y-107780303D01*
X140777323Y-107824390D01*
X140762787Y-107866447D01*
X140742586Y-107905790D01*
X140716808Y-107941739D01*
X140685540Y-107973614D01*
X140648870Y-108000732D01*
X140606882Y-108022414D01*
X140559666Y-108037978D01*
X140507307Y-108046742D01*
X140469587Y-108048472D01*
X140424597Y-108046222D01*
X140378576Y-108039816D01*
X140331960Y-108029770D01*
X140285184Y-108016598D01*
X140238682Y-108000816D01*
X140192891Y-107982938D01*
X140148244Y-107963481D01*
X140105177Y-107942959D01*
X140056669Y-107919672D01*
X140014489Y-107900096D01*
X139977853Y-107883821D01*
X139936279Y-107866545D01*
X139893391Y-107850693D01*
X139850462Y-107837583D01*
X139810934Y-107827822D01*
X139797431Y-107824745D01*
X139803111Y-107867424D01*
X139810618Y-107910118D01*
X139819668Y-107952587D01*
X139829974Y-107994589D01*
X139841254Y-108035883D01*
X139853221Y-108076227D01*
X139865590Y-108115380D01*
X139878077Y-108153099D01*
X139894416Y-108200746D01*
X139909783Y-108244843D01*
X139930419Y-108308959D01*
X139948480Y-108367271D01*
X139964136Y-108420412D01*
X139977560Y-108469012D01*
X139988923Y-108513702D01*
X139998397Y-108555113D01*
X140006154Y-108593877D01*
X140014944Y-108648439D01*
X140020837Y-108700594D01*
X140024411Y-108752472D01*
X140026246Y-108806204D01*
X140026923Y-108863918D01*
X140027016Y-108905659D01*
X140027019Y-108927746D01*
X140026857Y-108995537D01*
X140026372Y-109063354D01*
X140025569Y-109131194D01*
X140024451Y-109199054D01*
X140023023Y-109266931D01*
X140021288Y-109334822D01*
X140019250Y-109402725D01*
X140016914Y-109470637D01*
X140014283Y-109538554D01*
X140011361Y-109606474D01*
X140008152Y-109674394D01*
X140004660Y-109742311D01*
X140000889Y-109810222D01*
X139996842Y-109878125D01*
X139992525Y-109946017D01*
X139987940Y-110013894D01*
X139983092Y-110081754D01*
X139977985Y-110149594D01*
X139972622Y-110217411D01*
X139967008Y-110285202D01*
X139961146Y-110352964D01*
X139955041Y-110420696D01*
X139948695Y-110488392D01*
X139942114Y-110556052D01*
X139935302Y-110623671D01*
X139928261Y-110691248D01*
X139920996Y-110758779D01*
X139913511Y-110826261D01*
X139905810Y-110893691D01*
X139897897Y-110961068D01*
X139889776Y-111028386D01*
X139881451Y-111095645D01*
X139875618Y-111141879D01*
X139869970Y-111182792D01*
X139863662Y-111224653D01*
X139856887Y-111265114D01*
X139848059Y-111310146D01*
X139837439Y-111350003D01*
X139830648Y-111364312D01*
X139801247Y-111393851D01*
X139759633Y-111402522D01*
X139719273Y-111403391D01*
X139679951Y-111410925D01*
X139639562Y-111410340D01*
X139603869Y-111392813D01*
X139584451Y-111357474D01*
X139577549Y-111310475D01*
X139569134Y-111249636D01*
X139558224Y-111167036D01*
X139551982Y-111118070D01*
X139545295Y-111064257D01*
X139538223Y-111005794D01*
X139530824Y-110942879D01*
X139523160Y-110875710D01*
X139515288Y-110804485D01*
X139507269Y-110729401D01*
X139499163Y-110650656D01*
X139491028Y-110568447D01*
X139482925Y-110482973D01*
X139474913Y-110394430D01*
X139467052Y-110303017D01*
X139459401Y-110208931D01*
X139452019Y-110112370D01*
X139444967Y-110013532D01*
X139438304Y-109912614D01*
X139432090Y-109809814D01*
X139426383Y-109705329D01*
X139421244Y-109599358D01*
X139416732Y-109492097D01*
X139412907Y-109383745D01*
X139409828Y-109274500D01*
X139407555Y-109164558D01*
X139406148Y-109054118D01*
X139405665Y-108943377D01*
X139405697Y-108897296D01*
X139405917Y-108854904D01*
X139406516Y-108815449D01*
X139408535Y-108760126D01*
X139412466Y-108707175D01*
X139418948Y-108654058D01*
X139428618Y-108598232D01*
X139437150Y-108558256D01*
X139447571Y-108515194D01*
X139460071Y-108468295D01*
X139474837Y-108416804D01*
X139492059Y-108359969D01*
X139511925Y-108297038D01*
X139534626Y-108227257D01*
X139549488Y-108181983D01*
X139564500Y-108135071D01*
X139579259Y-108086900D01*
X139593366Y-108037847D01*
X139606420Y-107988291D01*
X139618019Y-107938608D01*
X139627764Y-107889178D01*
X139635254Y-107840377D01*
X139596947Y-107848677D01*
X139554723Y-107860536D01*
X139513504Y-107874742D01*
X139474402Y-107890199D01*
X139430000Y-107909564D01*
X139410550Y-107918534D01*
X139372192Y-107933707D01*
X139332532Y-107949753D01*
X139291765Y-107966157D01*
X139250083Y-107982402D01*
X139207680Y-107997970D01*
X139164749Y-108012346D01*
X139121482Y-108025011D01*
X139078075Y-108035450D01*
X139034719Y-108043146D01*
X138991607Y-108047581D01*
X138963097Y-108048472D01*
X138921675Y-108046561D01*
X138865520Y-108036974D01*
X138816323Y-108020170D01*
X138773836Y-107997107D01*
X138737813Y-107968740D01*
X138708008Y-107936027D01*
X138684174Y-107899922D01*
X138666066Y-107861384D01*
X138653436Y-107821367D01*
X138646039Y-107780829D01*
X138643628Y-107740726D01*
G37*
G36*
X143314595Y-112551976D02*
G01*
X143384030Y-112616031D01*
X143431071Y-112722523D01*
X143455629Y-112871235D01*
X143457618Y-113061950D01*
X143454902Y-113111312D01*
X143423640Y-113358306D01*
X143365294Y-113583525D01*
X143282571Y-113783217D01*
X143178176Y-113953630D01*
X143054815Y-114091010D01*
X142915195Y-114191607D01*
X142762021Y-114251668D01*
X142620672Y-114268034D01*
X142526749Y-114260674D01*
X142438012Y-114242979D01*
X142401364Y-114230517D01*
X142273460Y-114152900D01*
X142185861Y-114048744D01*
X142138956Y-113918645D01*
X142130498Y-113816295D01*
X142150952Y-113683940D01*
X142207027Y-113532515D01*
X142294035Y-113369538D01*
X142407287Y-113202528D01*
X142542094Y-113039004D01*
X142693770Y-112886483D01*
X142730845Y-112853493D01*
X142867745Y-112740022D01*
X142992150Y-112647412D01*
X143098409Y-112579373D01*
X143180870Y-112539613D01*
X143222851Y-112530576D01*
X143314595Y-112551976D01*
G37*
G36*
X144785195Y-111760503D02*
G01*
X144869196Y-111810986D01*
X144907375Y-111865616D01*
X144943801Y-111974411D01*
X144954181Y-112089165D01*
X144937045Y-112214777D01*
X144890923Y-112356148D01*
X144814343Y-112518176D01*
X144705836Y-112705762D01*
X144610724Y-112853955D01*
X144460753Y-113068182D01*
X144323975Y-113237267D01*
X144199139Y-113362147D01*
X144084992Y-113443759D01*
X143980283Y-113483038D01*
X143883759Y-113480920D01*
X143812684Y-113450726D01*
X143723814Y-113382244D01*
X143654891Y-113295191D01*
X143602812Y-113182546D01*
X143564472Y-113037290D01*
X143536765Y-112852403D01*
X143533108Y-112818646D01*
X143517897Y-112602694D01*
X143521734Y-112428363D01*
X143544857Y-112292798D01*
X143584607Y-112197806D01*
X143656375Y-112115796D01*
X143772144Y-112030727D01*
X143927941Y-111945058D01*
X144119795Y-111861250D01*
X144141595Y-111852764D01*
X144343026Y-111785476D01*
X144519305Y-111747701D01*
X144667630Y-111739392D01*
X144785195Y-111760503D01*
G37*
G36*
X143661368Y-110244443D02*
G01*
X143745199Y-110322558D01*
X143755730Y-110336732D01*
X143797501Y-110417475D01*
X143815802Y-110513869D01*
X143810096Y-110631478D01*
X143779846Y-110775864D01*
X143724515Y-110952590D01*
X143686165Y-111057762D01*
X143603992Y-111268712D01*
X143527122Y-111453559D01*
X143457541Y-111608037D01*
X143397233Y-111727881D01*
X143348183Y-111808827D01*
X143322492Y-111839277D01*
X143254197Y-111874475D01*
X143156650Y-111892126D01*
X143046255Y-111890408D01*
X142974723Y-111877880D01*
X142876295Y-111845067D01*
X142768882Y-111796361D01*
X142667243Y-111739774D01*
X142586142Y-111683312D01*
X142548080Y-111646388D01*
X142482905Y-111529967D01*
X142445490Y-111391268D01*
X142440309Y-111250318D01*
X142448079Y-111198647D01*
X142512290Y-111007091D01*
X142619670Y-110818519D01*
X142765208Y-110639162D01*
X142943895Y-110475254D01*
X143137885Y-110340667D01*
X143301537Y-110255279D01*
X143441815Y-110210789D01*
X143561000Y-110207181D01*
X143661368Y-110244443D01*
G37*
G36*
X144810738Y-110195873D02*
G01*
X144921555Y-110286461D01*
X144933066Y-110299196D01*
X145020003Y-110428532D01*
X145063197Y-110570706D01*
X145062714Y-110727880D01*
X145018618Y-110902218D01*
X144955799Y-111047885D01*
X144825035Y-111257469D01*
X144656904Y-111439872D01*
X144456787Y-111590376D01*
X144230063Y-111704261D01*
X144190449Y-111719212D01*
X144081854Y-111753399D01*
X143970581Y-111780147D01*
X143867780Y-111797703D01*
X143784601Y-111804313D01*
X143732193Y-111798225D01*
X143723102Y-111792686D01*
X143712232Y-111756532D01*
X143706804Y-111683642D01*
X143706661Y-111585244D01*
X143711643Y-111472566D01*
X143721591Y-111356835D01*
X143730257Y-111287958D01*
X143789241Y-111008833D01*
X143880536Y-110765260D01*
X144004472Y-110556610D01*
X144161379Y-110382256D01*
X144238936Y-110317771D01*
X144332126Y-110249056D01*
X144402429Y-110204528D01*
X144463705Y-110177045D01*
X144529812Y-110159464D01*
X144555729Y-110154495D01*
X144689322Y-110152086D01*
X144810738Y-110195873D01*
G37*
G36*
X142575458Y-111835943D02*
G01*
X142723786Y-111890757D01*
X142853385Y-111977735D01*
X142883186Y-112005995D01*
X142947666Y-112088758D01*
X142994479Y-112181301D01*
X143018266Y-112269484D01*
X143013665Y-112339169D01*
X143011491Y-112344457D01*
X142984927Y-112385471D01*
X142931299Y-112455334D01*
X142856355Y-112547468D01*
X142765844Y-112655294D01*
X142665515Y-112772234D01*
X142561117Y-112891708D01*
X142458399Y-113007139D01*
X142363109Y-113111947D01*
X142280996Y-113199555D01*
X142217809Y-113263383D01*
X142179297Y-113296854D01*
X142179132Y-113296963D01*
X142071219Y-113347806D01*
X141958178Y-113367183D01*
X141855118Y-113353636D01*
X141809652Y-113332573D01*
X141751322Y-113290949D01*
X141708841Y-113252450D01*
X141707361Y-113250703D01*
X141665071Y-113175601D01*
X141630044Y-113069083D01*
X141606857Y-112947946D01*
X141599977Y-112856701D01*
X141617688Y-112670431D01*
X141672982Y-112478644D01*
X141759905Y-112292201D01*
X141872504Y-112121962D01*
X142004823Y-111978788D01*
X142133583Y-111883375D01*
X142268809Y-111830363D01*
X142419950Y-111815182D01*
X142575458Y-111835943D01*
G37*
G36*
X141141825Y-113310995D02*
G01*
X141305062Y-113310995D01*
X141310287Y-113574805D01*
X141337230Y-113822363D01*
X141371889Y-113989216D01*
X141450017Y-114226372D01*
X141550350Y-114422241D01*
X141675264Y-114579565D01*
X141827132Y-114701087D01*
X142008326Y-114789547D01*
X142087313Y-114815636D01*
X142182177Y-114832462D01*
X142311296Y-114840348D01*
X142461579Y-114839851D01*
X142619938Y-114831533D01*
X142773281Y-114815952D01*
X142908519Y-114793668D01*
X142974085Y-114777726D01*
X143306197Y-114660783D01*
X143619277Y-114504259D01*
X143918218Y-114305313D01*
X144206530Y-114062399D01*
X144501361Y-113755992D01*
X144773960Y-113408392D01*
X145022727Y-113022067D01*
X145246061Y-112599484D01*
X145427815Y-112180481D01*
X145513695Y-111946442D01*
X145575447Y-111739225D01*
X145615897Y-111545587D01*
X145637869Y-111352285D01*
X145644186Y-111166413D01*
X145643040Y-111020802D01*
X145637295Y-110906814D01*
X145625032Y-110807855D01*
X145604331Y-110707332D01*
X145580276Y-110614170D01*
X145484203Y-110330654D01*
X145361023Y-110085854D01*
X145211165Y-109880363D01*
X145035058Y-109714776D01*
X144843225Y-109594664D01*
X144775759Y-109563658D01*
X144712483Y-109542906D01*
X144639732Y-109529804D01*
X144543841Y-109521749D01*
X144435383Y-109516979D01*
X144247292Y-109516589D01*
X144083530Y-109532418D01*
X143928796Y-109568024D01*
X143767790Y-109626964D01*
X143585209Y-109712794D01*
X143578591Y-109716151D01*
X143369813Y-109828372D01*
X143191400Y-109939272D01*
X143027039Y-110059898D01*
X142860416Y-110201299D01*
X142854871Y-110206285D01*
X142513236Y-110545772D01*
X142209093Y-110914312D01*
X141944074Y-111309078D01*
X141719809Y-111727242D01*
X141537931Y-112165977D01*
X141400069Y-112622458D01*
X141360360Y-112796165D01*
X141321703Y-113046320D01*
X141305062Y-113310995D01*
X141141825Y-113310995D01*
X141139039Y-113185642D01*
X141175731Y-112813095D01*
X141255748Y-112433800D01*
X141377680Y-112051489D01*
X141540114Y-111669894D01*
X141741637Y-111292747D01*
X141980838Y-110923780D01*
X142256305Y-110566724D01*
X142290255Y-110526584D01*
X142368359Y-110440540D01*
X142470787Y-110335370D01*
X142586795Y-110221374D01*
X142705642Y-110108855D01*
X142816585Y-110008114D01*
X142908881Y-109929454D01*
X142931819Y-109911324D01*
X143160217Y-109747929D01*
X143397159Y-109601125D01*
X143633372Y-109475727D01*
X143859586Y-109376550D01*
X144066530Y-109308411D01*
X144115450Y-109296503D01*
X144304100Y-109273592D01*
X144522408Y-109280339D01*
X144763206Y-109315165D01*
X145019328Y-109376493D01*
X145283604Y-109462744D01*
X145548869Y-109572340D01*
X145698571Y-109645065D01*
X146078828Y-109866824D01*
X146440304Y-110129881D01*
X146778115Y-110429286D01*
X147087377Y-110760091D01*
X147363207Y-111117349D01*
X147600722Y-111496110D01*
X147688361Y-111661374D01*
X147764737Y-111827390D01*
X147840903Y-112017683D01*
X147911690Y-112217272D01*
X147971929Y-112411176D01*
X148016451Y-112584415D01*
X148029921Y-112651298D01*
X148050086Y-112811021D01*
X148060332Y-112997642D01*
X148060961Y-113196244D01*
X148052273Y-113391912D01*
X148034571Y-113569727D01*
X148008433Y-113713656D01*
X147920375Y-113997411D01*
X147799635Y-114277141D01*
X147654969Y-114532868D01*
X147638220Y-114558303D01*
X147521138Y-114713687D01*
X147373578Y-114879494D01*
X147207790Y-115043655D01*
X147036028Y-115194102D01*
X146870543Y-115318766D01*
X146856762Y-115328051D01*
X146594294Y-115484528D01*
X146300511Y-115627580D01*
X145991958Y-115750210D01*
X145685181Y-115845419D01*
X145564120Y-115874824D01*
X145452555Y-115892816D01*
X145303616Y-115907152D01*
X145128092Y-115917651D01*
X144936774Y-115924130D01*
X144740450Y-115926409D01*
X144549912Y-115924305D01*
X144375948Y-115917637D01*
X144229347Y-115906222D01*
X144167574Y-115898359D01*
X143778992Y-115819457D01*
X143374112Y-115699349D01*
X142958018Y-115540128D01*
X142535795Y-115343886D01*
X142112528Y-115112713D01*
X141821724Y-114933415D01*
X141641404Y-114805086D01*
X141503753Y-114679323D01*
X141403797Y-114550821D01*
X141337720Y-114417397D01*
X141283972Y-114252010D01*
X141233489Y-114057040D01*
X141190370Y-113851187D01*
X141158713Y-113653149D01*
X141147086Y-113547710D01*
X141141825Y-113310995D01*
G37*
%TD*%
D13*
%TO.C,H2*%
X153400000Y-102000000D03*
%TD*%
D14*
%TO.C,VCC/GND*%
X117400000Y-104600000D03*
D15*
X115400000Y-104600000D03*
%TD*%
D16*
%TO.C,Ref in*%
X106962500Y-108575000D03*
X106962500Y-114225000D03*
%TD*%
%TO.C,Laser out*%
X155412500Y-114175000D03*
X155412500Y-108525000D03*
%TD*%
D13*
%TO.C,H1*%
X109000000Y-102000000D03*
%TD*%
M02*
